<?xml version="1.0" encoding="utf-8"?>
<!DOCTYPE svg PUBLIC "-//W3C//DTD SVG 1.1//EN" "http://www.w3.org/Graphics/SVG/1.1/DTD/svg11.dtd">
<svg version="1.1" id="レイヤー_1" xmlns="http://www.w3.org/2000/svg" xmlns:xlink="http://www.w3.org/1999/xlink" x="0px"
	 y="0px" width="325.853px" height="85.037px" viewBox="0 0 325.853 85.037" enable-background="new 0 0 325.853 85.037"
	 xml:space="preserve">
<g>
	<g>
		<path fill="#EE730D" d="M0,54.477c0,1.623,0,2.998,0,3.986c0,14.676,11.898,26.574,26.575,26.574c0.874,0,2.053,0,3.437,0
			l30.561-30.561H0z"/>
		<path fill="#EB5C0C" d="M33.769,85.038c8.389,0,20.302,0,24.696,0c14.677,0,26.575-11.898,26.575-26.574c0-0.988,0-2.363,0-3.986
			H64.33L33.769,85.038z"/>
		<path fill="#E84130" d="M30.562-0.002c-1.624,0-2.998,0-3.986,0C11.898-0.002,0,11.896,0,26.573c0,4.491,0,16.838,0,25.246h30.562
			V-0.002z"/>
		<path fill="#FAC03D" d="M64.33,51.819h20.71c0-8.408,0-20.755,0-25.246c0-14.677-11.898-26.575-26.575-26.575
			c-4.491,0-16.837,0-25.246,0v20.71L64.33,51.819z"/>
		<polygon fill="#F39813" points="33.219,51.819 60.572,51.819 33.219,24.465 		"/>
	</g>
	<g>
		<g>
			<g>
				<g>
					<path d="M106.886,40.539c-1.336-1.321-2.004-3.085-2.004-5.292V18.61c0-2.206,0.668-3.97,2.004-5.291
						c1.335-1.32,3.121-1.981,5.356-1.981s4.029,0.668,5.378,2.004c1.351,1.336,2.026,3.106,2.026,5.312v1.873
						c0,0.292-0.146,0.436-0.436,0.436h-2.222c-0.29,0-0.436-0.145-0.436-0.436v-1.959c0-1.365-0.392-2.461-1.176-3.288
						c-0.783-0.828-1.829-1.241-3.136-1.241c-1.277,0-2.315,0.421-3.113,1.262c-0.799,0.843-1.198,1.932-1.198,3.267v16.724
						c0,1.335,0.399,2.423,1.198,3.266c0.798,0.842,1.836,1.262,3.113,1.262c1.307,0,2.353-0.413,3.136-1.241
						c0.784-0.827,1.176-1.923,1.176-3.287v-5.575c0-0.116-0.058-0.174-0.174-0.174h-3.745c-0.291,0-0.436-0.145-0.436-0.436v-1.829
						c0-0.289,0.145-0.436,0.436-0.436h6.576c0.289,0,0.436,0.146,0.436,0.436v7.969c0,2.208-0.676,3.971-2.026,5.292
						c-1.349,1.321-3.143,1.98-5.378,1.98S108.221,41.86,106.886,40.539z"/>
					<path d="M149.651,14.386h-10.104c-0.116,0-0.174,0.059-0.174,0.174v10.8c0,0.117,0.058,0.174,0.174,0.174h6.358
						c0.289,0,0.435,0.146,0.435,0.436v1.873c0,0.29-0.146,0.436-0.435,0.436h-6.358c-0.116,0-0.174,0.058-0.174,0.173v10.845
						c0,0.115,0.058,0.173,0.174,0.173h10.104c0.289,0,0.435,0.146,0.435,0.436v1.829c0,0.292-0.146,0.437-0.435,0.437h-12.935
						c-0.29,0-0.436-0.145-0.436-0.437V12.123c0-0.29,0.146-0.436,0.436-0.436h12.935c0.289,0,0.435,0.146,0.435,0.436v1.828
						C150.086,14.242,149.94,14.386,149.651,14.386z"/>
					<path d="M167.615,40.43c-1.38-1.394-2.069-3.237-2.069-5.531V18.959c0-2.294,0.689-4.138,2.069-5.531
						c1.379-1.394,3.186-2.09,5.422-2.09c2.265,0,4.094,0.697,5.487,2.09s2.091,3.237,2.091,5.531v15.939
						c0,2.265-0.697,4.101-2.091,5.509s-3.223,2.112-5.487,2.112C170.801,42.519,168.994,41.823,167.615,40.43z M176.282,38.492
						c0.826-0.886,1.24-2.025,1.24-3.419V18.828c0-1.421-0.414-2.576-1.24-3.461c-0.828-0.886-1.909-1.328-3.245-1.328
						c-1.307,0-2.366,0.442-3.179,1.328c-0.813,0.886-1.221,2.041-1.221,3.461v16.245c0,1.394,0.407,2.533,1.221,3.419
						c0.813,0.885,1.872,1.328,3.179,1.328C174.373,39.819,175.454,39.377,176.282,38.492z"/>
					<path d="M197.468,41.735V12.123c0-0.29,0.146-0.436,0.436-0.436h2.222c0.29,0,0.436,0.146,0.436,0.436v27.175
						c0,0.115,0.058,0.173,0.173,0.173h9.974c0.29,0,0.436,0.146,0.436,0.436v1.829c0,0.292-0.146,0.437-0.436,0.437h-12.804
						C197.613,42.171,197.468,42.027,197.468,41.735z"/>
					<path d="M257.218,41.735V12.123c0-0.29,0.146-0.436,0.436-0.436h2.309c0.232,0,0.393,0.115,0.479,0.348l8.754,21.949
						c0.027,0.086,0.071,0.131,0.13,0.131c0.058,0,0.088-0.045,0.088-0.131V12.123c0-0.29,0.145-0.436,0.435-0.436h2.178
						c0.29,0,0.436,0.146,0.436,0.436v29.612c0,0.292-0.146,0.437-0.436,0.437h-2.308c-0.233,0-0.393-0.116-0.479-0.349
						l-8.754-21.949c-0.029-0.088-0.072-0.123-0.13-0.109c-0.059,0.015-0.088,0.065-0.088,0.152l0.044,21.817
						c0,0.292-0.146,0.437-0.436,0.437h-2.222C257.363,42.171,257.218,42.027,257.218,41.735z"/>
					<path d="M290.011,41.735V12.123c0-0.29,0.146-0.436,0.436-0.436h2.222c0.29,0,0.436,0.146,0.436,0.436v29.612
						c0,0.292-0.146,0.437-0.436,0.437h-2.222C290.156,42.171,290.011,42.027,290.011,41.735z"/>
					<path d="M317.579,16.738c-0.03-0.086-0.06-0.13-0.088-0.13c-0.029,0-0.058,0.043-0.087,0.13l-5.226,25.041
						c-0.03,0.261-0.188,0.393-0.479,0.393h-2.221c-0.146,0-0.255-0.044-0.327-0.132c-0.072-0.086-0.095-0.201-0.064-0.348
						l6.576-29.614c0.058-0.261,0.218-0.391,0.479-0.391h2.613c0.29,0,0.45,0.13,0.479,0.391l6.619,29.614v0.087
						c0,0.261-0.13,0.393-0.391,0.393h-2.266c-0.261,0-0.421-0.132-0.479-0.393L317.579,16.738z"/>
				</g>
				<g>
					<path d="M227.365,40.428c-1.38-1.393-2.068-3.237-2.068-5.531V18.959c0-2.293,0.688-4.138,2.068-5.531
						c1.379-1.395,3.186-2.09,5.422-2.09c2.264,0,4.093,0.696,5.487,2.09c1.394,1.393,2.091,3.237,2.091,5.531v15.938
						c0,2.266-0.697,4.102-2.091,5.51c-1.395,1.409-3.224,2.111-5.487,2.111C230.551,42.518,228.744,41.823,227.365,40.428z
						 M236.031,38.491c0.827-0.885,1.241-2.025,1.241-3.418V18.828c0-1.423-0.414-2.576-1.241-3.462
						c-0.828-0.886-1.909-1.329-3.244-1.329c-1.307,0-2.366,0.443-3.179,1.329c-0.813,0.886-1.221,2.039-1.221,3.462v16.245
						c0,1.393,0.407,2.533,1.221,3.418c0.813,0.886,1.872,1.329,3.179,1.329C234.122,39.819,235.203,39.376,236.031,38.491z"/>
				</g>
			</g>
		</g>
		<g>
			<g>
				<path fill="#EB5C0C" d="M143.871,61.885c-1.754,0-3.176,1.453-3.176,3.207c0,1.752,2.228,5.865,3.176,5.865
					s3.175-4.113,3.175-5.865C147.046,63.338,145.624,61.885,143.871,61.885z M143.871,66.422c-0.752,0-1.361-0.609-1.361-1.361
					s0.609-1.361,1.361-1.361c0.751,0,1.36,0.609,1.36,1.361S144.622,66.422,143.871,66.422z"/>
			</g>
			<g>
				<g>
					<path d="M158.844,63.081h-2.692c-0.03,0-0.046,0.016-0.046,0.045v2.879c0,0.029,0.016,0.045,0.046,0.045h1.694
						c0.077,0,0.116,0.039,0.116,0.117v0.498c0,0.078-0.039,0.117-0.116,0.117h-1.694c-0.03,0-0.046,0.014-0.046,0.045v2.891
						c0,0.031,0.016,0.045,0.046,0.045h2.692c0.077,0,0.115,0.039,0.115,0.117v0.486c0,0.078-0.038,0.117-0.115,0.117h-3.446
						c-0.077,0-0.115-0.039-0.115-0.117v-7.889c0-0.078,0.038-0.115,0.115-0.115h3.446c0.077,0,0.115,0.037,0.115,0.115v0.486
						C158.959,63.042,158.921,63.081,158.844,63.081z"/>
					<path d="M163.078,70.366v-7.889c0-0.078,0.039-0.115,0.116-0.115h0.592c0.077,0,0.116,0.037,0.116,0.115v7.889
						c0,0.078-0.039,0.117-0.116,0.117h-0.592C163.117,70.483,163.078,70.444,163.078,70.366z"/>
					<path d="M171.264,65.047c0.321,0.352,0.481,0.82,0.481,1.408v3.91c0,0.078-0.039,0.117-0.116,0.117h-0.592
						c-0.077,0-0.116-0.039-0.116-0.117V70.03c0-0.016-0.005-0.025-0.018-0.029c-0.011-0.004-0.024,0.002-0.04,0.018
						c-0.286,0.371-0.711,0.557-1.276,0.557c-0.425,0-0.794-0.121-1.107-0.365s-0.471-0.676-0.471-1.293
						c0-0.658,0.189-1.141,0.569-1.445c0.379-0.305,0.878-0.459,1.496-0.459h0.801c0.031,0,0.046-0.014,0.046-0.045v-0.453
						c0-0.387-0.087-0.695-0.261-0.928s-0.412-0.35-0.714-0.35c-0.231,0-0.433,0.078-0.603,0.232
						c-0.17,0.156-0.267,0.352-0.29,0.592c-0.008,0.078-0.051,0.117-0.128,0.117l-0.639-0.012c-0.038,0-0.066-0.012-0.086-0.035
						s-0.025-0.051-0.018-0.082c0.038-0.455,0.224-0.824,0.557-1.107c0.332-0.281,0.743-0.424,1.229-0.424
						C170.512,64.518,170.943,64.694,171.264,65.047z M170.579,69.547c0.228-0.205,0.342-0.488,0.342-0.852v-0.975
						c0-0.031-0.015-0.047-0.046-0.047h-0.813c-0.371,0-0.664,0.1-0.881,0.295c-0.217,0.199-0.325,0.49-0.325,0.877
						c0,0.34,0.083,0.594,0.249,0.76s0.385,0.25,0.655,0.25C170.078,69.856,170.352,69.752,170.579,69.547z"/>
					<path d="M176.299,70.127c-0.321-0.273-0.482-0.639-0.482-1.096V68.95c0-0.076,0.039-0.115,0.117-0.115h0.557
						c0.077,0,0.115,0.031,0.115,0.092v0.094c0,0.248,0.092,0.457,0.273,0.627s0.419,0.254,0.713,0.254
						c0.279,0,0.503-0.084,0.673-0.254c0.171-0.17,0.256-0.387,0.256-0.65c0-0.201-0.054-0.369-0.163-0.504
						c-0.107-0.135-0.233-0.242-0.377-0.32c-0.143-0.076-0.357-0.178-0.644-0.301c-0.302-0.123-0.551-0.246-0.749-0.365
						c-0.196-0.119-0.366-0.291-0.51-0.512c-0.144-0.219-0.215-0.5-0.215-0.84c0-0.496,0.152-0.885,0.459-1.172
						c0.305-0.287,0.717-0.43,1.235-0.43c0.526,0,0.943,0.146,1.253,0.441c0.31,0.293,0.464,0.684,0.464,1.172V66.2
						c0,0.078-0.039,0.117-0.116,0.117h-0.533c-0.078,0-0.116-0.031-0.116-0.094v-0.092c0-0.264-0.087-0.479-0.261-0.65
						c-0.174-0.17-0.4-0.254-0.68-0.254c-0.278,0-0.5,0.086-0.667,0.26c-0.166,0.176-0.249,0.389-0.249,0.645
						c0,0.186,0.05,0.342,0.151,0.471c0.101,0.127,0.224,0.23,0.371,0.313c0.146,0.08,0.352,0.18,0.614,0.295
						c0.317,0.141,0.578,0.271,0.783,0.395c0.205,0.125,0.385,0.299,0.539,0.523c0.155,0.225,0.232,0.502,0.232,0.834
						c0,0.48-0.158,0.863-0.475,1.148c-0.318,0.287-0.747,0.43-1.288,0.43C177.047,70.54,176.619,70.403,176.299,70.127z"/>
					<path d="M185.354,65.227h-0.881c-0.031,0-0.047,0.016-0.047,0.047v3.549c0,0.355,0.062,0.602,0.186,0.736
						s0.313,0.199,0.568,0.191h0.116c0.077,0,0.116,0.039,0.116,0.117v0.498c0,0.078-0.039,0.117-0.116,0.117h-0.29
						c-0.457,0-0.803-0.1-1.038-0.297c-0.236-0.197-0.354-0.57-0.354-1.119v-3.793c0-0.031-0.015-0.047-0.046-0.047h-0.453
						c-0.077,0-0.115-0.039-0.115-0.117v-0.383c0-0.076,0.038-0.115,0.115-0.115h0.453c0.031,0,0.046-0.016,0.046-0.047v-1.299
						c0-0.078,0.039-0.117,0.116-0.117h0.581c0.076,0,0.115,0.039,0.115,0.117v1.299c0,0.031,0.016,0.047,0.047,0.047h0.881
						c0.077,0,0.117,0.039,0.117,0.115v0.383C185.471,65.188,185.431,65.227,185.354,65.227z"/>
					<path d="M189.577,63.393c-0.107-0.115-0.162-0.264-0.162-0.441c0-0.17,0.055-0.311,0.162-0.424
						c0.108-0.111,0.248-0.166,0.418-0.166c0.163,0,0.296,0.055,0.4,0.166c0.104,0.113,0.157,0.254,0.157,0.424
						c0,0.178-0.053,0.326-0.157,0.441s-0.237,0.174-0.4,0.174C189.825,63.567,189.686,63.508,189.577,63.393z M189.577,70.366
						v-5.639c0-0.076,0.039-0.115,0.116-0.115h0.592c0.077,0,0.116,0.039,0.116,0.115v5.639c0,0.078-0.039,0.117-0.116,0.117h-0.592
						C189.616,70.483,189.577,70.444,189.577,70.366z"/>
					<path d="M195.245,70.086c-0.329-0.324-0.493-0.754-0.493-1.287v-2.506c0-0.525,0.166-0.953,0.498-1.281
						c0.333-0.33,0.771-0.494,1.312-0.494c0.364,0,0.685,0.074,0.963,0.221s0.493,0.342,0.644,0.586
						c0.151,0.244,0.227,0.514,0.227,0.807v0.115c0,0.078-0.038,0.117-0.115,0.117l-0.592,0.023c-0.031,0-0.059-0.01-0.081-0.029
						c-0.023-0.02-0.035-0.045-0.035-0.076V66.19c0-0.256-0.095-0.479-0.284-0.668s-0.432-0.285-0.726-0.285
						s-0.531,0.104-0.714,0.309c-0.182,0.205-0.271,0.475-0.271,0.807v2.389c0,0.334,0.09,0.602,0.271,0.807
						c0.183,0.205,0.42,0.309,0.714,0.309s0.536-0.096,0.726-0.285s0.284-0.412,0.284-0.666v-0.082c0-0.076,0.039-0.115,0.116-0.115
						l0.592,0.012c0.077,0,0.115,0.037,0.115,0.115v0.127c0,0.465-0.168,0.85-0.505,1.154c-0.336,0.307-0.778,0.459-1.328,0.459
						C196.013,70.575,195.573,70.413,195.245,70.086z"/>
					<path d="M208.013,70.366v-7.889c0-0.078,0.039-0.115,0.116-0.115h0.604c0.062,0,0.104,0.029,0.127,0.092l1.3,3.145
						c0.008,0.016,0.02,0.023,0.035,0.023c0.015,0,0.027-0.008,0.034-0.023l1.312-3.145c0.023-0.063,0.065-0.092,0.128-0.092h0.603
						c0.078,0,0.116,0.037,0.116,0.115v7.889c0,0.078-0.038,0.117-0.116,0.117h-0.592c-0.077,0-0.115-0.039-0.115-0.117v-5.939
						c0-0.023-0.008-0.035-0.023-0.035s-0.027,0.008-0.034,0.023l-1.184,2.691c-0.023,0.063-0.059,0.092-0.104,0.092
						c-0.055,0-0.093-0.029-0.116-0.092l-1.207-2.703c-0.008-0.016-0.019-0.023-0.035-0.023c-0.015,0-0.022,0.012-0.022,0.035v5.951
						c0,0.078-0.039,0.117-0.116,0.117h-0.592C208.052,70.483,208.013,70.444,208.013,70.366z"/>
					<path d="M219.934,65.047c0.321,0.352,0.481,0.82,0.481,1.408v3.91c0,0.078-0.039,0.117-0.116,0.117h-0.592
						c-0.077,0-0.116-0.039-0.116-0.117V70.03c0-0.016-0.005-0.025-0.017-0.029s-0.025,0.002-0.041,0.018
						c-0.286,0.371-0.711,0.557-1.275,0.557c-0.426,0-0.795-0.121-1.108-0.365s-0.471-0.676-0.471-1.293
						c0-0.658,0.189-1.141,0.569-1.445c0.379-0.305,0.878-0.459,1.496-0.459h0.801c0.031,0,0.046-0.014,0.046-0.045v-0.453
						c0-0.387-0.087-0.695-0.26-0.928c-0.175-0.232-0.413-0.35-0.715-0.35c-0.231,0-0.433,0.078-0.603,0.232
						c-0.17,0.156-0.267,0.352-0.29,0.592c-0.009,0.078-0.051,0.117-0.128,0.117l-0.639-0.012c-0.038,0-0.066-0.012-0.086-0.035
						s-0.025-0.051-0.018-0.082c0.038-0.455,0.224-0.824,0.557-1.107c0.332-0.281,0.743-0.424,1.229-0.424
						C219.182,64.518,219.613,64.694,219.934,65.047z M219.249,69.547c0.228-0.205,0.342-0.488,0.342-0.852v-0.975
						c0-0.031-0.015-0.047-0.046-0.047h-0.813c-0.371,0-0.665,0.1-0.881,0.295c-0.217,0.199-0.325,0.49-0.325,0.877
						c0,0.34,0.083,0.594,0.249,0.76s0.385,0.25,0.655,0.25C218.748,69.856,219.021,69.752,219.249,69.547z"/>
					<path d="M228.397,67.581c0,0.551-0.004,0.967-0.011,1.254c-0.017,0.518-0.165,0.938-0.447,1.258
						c-0.282,0.322-0.655,0.482-1.119,0.482c-0.495,0-0.878-0.186-1.149-0.557c-0.016-0.016-0.028-0.02-0.04-0.012
						s-0.018,0.02-0.018,0.035v2.574c0,0.078-0.039,0.117-0.116,0.117h-0.591c-0.078,0-0.117-0.039-0.117-0.117v-7.889
						c0-0.076,0.039-0.115,0.117-0.115h0.591c0.077,0,0.116,0.039,0.116,0.115v0.336c0,0.018,0.006,0.027,0.018,0.035
						s0.024,0.004,0.04-0.012c0.132-0.186,0.296-0.326,0.493-0.422c0.197-0.098,0.416-0.146,0.656-0.146
						c0.455,0,0.824,0.164,1.107,0.494c0.283,0.328,0.436,0.756,0.459,1.281C228.394,66.579,228.397,67.008,228.397,67.581z
						 M227.307,69.536c0.186-0.211,0.275-0.492,0.268-0.84V68.29v-0.742v-1.148c0.008-0.342-0.082-0.619-0.268-0.836
						s-0.429-0.326-0.73-0.326c-0.278,0-0.509,0.107-0.69,0.32c-0.183,0.213-0.272,0.492-0.272,0.842v2.297
						c0,0.348,0.09,0.629,0.272,0.84c0.182,0.213,0.412,0.32,0.69,0.32C226.878,69.856,227.121,69.749,227.307,69.536z"/>
					<path d="M241.264,62.362h0.592c0.077,0,0.116,0.037,0.116,0.115v7.889c0,0.078-0.039,0.117-0.116,0.117h-0.592
						c-0.077,0-0.115-0.039-0.115-0.117v-3.539c0-0.031-0.017-0.045-0.047-0.045h-2.065c-0.031,0-0.046,0.014-0.046,0.045v3.539
						c0,0.078-0.039,0.117-0.116,0.117h-0.592c-0.077,0-0.116-0.039-0.116-0.117v-7.889c0-0.078,0.039-0.115,0.116-0.115h0.592
						c0.077,0,0.116,0.037,0.116,0.115v3.527c0,0.029,0.015,0.045,0.046,0.045h2.065c0.03,0,0.047-0.016,0.047-0.045v-3.527
						C241.148,62.399,241.187,62.362,241.264,62.362z"/>
					<path d="M246.897,70.086c-0.329-0.324-0.493-0.754-0.493-1.287v-2.506c0-0.525,0.166-0.953,0.498-1.281
						c0.333-0.33,0.774-0.494,1.323-0.494s0.992,0.164,1.329,0.494c0.336,0.328,0.504,0.756,0.504,1.281v2.506
						c0,0.533-0.166,0.963-0.499,1.287c-0.332,0.326-0.776,0.488-1.334,0.488C247.669,70.575,247.226,70.413,246.897,70.086z
						 M248.95,69.547c0.189-0.205,0.285-0.469,0.285-0.793v-2.402c0-0.332-0.096-0.602-0.285-0.807s-0.431-0.309-0.725-0.309
						s-0.533,0.104-0.719,0.309s-0.278,0.475-0.278,0.807v2.402c0,0.324,0.093,0.588,0.278,0.793s0.425,0.309,0.719,0.309
						S248.761,69.752,248.95,69.547z"/>
					<path d="M254.601,70.127c-0.321-0.273-0.481-0.639-0.481-1.096V68.95c0-0.076,0.039-0.115,0.116-0.115h0.557
						c0.077,0,0.116,0.031,0.116,0.092v0.094c0,0.248,0.091,0.457,0.271,0.627c0.183,0.17,0.42,0.254,0.715,0.254
						c0.277,0,0.502-0.084,0.673-0.254c0.169-0.17,0.255-0.387,0.255-0.65c0-0.201-0.054-0.369-0.163-0.504
						c-0.108-0.135-0.233-0.242-0.377-0.32c-0.142-0.076-0.358-0.178-0.644-0.301c-0.302-0.123-0.551-0.246-0.748-0.365
						s-0.367-0.291-0.511-0.512c-0.144-0.219-0.214-0.5-0.214-0.84c0-0.496,0.152-0.885,0.457-1.172
						c0.307-0.287,0.719-0.43,1.236-0.43c0.525,0,0.943,0.146,1.253,0.441c0.31,0.293,0.464,0.684,0.464,1.172V66.2
						c0,0.078-0.038,0.117-0.116,0.117h-0.533c-0.077,0-0.116-0.031-0.116-0.094v-0.092c0-0.264-0.088-0.479-0.262-0.65
						c-0.173-0.17-0.399-0.254-0.678-0.254c-0.279,0-0.501,0.086-0.667,0.26c-0.167,0.176-0.251,0.389-0.251,0.645
						c0,0.186,0.052,0.342,0.151,0.471c0.102,0.127,0.225,0.23,0.371,0.313c0.148,0.08,0.353,0.18,0.616,0.295
						c0.317,0.141,0.578,0.271,0.782,0.395c0.205,0.125,0.385,0.299,0.54,0.523c0.154,0.225,0.231,0.502,0.231,0.834
						c0,0.48-0.159,0.863-0.476,1.148c-0.317,0.287-0.746,0.43-1.288,0.43C255.35,70.54,254.922,70.403,254.601,70.127z"/>
					<path d="M263.656,65.227h-0.881c-0.032,0-0.047,0.016-0.047,0.047v3.549c0,0.355,0.062,0.602,0.186,0.736
						s0.313,0.199,0.569,0.191h0.116c0.076,0,0.114,0.039,0.114,0.117v0.498c0,0.078-0.038,0.117-0.114,0.117h-0.292
						c-0.456,0-0.802-0.1-1.037-0.297c-0.236-0.197-0.354-0.57-0.354-1.119v-3.793c0-0.031-0.015-0.047-0.047-0.047h-0.451
						c-0.078,0-0.116-0.039-0.116-0.117v-0.383c0-0.076,0.038-0.115,0.116-0.115h0.451c0.032,0,0.047-0.016,0.047-0.047v-1.299
						c0-0.078,0.039-0.117,0.116-0.117h0.58c0.077,0,0.116,0.039,0.116,0.117v1.299c0,0.031,0.015,0.047,0.047,0.047h0.881
						c0.077,0,0.117,0.039,0.117,0.115v0.383C263.773,65.188,263.733,65.227,263.656,65.227z"/>
					<path d="M267.879,63.393c-0.108-0.115-0.161-0.264-0.161-0.441c0-0.17,0.053-0.311,0.161-0.424
						c0.109-0.111,0.248-0.166,0.418-0.166c0.162,0,0.296,0.055,0.4,0.166c0.104,0.113,0.157,0.254,0.157,0.424
						c0,0.178-0.053,0.326-0.157,0.441s-0.238,0.174-0.4,0.174C268.127,63.567,267.988,63.508,267.879,63.393z M267.879,70.366
						v-5.639c0-0.076,0.039-0.115,0.116-0.115h0.592c0.077,0,0.116,0.039,0.116,0.115v5.639c0,0.078-0.039,0.117-0.116,0.117h-0.592
						C267.918,70.483,267.879,70.444,267.879,70.366z"/>
					<path d="M276.366,65.016c0.26,0.326,0.39,0.779,0.39,1.359v3.99c0,0.078-0.039,0.117-0.116,0.117h-0.592
						c-0.077,0-0.116-0.039-0.116-0.117v-3.922c0-0.379-0.082-0.672-0.243-0.881c-0.163-0.209-0.391-0.313-0.686-0.313
						c-0.31,0-0.553,0.111-0.73,0.336c-0.179,0.225-0.268,0.529-0.268,0.916v3.863c0,0.078-0.037,0.117-0.114,0.117h-0.592
						c-0.078,0-0.116-0.039-0.116-0.117v-5.639c0-0.076,0.038-0.115,0.116-0.115h0.592c0.077,0,0.114,0.039,0.114,0.115v0.383
						c0,0.016,0.01,0.025,0.024,0.029c0.016,0.004,0.027-0.002,0.035-0.018c0.285-0.395,0.688-0.592,1.206-0.592
						C275.743,64.53,276.108,64.692,276.366,65.016z"/>
					<path d="M283.9,64.612h0.592c0.077,0,0.117,0.039,0.117,0.115v5.639c0,0.828-0.192,1.455-0.574,1.885
						c-0.383,0.43-1.023,0.625-1.92,0.586c-0.079-0.008-0.116-0.051-0.116-0.127v-0.498c0-0.078,0.037-0.117,0.116-0.117
						c0.619,0.016,1.051-0.125,1.298-0.424c0.248-0.297,0.372-0.756,0.372-1.375v-0.348c0-0.014-0.005-0.027-0.018-0.035
						c-0.012-0.006-0.025-0.002-0.04,0.012c-0.132,0.193-0.301,0.342-0.505,0.441c-0.205,0.102-0.424,0.15-0.656,0.15
						c-0.486,0-0.871-0.162-1.153-0.486c-0.282-0.326-0.425-0.754-0.425-1.289v-2.447c0-0.541,0.143-0.973,0.425-1.293
						c0.282-0.322,0.667-0.482,1.153-0.482c0.232,0,0.451,0.049,0.656,0.146c0.204,0.096,0.373,0.24,0.505,0.434
						c0.015,0.023,0.028,0.033,0.04,0.029c0.013-0.004,0.018-0.018,0.018-0.041v-0.359C283.785,64.651,283.824,64.612,283.9,64.612z
						 M283.513,69.491c0.182-0.205,0.272-0.471,0.272-0.795v-2.344c0-0.332-0.091-0.602-0.272-0.807
						c-0.183-0.205-0.416-0.309-0.702-0.309c-0.294,0-0.534,0.104-0.72,0.309s-0.277,0.475-0.277,0.807v2.344
						c0,0.324,0.092,0.59,0.277,0.795c0.186,0.203,0.426,0.307,0.72,0.307C283.097,69.797,283.33,69.694,283.513,69.491z"/>
					<path d="M288.954,70.25c-0.12-0.133-0.18-0.295-0.18-0.488c0-0.186,0.063-0.346,0.191-0.48
						c0.127-0.137,0.271-0.203,0.435-0.203c0.171,0,0.318,0.066,0.447,0.203c0.127,0.135,0.191,0.295,0.191,0.48
						c0,0.193-0.062,0.355-0.186,0.488c-0.124,0.131-0.274,0.197-0.453,0.197C289.223,70.448,289.073,70.381,288.954,70.25z"/>
				</g>
			</g>
		</g>
	</g>
</g>
<g>
	<g>
		<path fill="#EE730D" d="M500.182,54.479c0,1.623,0,2.998,0,3.986c0,14.676,11.898,26.574,26.575,26.574c0.874,0,2.053,0,3.437,0
			l30.561-30.561H500.182z"/>
		<path fill="#EB5C0C" d="M533.95,85.04c8.389,0,20.302,0,24.696,0c14.677,0,26.575-11.898,26.575-26.574c0-0.988,0-2.363,0-3.986
			h-20.71L533.95,85.04z"/>
		<path fill="#E84130" d="M530.743,0c-1.624,0-2.998,0-3.986,0c-14.677,0-26.575,11.897-26.575,26.574c0,4.491,0,16.838,0,25.246
			h30.562V0z"/>
		<path fill="#FAC03D" d="M564.512,51.821h20.71c0-8.408,0-20.755,0-25.246C585.222,11.898,573.323,0,558.646,0
			c-4.491,0-16.837,0-25.246,0v20.709L564.512,51.821z"/>
		<polygon fill="#F39813" points="533.4,51.821 560.754,51.821 533.4,24.467 		"/>
	</g>
	<g>
		<g>
			<g>
				<g>
					<path fill="#E4DBDA" d="M607.067,40.541c-1.336-1.321-2.004-3.085-2.004-5.292V18.612c0-2.205,0.668-3.969,2.004-5.291
						c1.335-1.32,3.121-1.98,5.356-1.98s4.029,0.668,5.378,2.004c1.351,1.336,2.026,3.105,2.026,5.312v1.872
						c0,0.292-0.146,0.437-0.436,0.437h-2.222c-0.29,0-0.436-0.145-0.436-0.437v-1.959c0-1.364-0.392-2.461-1.176-3.287
						c-0.783-0.828-1.829-1.241-3.136-1.241c-1.277,0-2.315,0.421-3.113,1.263c-0.799,0.842-1.198,1.932-1.198,3.266v16.725
						c0,1.335,0.399,2.423,1.198,3.266c0.798,0.842,1.836,1.262,3.113,1.262c1.307,0,2.353-0.412,3.136-1.24
						c0.784-0.827,1.176-1.924,1.176-3.287v-5.575c0-0.116-0.058-0.175-0.174-0.175h-3.745c-0.291,0-0.436-0.145-0.436-0.436v-1.829
						c0-0.289,0.145-0.436,0.436-0.436h6.576c0.289,0,0.436,0.146,0.436,0.436v7.97c0,2.207-0.676,3.971-2.026,5.292
						c-1.349,1.321-3.143,1.98-5.378,1.98S608.402,41.862,607.067,40.541z"/>
					<path fill="#E4DBDA" d="M649.833,14.388h-10.104c-0.116,0-0.174,0.06-0.174,0.175v10.8c0,0.116,0.058,0.175,0.174,0.175h6.358
						c0.289,0,0.435,0.146,0.435,0.436v1.873c0,0.289-0.146,0.436-0.435,0.436h-6.358c-0.116,0-0.174,0.057-0.174,0.173v10.845
						c0,0.115,0.058,0.174,0.174,0.174h10.104c0.289,0,0.435,0.145,0.435,0.436v1.828c0,0.292-0.146,0.437-0.435,0.437h-12.935
						c-0.29,0-0.436-0.145-0.436-0.437V12.125c0-0.29,0.146-0.436,0.436-0.436h12.935c0.289,0,0.435,0.146,0.435,0.436v1.828
						C650.268,14.244,650.122,14.388,649.833,14.388z"/>
					<path fill="#E4DBDA" d="M667.797,40.432c-1.38-1.395-2.069-3.238-2.069-5.531V18.961c0-2.294,0.689-4.138,2.069-5.531
						c1.379-1.394,3.186-2.09,5.422-2.09c2.265,0,4.094,0.696,5.487,2.09s2.091,3.237,2.091,5.531v15.939
						c0,2.265-0.697,4.101-2.091,5.508c-1.394,1.408-3.223,2.112-5.487,2.112C670.982,42.521,669.176,41.825,667.797,40.432z
						 M676.464,38.494c0.826-0.886,1.24-2.024,1.24-3.419V18.831c0-1.422-0.414-2.576-1.24-3.462
						c-0.828-0.886-1.909-1.328-3.245-1.328c-1.307,0-2.366,0.442-3.179,1.328c-0.813,0.886-1.221,2.04-1.221,3.462v16.244
						c0,1.395,0.407,2.533,1.221,3.419c0.813,0.886,1.872,1.327,3.179,1.327C674.555,39.821,675.636,39.379,676.464,38.494z"/>
					<path fill="#E4DBDA" d="M697.649,41.737V12.125c0-0.29,0.146-0.436,0.436-0.436h2.222c0.29,0,0.436,0.146,0.436,0.436v27.175
						c0,0.115,0.058,0.174,0.173,0.174h9.974c0.29,0,0.436,0.145,0.436,0.436v1.828c0,0.292-0.146,0.437-0.436,0.437h-12.804
						C697.795,42.173,697.649,42.029,697.649,41.737z"/>
					<path fill="#E4DBDA" d="M757.399,41.737V12.125c0-0.29,0.146-0.436,0.436-0.436h2.309c0.232,0,0.393,0.115,0.479,0.348
						l8.754,21.949c0.027,0.087,0.071,0.132,0.13,0.132c0.058,0,0.088-0.045,0.088-0.132V12.125c0-0.29,0.145-0.436,0.435-0.436
						h2.178c0.29,0,0.436,0.146,0.436,0.436v29.612c0,0.292-0.146,0.437-0.436,0.437h-2.308c-0.233,0-0.393-0.116-0.479-0.349
						l-8.754-21.949c-0.029-0.088-0.072-0.123-0.13-0.108c-0.059,0.015-0.088,0.065-0.088,0.152l0.044,21.817
						c0,0.292-0.146,0.437-0.436,0.437h-2.222C757.545,42.173,757.399,42.029,757.399,41.737z"/>
					<path fill="#E4DBDA" d="M790.192,41.737V12.125c0-0.29,0.146-0.436,0.436-0.436h2.222c0.29,0,0.436,0.146,0.436,0.436v29.612
						c0,0.292-0.146,0.437-0.436,0.437h-2.222C790.338,42.173,790.192,42.029,790.192,41.737z"/>
					<path fill="#E4DBDA" d="M817.761,16.74c-0.03-0.087-0.06-0.13-0.088-0.13c-0.029,0-0.058,0.043-0.087,0.13l-5.226,25.041
						c-0.03,0.261-0.188,0.393-0.479,0.393h-2.221c-0.146,0-0.255-0.044-0.327-0.132c-0.072-0.086-0.095-0.201-0.064-0.348
						l6.576-29.613c0.058-0.262,0.218-0.392,0.479-0.392h2.613c0.29,0,0.45,0.13,0.479,0.392l6.619,29.613v0.087
						c0,0.261-0.13,0.393-0.391,0.393h-2.266c-0.261,0-0.421-0.132-0.479-0.393L817.761,16.74z"/>
				</g>
				<g>
					<path fill="#E4DBDA" d="M727.547,40.43c-1.38-1.393-2.068-3.236-2.068-5.531V18.961c0-2.294,0.688-4.139,2.068-5.531
						c1.379-1.395,3.186-2.09,5.422-2.09c2.264,0,4.093,0.695,5.487,2.09c1.394,1.393,2.091,3.237,2.091,5.531v15.938
						c0,2.266-0.697,4.102-2.091,5.51c-1.395,1.409-3.224,2.111-5.487,2.111C730.732,42.52,728.926,41.825,727.547,40.43z
						 M736.213,38.493c0.827-0.885,1.241-2.025,1.241-3.418V18.831c0-1.424-0.414-2.576-1.241-3.463
						c-0.828-0.886-1.909-1.328-3.244-1.328c-1.307,0-2.366,0.442-3.179,1.328c-0.813,0.887-1.221,2.039-1.221,3.463v16.244
						c0,1.393,0.407,2.533,1.221,3.418c0.813,0.886,1.872,1.328,3.179,1.328C734.304,39.821,735.385,39.378,736.213,38.493z"/>
				</g>
			</g>
		</g>
		<g>
			<g>
				<path fill="#E8931D" d="M644.053,61.887c-1.754,0-3.176,1.453-3.176,3.207c0,1.752,2.228,5.865,3.176,5.865
					s3.175-4.113,3.175-5.865C647.228,63.34,645.806,61.887,644.053,61.887z M644.053,66.424c-0.752,0-1.361-0.609-1.361-1.361
					s0.609-1.361,1.361-1.361c0.751,0,1.36,0.609,1.36,1.361S644.804,66.424,644.053,66.424z"/>
			</g>
			<g>
				<g>
					<path fill="#E4DBDA" d="M659.025,63.083h-2.692c-0.03,0-0.046,0.016-0.046,0.045v2.879c0,0.029,0.016,0.045,0.046,0.045h1.694
						c0.077,0,0.116,0.039,0.116,0.117v0.498c0,0.078-0.039,0.117-0.116,0.117h-1.694c-0.03,0-0.046,0.014-0.046,0.045v2.891
						c0,0.031,0.016,0.045,0.046,0.045h2.692c0.077,0,0.115,0.039,0.115,0.117v0.486c0,0.078-0.038,0.117-0.115,0.117h-3.446
						c-0.077,0-0.115-0.039-0.115-0.117v-7.889c0-0.078,0.038-0.115,0.115-0.115h3.446c0.077,0,0.115,0.037,0.115,0.115v0.486
						C659.141,63.043,659.103,63.083,659.025,63.083z"/>
					<path fill="#E4DBDA" d="M663.26,70.368v-7.889c0-0.078,0.039-0.115,0.116-0.115h0.592c0.077,0,0.116,0.037,0.116,0.115v7.889
						c0,0.078-0.039,0.117-0.116,0.117h-0.592C663.299,70.485,663.26,70.446,663.26,70.368z"/>
					<path fill="#E4DBDA" d="M671.445,65.049c0.321,0.352,0.481,0.82,0.481,1.408v3.91c0,0.078-0.039,0.117-0.116,0.117h-0.592
						c-0.077,0-0.116-0.039-0.116-0.117v-0.336c0-0.016-0.005-0.025-0.018-0.029c-0.011-0.004-0.024,0.002-0.04,0.018
						c-0.286,0.371-0.711,0.557-1.276,0.557c-0.425,0-0.794-0.121-1.107-0.365s-0.471-0.676-0.471-1.293
						c0-0.658,0.189-1.141,0.569-1.445c0.379-0.305,0.878-0.459,1.496-0.459h0.801c0.031,0,0.046-0.014,0.046-0.045v-0.453
						c0-0.387-0.087-0.695-0.261-0.928s-0.412-0.35-0.714-0.35c-0.231,0-0.433,0.078-0.603,0.232
						c-0.17,0.156-0.267,0.352-0.29,0.592c-0.008,0.078-0.051,0.117-0.128,0.117l-0.639-0.012c-0.038,0-0.066-0.012-0.086-0.035
						s-0.025-0.051-0.018-0.082c0.038-0.455,0.224-0.824,0.557-1.107c0.332-0.281,0.743-0.424,1.229-0.424
						C670.693,64.52,671.125,64.696,671.445,65.049z M670.761,69.549c0.228-0.205,0.342-0.488,0.342-0.852v-0.975
						c0-0.031-0.015-0.047-0.046-0.047h-0.813c-0.371,0-0.664,0.1-0.881,0.295c-0.217,0.199-0.325,0.49-0.325,0.877
						c0,0.34,0.083,0.594,0.249,0.76s0.385,0.25,0.655,0.25C670.26,69.858,670.533,69.754,670.761,69.549z"/>
					<path fill="#E4DBDA" d="M676.48,70.129c-0.321-0.273-0.482-0.639-0.482-1.096v-0.082c0-0.076,0.039-0.115,0.117-0.115h0.557
						c0.077,0,0.115,0.031,0.115,0.092v0.094c0,0.248,0.092,0.457,0.273,0.627s0.419,0.254,0.713,0.254
						c0.279,0,0.503-0.084,0.673-0.254c0.171-0.17,0.256-0.387,0.256-0.65c0-0.201-0.054-0.369-0.163-0.504
						c-0.107-0.135-0.233-0.242-0.377-0.32c-0.143-0.076-0.357-0.178-0.644-0.301c-0.302-0.123-0.551-0.246-0.749-0.365
						c-0.196-0.119-0.366-0.291-0.51-0.512c-0.144-0.219-0.215-0.5-0.215-0.84c0-0.496,0.152-0.885,0.459-1.172
						c0.305-0.287,0.717-0.43,1.235-0.43c0.526,0,0.943,0.146,1.253,0.441c0.31,0.293,0.464,0.684,0.464,1.172v0.033
						c0,0.078-0.039,0.117-0.116,0.117h-0.533c-0.078,0-0.116-0.031-0.116-0.094v-0.092c0-0.264-0.087-0.479-0.261-0.65
						c-0.174-0.17-0.4-0.254-0.68-0.254c-0.278,0-0.5,0.086-0.667,0.26c-0.166,0.176-0.249,0.389-0.249,0.645
						c0,0.186,0.05,0.342,0.151,0.471c0.101,0.127,0.224,0.23,0.371,0.313c0.146,0.08,0.352,0.18,0.614,0.295
						c0.317,0.141,0.578,0.271,0.783,0.395c0.205,0.125,0.385,0.299,0.539,0.523c0.155,0.225,0.232,0.502,0.232,0.834
						c0,0.48-0.158,0.863-0.475,1.148c-0.318,0.287-0.747,0.43-1.288,0.43C677.229,70.542,676.801,70.405,676.48,70.129z"/>
					<path fill="#E4DBDA" d="M685.535,65.229h-0.881c-0.031,0-0.047,0.016-0.047,0.047v3.549c0,0.355,0.062,0.602,0.186,0.736
						s0.313,0.199,0.568,0.191h0.116c0.077,0,0.116,0.039,0.116,0.117v0.498c0,0.078-0.039,0.117-0.116,0.117h-0.29
						c-0.457,0-0.803-0.1-1.038-0.297c-0.236-0.197-0.354-0.57-0.354-1.119v-3.793c0-0.031-0.015-0.047-0.046-0.047h-0.453
						c-0.077,0-0.115-0.039-0.115-0.117v-0.383c0-0.076,0.038-0.115,0.115-0.115h0.453c0.031,0,0.046-0.016,0.046-0.047v-1.299
						c0-0.078,0.039-0.117,0.116-0.117h0.581c0.076,0,0.115,0.039,0.115,0.117v1.299c0,0.031,0.016,0.047,0.047,0.047h0.881
						c0.077,0,0.117,0.039,0.117,0.115v0.383C685.652,65.19,685.612,65.229,685.535,65.229z"/>
					<path fill="#E4DBDA" d="M689.759,63.395c-0.107-0.115-0.162-0.264-0.162-0.441c0-0.17,0.055-0.311,0.162-0.424
						c0.108-0.111,0.248-0.166,0.418-0.166c0.163,0,0.296,0.055,0.4,0.166c0.104,0.113,0.157,0.254,0.157,0.424
						c0,0.178-0.053,0.326-0.157,0.441s-0.237,0.174-0.4,0.174C690.007,63.569,689.867,63.51,689.759,63.395z M689.759,70.368
						v-5.639c0-0.076,0.039-0.115,0.116-0.115h0.592c0.077,0,0.116,0.039,0.116,0.115v5.639c0,0.078-0.039,0.117-0.116,0.117h-0.592
						C689.798,70.485,689.759,70.446,689.759,70.368z"/>
					<path fill="#E4DBDA" d="M695.427,70.088c-0.329-0.324-0.493-0.754-0.493-1.287v-2.506c0-0.525,0.166-0.953,0.498-1.281
						c0.333-0.33,0.771-0.494,1.312-0.494c0.364,0,0.685,0.074,0.963,0.221s0.493,0.342,0.644,0.586
						c0.151,0.244,0.227,0.514,0.227,0.807v0.115c0,0.078-0.038,0.117-0.115,0.117l-0.592,0.023c-0.031,0-0.059-0.01-0.081-0.029
						c-0.023-0.02-0.035-0.045-0.035-0.076v-0.092c0-0.256-0.095-0.479-0.284-0.668s-0.432-0.285-0.726-0.285
						s-0.531,0.104-0.714,0.309c-0.182,0.205-0.271,0.475-0.271,0.807v2.389c0,0.334,0.09,0.602,0.271,0.807
						c0.183,0.205,0.42,0.309,0.714,0.309s0.536-0.096,0.726-0.285s0.284-0.412,0.284-0.666v-0.082c0-0.076,0.039-0.115,0.116-0.115
						l0.592,0.012c0.077,0,0.115,0.037,0.115,0.115v0.127c0,0.465-0.168,0.85-0.505,1.154c-0.336,0.307-0.778,0.459-1.328,0.459
						C696.194,70.577,695.755,70.415,695.427,70.088z"/>
					<path fill="#E4DBDA" d="M708.194,70.368v-7.889c0-0.078,0.039-0.115,0.116-0.115h0.604c0.062,0,0.104,0.029,0.127,0.092
						l1.3,3.145c0.008,0.016,0.02,0.023,0.035,0.023c0.015,0,0.027-0.008,0.034-0.023l1.312-3.145
						c0.023-0.063,0.065-0.092,0.128-0.092h0.603c0.078,0,0.116,0.037,0.116,0.115v7.889c0,0.078-0.038,0.117-0.116,0.117h-0.592
						c-0.077,0-0.115-0.039-0.115-0.117v-5.939c0-0.023-0.008-0.035-0.023-0.035s-0.027,0.008-0.034,0.023l-1.184,2.691
						c-0.023,0.063-0.059,0.092-0.104,0.092c-0.055,0-0.093-0.029-0.116-0.092l-1.207-2.703c-0.008-0.016-0.019-0.023-0.035-0.023
						c-0.015,0-0.022,0.012-0.022,0.035v5.951c0,0.078-0.039,0.117-0.116,0.117h-0.592
						C708.233,70.485,708.194,70.446,708.194,70.368z"/>
					<path fill="#E4DBDA" d="M720.115,65.049c0.321,0.352,0.481,0.82,0.481,1.408v3.91c0,0.078-0.039,0.117-0.116,0.117h-0.592
						c-0.077,0-0.116-0.039-0.116-0.117v-0.336c0-0.016-0.005-0.025-0.017-0.029s-0.025,0.002-0.041,0.018
						c-0.286,0.371-0.711,0.557-1.275,0.557c-0.426,0-0.795-0.121-1.108-0.365s-0.471-0.676-0.471-1.293
						c0-0.658,0.189-1.141,0.569-1.445c0.379-0.305,0.878-0.459,1.496-0.459h0.801c0.031,0,0.046-0.014,0.046-0.045v-0.453
						c0-0.387-0.087-0.695-0.26-0.928c-0.175-0.232-0.413-0.35-0.715-0.35c-0.231,0-0.433,0.078-0.603,0.232
						c-0.17,0.156-0.267,0.352-0.29,0.592c-0.009,0.078-0.051,0.117-0.128,0.117l-0.639-0.012c-0.038,0-0.066-0.012-0.086-0.035
						s-0.025-0.051-0.018-0.082c0.038-0.455,0.224-0.824,0.557-1.107c0.332-0.281,0.743-0.424,1.229-0.424
						C719.363,64.52,719.795,64.696,720.115,65.049z M719.431,69.549c0.228-0.205,0.342-0.488,0.342-0.852v-0.975
						c0-0.031-0.015-0.047-0.046-0.047h-0.813c-0.371,0-0.665,0.1-0.881,0.295c-0.217,0.199-0.325,0.49-0.325,0.877
						c0,0.34,0.083,0.594,0.249,0.76s0.385,0.25,0.655,0.25C718.93,69.858,719.203,69.754,719.431,69.549z"/>
					<path fill="#E4DBDA" d="M728.579,67.583c0,0.551-0.004,0.967-0.011,1.254c-0.017,0.518-0.165,0.938-0.447,1.258
						c-0.282,0.322-0.655,0.482-1.119,0.482c-0.495,0-0.878-0.186-1.149-0.557c-0.016-0.016-0.028-0.02-0.04-0.012
						s-0.018,0.02-0.018,0.035v2.574c0,0.078-0.039,0.117-0.116,0.117h-0.591c-0.078,0-0.117-0.039-0.117-0.117v-7.889
						c0-0.076,0.039-0.115,0.117-0.115h0.591c0.077,0,0.116,0.039,0.116,0.115v0.336c0,0.018,0.006,0.027,0.018,0.035
						s0.024,0.004,0.04-0.012c0.132-0.186,0.296-0.326,0.493-0.422c0.197-0.098,0.416-0.146,0.656-0.146
						c0.455,0,0.824,0.164,1.107,0.494c0.283,0.328,0.436,0.756,0.459,1.281C728.575,66.581,728.579,67.01,728.579,67.583z
						 M727.488,69.538c0.186-0.211,0.275-0.492,0.268-0.84v-0.406v-0.742v-1.148c0.008-0.342-0.082-0.619-0.268-0.836
						s-0.429-0.326-0.73-0.326c-0.278,0-0.509,0.107-0.69,0.32c-0.183,0.213-0.272,0.492-0.272,0.842v2.297
						c0,0.348,0.09,0.629,0.272,0.84c0.182,0.213,0.412,0.32,0.69,0.32C727.06,69.858,727.303,69.75,727.488,69.538z"/>
					<path fill="#E4DBDA" d="M741.445,62.364h0.592c0.077,0,0.116,0.037,0.116,0.115v7.889c0,0.078-0.039,0.117-0.116,0.117h-0.592
						c-0.077,0-0.115-0.039-0.115-0.117v-3.539c0-0.031-0.017-0.045-0.047-0.045h-2.065c-0.031,0-0.046,0.014-0.046,0.045v3.539
						c0,0.078-0.039,0.117-0.116,0.117h-0.592c-0.077,0-0.116-0.039-0.116-0.117v-7.889c0-0.078,0.039-0.115,0.116-0.115h0.592
						c0.077,0,0.116,0.037,0.116,0.115v3.527c0,0.029,0.015,0.045,0.046,0.045h2.065c0.03,0,0.047-0.016,0.047-0.045v-3.527
						C741.33,62.401,741.368,62.364,741.445,62.364z"/>
					<path fill="#E4DBDA" d="M747.079,70.088c-0.329-0.324-0.493-0.754-0.493-1.287v-2.506c0-0.525,0.166-0.953,0.498-1.281
						c0.333-0.33,0.774-0.494,1.323-0.494s0.992,0.164,1.329,0.494c0.336,0.328,0.504,0.756,0.504,1.281v2.506
						c0,0.533-0.166,0.963-0.499,1.287c-0.332,0.326-0.776,0.488-1.334,0.488C747.851,70.577,747.407,70.415,747.079,70.088z
						 M749.132,69.549c0.189-0.205,0.285-0.469,0.285-0.793v-2.402c0-0.332-0.096-0.602-0.285-0.807s-0.431-0.309-0.725-0.309
						s-0.533,0.104-0.719,0.309s-0.278,0.475-0.278,0.807v2.402c0,0.324,0.093,0.588,0.278,0.793s0.425,0.309,0.719,0.309
						S748.942,69.754,749.132,69.549z"/>
					<path fill="#E4DBDA" d="M754.782,70.129c-0.321-0.273-0.481-0.639-0.481-1.096v-0.082c0-0.076,0.039-0.115,0.116-0.115h0.557
						c0.077,0,0.116,0.031,0.116,0.092v0.094c0,0.248,0.091,0.457,0.271,0.627c0.183,0.17,0.42,0.254,0.715,0.254
						c0.277,0,0.502-0.084,0.673-0.254c0.169-0.17,0.255-0.387,0.255-0.65c0-0.201-0.054-0.369-0.163-0.504
						c-0.108-0.135-0.233-0.242-0.377-0.32c-0.142-0.076-0.358-0.178-0.644-0.301c-0.302-0.123-0.551-0.246-0.748-0.365
						s-0.367-0.291-0.511-0.512c-0.144-0.219-0.214-0.5-0.214-0.84c0-0.496,0.152-0.885,0.457-1.172
						c0.307-0.287,0.719-0.43,1.236-0.43c0.525,0,0.943,0.146,1.253,0.441c0.31,0.293,0.464,0.684,0.464,1.172v0.033
						c0,0.078-0.038,0.117-0.116,0.117h-0.533c-0.077,0-0.116-0.031-0.116-0.094v-0.092c0-0.264-0.088-0.479-0.262-0.65
						c-0.173-0.17-0.399-0.254-0.678-0.254c-0.279,0-0.501,0.086-0.667,0.26c-0.167,0.176-0.251,0.389-0.251,0.645
						c0,0.186,0.052,0.342,0.151,0.471c0.102,0.127,0.225,0.23,0.371,0.313c0.148,0.08,0.353,0.18,0.616,0.295
						c0.317,0.141,0.578,0.271,0.782,0.395c0.205,0.125,0.385,0.299,0.54,0.523c0.154,0.225,0.231,0.502,0.231,0.834
						c0,0.48-0.159,0.863-0.476,1.148c-0.317,0.287-0.746,0.43-1.288,0.43C755.531,70.542,755.104,70.405,754.782,70.129z"/>
					<path fill="#E4DBDA" d="M763.838,65.229h-0.881c-0.032,0-0.047,0.016-0.047,0.047v3.549c0,0.355,0.062,0.602,0.186,0.736
						s0.313,0.199,0.569,0.191h0.116c0.076,0,0.114,0.039,0.114,0.117v0.498c0,0.078-0.038,0.117-0.114,0.117h-0.292
						c-0.456,0-0.802-0.1-1.037-0.297c-0.236-0.197-0.354-0.57-0.354-1.119v-3.793c0-0.031-0.015-0.047-0.047-0.047H761.6
						c-0.078,0-0.116-0.039-0.116-0.117v-0.383c0-0.076,0.038-0.115,0.116-0.115h0.451c0.032,0,0.047-0.016,0.047-0.047v-1.299
						c0-0.078,0.039-0.117,0.116-0.117h0.58c0.077,0,0.116,0.039,0.116,0.117v1.299c0,0.031,0.015,0.047,0.047,0.047h0.881
						c0.077,0,0.117,0.039,0.117,0.115v0.383C763.955,65.19,763.915,65.229,763.838,65.229z"/>
					<path fill="#E4DBDA" d="M768.061,63.395c-0.108-0.115-0.161-0.264-0.161-0.441c0-0.17,0.053-0.311,0.161-0.424
						c0.109-0.111,0.248-0.166,0.418-0.166c0.162,0,0.296,0.055,0.4,0.166c0.104,0.113,0.157,0.254,0.157,0.424
						c0,0.178-0.053,0.326-0.157,0.441s-0.238,0.174-0.4,0.174C768.309,63.569,768.17,63.51,768.061,63.395z M768.061,70.368v-5.639
						c0-0.076,0.039-0.115,0.116-0.115h0.592c0.077,0,0.116,0.039,0.116,0.115v5.639c0,0.078-0.039,0.117-0.116,0.117h-0.592
						C768.1,70.485,768.061,70.446,768.061,70.368z"/>
					<path fill="#E4DBDA" d="M776.548,65.018c0.26,0.326,0.39,0.779,0.39,1.359v3.99c0,0.078-0.039,0.117-0.116,0.117h-0.592
						c-0.077,0-0.116-0.039-0.116-0.117v-3.922c0-0.379-0.082-0.672-0.243-0.881c-0.163-0.209-0.391-0.313-0.686-0.313
						c-0.31,0-0.553,0.111-0.73,0.336c-0.179,0.225-0.268,0.529-0.268,0.916v3.863c0,0.078-0.037,0.117-0.114,0.117h-0.592
						c-0.078,0-0.116-0.039-0.116-0.117v-5.639c0-0.076,0.038-0.115,0.116-0.115h0.592c0.077,0,0.114,0.039,0.114,0.115v0.383
						c0,0.016,0.01,0.025,0.024,0.029c0.016,0.004,0.027-0.002,0.035-0.018c0.285-0.395,0.688-0.592,1.206-0.592
						C775.925,64.532,776.29,64.694,776.548,65.018z"/>
					<path fill="#E4DBDA" d="M784.082,64.614h0.592c0.077,0,0.117,0.039,0.117,0.115v5.639c0,0.828-0.192,1.455-0.574,1.885
						c-0.383,0.43-1.023,0.625-1.92,0.586c-0.079-0.008-0.116-0.051-0.116-0.127v-0.498c0-0.078,0.037-0.117,0.116-0.117
						c0.619,0.016,1.051-0.125,1.298-0.424c0.248-0.297,0.372-0.756,0.372-1.375V69.95c0-0.014-0.005-0.027-0.018-0.035
						c-0.012-0.006-0.025-0.002-0.04,0.012c-0.132,0.193-0.301,0.342-0.505,0.441c-0.205,0.102-0.424,0.15-0.656,0.15
						c-0.486,0-0.871-0.162-1.153-0.486c-0.282-0.326-0.425-0.754-0.425-1.289v-2.447c0-0.541,0.143-0.973,0.425-1.293
						c0.282-0.322,0.667-0.482,1.153-0.482c0.232,0,0.451,0.049,0.656,0.146c0.204,0.096,0.373,0.24,0.505,0.434
						c0.015,0.023,0.028,0.033,0.04,0.029c0.013-0.004,0.018-0.018,0.018-0.041v-0.359
						C783.967,64.653,784.006,64.614,784.082,64.614z M783.694,69.493c0.182-0.205,0.272-0.471,0.272-0.795v-2.344
						c0-0.332-0.091-0.602-0.272-0.807c-0.183-0.205-0.416-0.309-0.702-0.309c-0.294,0-0.534,0.104-0.72,0.309
						s-0.277,0.475-0.277,0.807v2.344c0,0.324,0.092,0.59,0.277,0.795c0.186,0.203,0.426,0.307,0.72,0.307
						C783.278,69.799,783.512,69.696,783.694,69.493z"/>
					<path fill="#E4DBDA" d="M789.136,70.252c-0.12-0.133-0.18-0.295-0.18-0.488c0-0.186,0.063-0.346,0.191-0.48
						c0.127-0.137,0.271-0.203,0.435-0.203c0.171,0,0.318,0.066,0.447,0.203c0.127,0.135,0.191,0.295,0.191,0.48
						c0,0.193-0.062,0.355-0.186,0.488c-0.124,0.131-0.274,0.197-0.453,0.197C789.404,70.45,789.255,70.383,789.136,70.252z"/>
				</g>
			</g>
		</g>
	</g>
</g>
<g>
	<g>
		<g>
			<g>
				<path d="M72.071,548.734c-1.336-1.321-2.004-3.085-2.004-5.292v-16.636c0-2.206,0.668-3.97,2.004-5.291
					c1.335-1.32,3.121-1.981,5.356-1.981s4.029,0.668,5.378,2.004c1.351,1.336,2.026,3.106,2.026,5.312v1.873
					c0,0.292-0.146,0.436-0.436,0.436h-2.222c-0.29,0-0.436-0.145-0.436-0.436v-1.959c0-1.365-0.392-2.461-1.176-3.288
					c-0.783-0.828-1.829-1.241-3.136-1.241c-1.277,0-2.315,0.421-3.113,1.262c-0.799,0.843-1.198,1.932-1.198,3.267v16.724
					c0,1.335,0.399,2.423,1.198,3.266c0.798,0.842,1.836,1.262,3.113,1.262c1.307,0,2.353-0.413,3.136-1.241
					c0.784-0.827,1.176-1.923,1.176-3.287v-5.575c0-0.116-0.058-0.174-0.174-0.174H77.82c-0.291,0-0.436-0.145-0.436-0.436v-1.829
					c0-0.289,0.145-0.436,0.436-0.436h6.576c0.289,0,0.436,0.146,0.436,0.436v7.969c0,2.208-0.676,3.971-2.026,5.292
					c-1.349,1.321-3.143,1.98-5.378,1.98S73.406,550.056,72.071,548.734z"/>
				<path d="M114.837,522.582h-10.104c-0.116,0-0.174,0.059-0.174,0.174v10.8c0,0.117,0.058,0.174,0.174,0.174h6.358
					c0.289,0,0.435,0.146,0.435,0.436v1.873c0,0.29-0.146,0.436-0.435,0.436h-6.358c-0.116,0-0.174,0.058-0.174,0.173v10.845
					c0,0.115,0.058,0.173,0.174,0.173h10.104c0.289,0,0.435,0.146,0.435,0.436v1.829c0,0.292-0.146,0.437-0.435,0.437h-12.935
					c-0.29,0-0.436-0.145-0.436-0.437v-29.612c0-0.29,0.146-0.436,0.436-0.436h12.935c0.289,0,0.435,0.146,0.435,0.436v1.828
					C115.271,522.438,115.126,522.582,114.837,522.582z"/>
				<path d="M132.801,548.625c-1.38-1.394-2.069-3.237-2.069-5.531v-15.939c0-2.294,0.689-4.138,2.069-5.531
					c1.379-1.394,3.186-2.09,5.422-2.09c2.265,0,4.094,0.697,5.487,2.09s2.091,3.237,2.091,5.531v15.939
					c0,2.265-0.697,4.101-2.091,5.509s-3.223,2.112-5.487,2.112C135.986,550.715,134.18,550.019,132.801,548.625z M141.468,546.688
					c0.826-0.886,1.24-2.025,1.24-3.419v-16.245c0-1.421-0.414-2.576-1.24-3.461c-0.828-0.886-1.909-1.328-3.245-1.328
					c-1.307,0-2.366,0.442-3.179,1.328c-0.813,0.886-1.221,2.041-1.221,3.461v16.245c0,1.394,0.407,2.533,1.221,3.419
					c0.813,0.885,1.872,1.328,3.179,1.328C139.559,548.015,140.64,547.573,141.468,546.688z"/>
				<path d="M162.653,549.931v-29.612c0-0.29,0.146-0.436,0.436-0.436h2.222c0.29,0,0.436,0.146,0.436,0.436v27.175
					c0,0.115,0.058,0.173,0.173,0.173h9.974c0.29,0,0.436,0.146,0.436,0.436v1.829c0,0.292-0.146,0.437-0.436,0.437h-12.804
					C162.799,550.367,162.653,550.223,162.653,549.931z"/>
				<path d="M222.403,549.931v-29.612c0-0.29,0.146-0.436,0.436-0.436h2.309c0.232,0,0.393,0.115,0.479,0.348l8.754,21.949
					c0.027,0.086,0.071,0.131,0.13,0.131c0.058,0,0.088-0.045,0.088-0.131v-21.861c0-0.29,0.145-0.436,0.435-0.436h2.178
					c0.29,0,0.436,0.146,0.436,0.436v29.612c0,0.292-0.146,0.437-0.436,0.437h-2.308c-0.233,0-0.393-0.116-0.479-0.349
					l-8.754-21.949c-0.029-0.088-0.072-0.123-0.13-0.109c-0.059,0.015-0.088,0.065-0.088,0.152l0.044,21.817
					c0,0.292-0.146,0.437-0.436,0.437h-2.222C222.549,550.367,222.403,550.223,222.403,549.931z"/>
				<path d="M255.196,549.931v-29.612c0-0.29,0.146-0.436,0.436-0.436h2.222c0.29,0,0.436,0.146,0.436,0.436v29.612
					c0,0.292-0.146,0.437-0.436,0.437h-2.222C255.342,550.367,255.196,550.223,255.196,549.931z"/>
				<path d="M282.765,524.934c-0.03-0.086-0.06-0.13-0.088-0.13c-0.029,0-0.058,0.043-0.087,0.13l-5.226,25.041
					c-0.03,0.261-0.188,0.393-0.479,0.393h-2.221c-0.146,0-0.255-0.044-0.327-0.132c-0.072-0.086-0.095-0.201-0.064-0.348
					l6.576-29.614c0.058-0.261,0.218-0.391,0.479-0.391h2.613c0.29,0,0.45,0.13,0.479,0.391l6.619,29.614v0.087
					c0,0.261-0.13,0.393-0.391,0.393h-2.266c-0.261,0-0.421-0.132-0.479-0.393L282.765,524.934z"/>
			</g>
			<g>
				<path d="M192.551,548.624c-1.38-1.393-2.068-3.237-2.068-5.531v-15.938c0-2.293,0.688-4.138,2.068-5.531
					c1.379-1.395,3.186-2.09,5.422-2.09c2.264,0,4.093,0.696,5.487,2.09c1.394,1.393,2.091,3.237,2.091,5.531v15.938
					c0,2.266-0.697,4.102-2.091,5.51c-1.395,1.409-3.224,2.111-5.487,2.111C195.736,550.714,193.93,550.019,192.551,548.624z
					 M201.217,546.687c0.827-0.885,1.241-2.025,1.241-3.418v-16.245c0-1.423-0.414-2.576-1.241-3.462
					c-0.828-0.886-1.909-1.329-3.244-1.329c-1.307,0-2.366,0.443-3.179,1.329c-0.813,0.886-1.221,2.039-1.221,3.462v16.245
					c0,1.393,0.407,2.533,1.221,3.418c0.813,0.886,1.872,1.329,3.179,1.329C199.308,548.015,200.389,547.572,201.217,546.687z"/>
			</g>
		</g>
	</g>
	<g>
		<g>
			<path fill="#EB5C0C" d="M109.057,570.081c-1.754,0-3.176,1.453-3.176,3.207c0,1.752,2.228,5.865,3.176,5.865
				s3.175-4.113,3.175-5.865C112.231,571.534,110.81,570.081,109.057,570.081z M109.057,574.618c-0.752,0-1.361-0.609-1.361-1.361
				s0.609-1.361,1.361-1.361c0.751,0,1.36,0.609,1.36,1.361S109.808,574.618,109.057,574.618z"/>
		</g>
		<g>
			<g>
				<path d="M124.029,571.276h-2.692c-0.03,0-0.046,0.016-0.046,0.045v2.879c0,0.029,0.016,0.045,0.046,0.045h1.694
					c0.077,0,0.116,0.039,0.116,0.117v0.498c0,0.078-0.039,0.117-0.116,0.117h-1.694c-0.03,0-0.046,0.014-0.046,0.045v2.891
					c0,0.031,0.016,0.045,0.046,0.045h2.692c0.077,0,0.115,0.039,0.115,0.117v0.486c0,0.078-0.038,0.117-0.115,0.117h-3.446
					c-0.077,0-0.115-0.039-0.115-0.117v-7.889c0-0.078,0.038-0.115,0.115-0.115h3.446c0.077,0,0.115,0.037,0.115,0.115v0.486
					C124.145,571.237,124.106,571.276,124.029,571.276z"/>
				<path d="M128.264,578.562v-7.889c0-0.078,0.039-0.115,0.116-0.115h0.592c0.077,0,0.116,0.037,0.116,0.115v7.889
					c0,0.078-0.039,0.117-0.116,0.117h-0.592C128.303,578.679,128.264,578.64,128.264,578.562z"/>
				<path d="M136.449,573.243c0.321,0.352,0.481,0.82,0.481,1.408v3.91c0,0.078-0.039,0.117-0.116,0.117h-0.592
					c-0.077,0-0.116-0.039-0.116-0.117v-0.336c0-0.016-0.005-0.025-0.018-0.029c-0.011-0.004-0.024,0.002-0.04,0.018
					c-0.286,0.371-0.711,0.557-1.276,0.557c-0.425,0-0.794-0.121-1.107-0.365s-0.471-0.676-0.471-1.293
					c0-0.658,0.189-1.141,0.569-1.445c0.379-0.305,0.878-0.459,1.496-0.459h0.801c0.031,0,0.046-0.014,0.046-0.045v-0.453
					c0-0.387-0.087-0.695-0.261-0.928s-0.412-0.35-0.714-0.35c-0.231,0-0.433,0.078-0.603,0.232c-0.17,0.156-0.267,0.352-0.29,0.592
					c-0.008,0.078-0.051,0.117-0.128,0.117l-0.639-0.012c-0.038,0-0.066-0.012-0.086-0.035s-0.025-0.051-0.018-0.082
					c0.038-0.455,0.224-0.824,0.557-1.107c0.332-0.281,0.743-0.424,1.229-0.424C135.697,572.714,136.129,572.89,136.449,573.243z
					 M135.765,577.743c0.228-0.205,0.342-0.488,0.342-0.852v-0.975c0-0.031-0.015-0.047-0.046-0.047h-0.813
					c-0.371,0-0.664,0.1-0.881,0.295c-0.217,0.199-0.325,0.49-0.325,0.877c0,0.34,0.083,0.594,0.249,0.76s0.385,0.25,0.655,0.25
					C135.264,578.052,135.537,577.948,135.765,577.743z"/>
				<path d="M141.484,578.323c-0.321-0.273-0.482-0.639-0.482-1.096v-0.082c0-0.076,0.039-0.115,0.117-0.115h0.557
					c0.077,0,0.115,0.031,0.115,0.092v0.094c0,0.248,0.092,0.457,0.273,0.627s0.419,0.254,0.713,0.254
					c0.279,0,0.503-0.084,0.673-0.254c0.171-0.17,0.256-0.387,0.256-0.65c0-0.201-0.054-0.369-0.163-0.504
					c-0.107-0.135-0.233-0.242-0.377-0.32c-0.143-0.076-0.357-0.178-0.644-0.301c-0.302-0.123-0.551-0.246-0.749-0.365
					c-0.196-0.119-0.366-0.291-0.51-0.512c-0.144-0.219-0.215-0.5-0.215-0.84c0-0.496,0.152-0.885,0.459-1.172
					c0.305-0.287,0.717-0.43,1.235-0.43c0.526,0,0.943,0.146,1.253,0.441c0.31,0.293,0.464,0.684,0.464,1.172v0.033
					c0,0.078-0.039,0.117-0.116,0.117h-0.533c-0.078,0-0.116-0.031-0.116-0.094v-0.092c0-0.264-0.087-0.479-0.261-0.65
					c-0.174-0.17-0.4-0.254-0.68-0.254c-0.278,0-0.5,0.086-0.667,0.26c-0.166,0.176-0.249,0.389-0.249,0.645
					c0,0.186,0.05,0.342,0.151,0.471c0.101,0.127,0.224,0.23,0.371,0.313c0.146,0.08,0.352,0.18,0.614,0.295
					c0.317,0.141,0.578,0.271,0.783,0.395c0.205,0.125,0.385,0.299,0.539,0.523c0.155,0.225,0.232,0.502,0.232,0.834
					c0,0.48-0.158,0.863-0.475,1.148c-0.318,0.287-0.747,0.43-1.288,0.43C142.232,578.735,141.805,578.599,141.484,578.323z"/>
				<path d="M150.539,573.423h-0.881c-0.031,0-0.047,0.016-0.047,0.047v3.549c0,0.355,0.062,0.602,0.186,0.736
					s0.313,0.199,0.568,0.191h0.116c0.077,0,0.116,0.039,0.116,0.117v0.498c0,0.078-0.039,0.117-0.116,0.117h-0.29
					c-0.457,0-0.803-0.1-1.038-0.297c-0.236-0.197-0.354-0.57-0.354-1.119v-3.793c0-0.031-0.015-0.047-0.046-0.047H148.3
					c-0.077,0-0.115-0.039-0.115-0.117v-0.383c0-0.076,0.038-0.115,0.115-0.115h0.453c0.031,0,0.046-0.016,0.046-0.047v-1.299
					c0-0.078,0.039-0.117,0.116-0.117h0.581c0.076,0,0.115,0.039,0.115,0.117v1.299c0,0.031,0.016,0.047,0.047,0.047h0.881
					c0.077,0,0.117,0.039,0.117,0.115v0.383C150.656,573.384,150.616,573.423,150.539,573.423z"/>
				<path d="M154.763,571.589c-0.107-0.115-0.162-0.264-0.162-0.441c0-0.17,0.055-0.311,0.162-0.424
					c0.108-0.111,0.248-0.166,0.418-0.166c0.163,0,0.296,0.055,0.4,0.166c0.104,0.113,0.157,0.254,0.157,0.424
					c0,0.178-0.053,0.326-0.157,0.441s-0.237,0.174-0.4,0.174C155.011,571.763,154.871,571.704,154.763,571.589z M154.763,578.562
					v-5.639c0-0.076,0.039-0.115,0.116-0.115h0.592c0.077,0,0.116,0.039,0.116,0.115v5.639c0,0.078-0.039,0.117-0.116,0.117h-0.592
					C154.802,578.679,154.763,578.64,154.763,578.562z"/>
				<path d="M160.431,578.282c-0.329-0.324-0.493-0.754-0.493-1.287v-2.506c0-0.525,0.166-0.953,0.498-1.281
					c0.333-0.33,0.771-0.494,1.312-0.494c0.364,0,0.685,0.074,0.963,0.221s0.493,0.342,0.644,0.586
					c0.151,0.244,0.227,0.514,0.227,0.807v0.115c0,0.078-0.038,0.117-0.115,0.117l-0.592,0.023c-0.031,0-0.059-0.01-0.081-0.029
					c-0.023-0.02-0.035-0.045-0.035-0.076v-0.092c0-0.256-0.095-0.479-0.284-0.668s-0.432-0.285-0.726-0.285
					s-0.531,0.104-0.714,0.309c-0.182,0.205-0.271,0.475-0.271,0.807v2.389c0,0.334,0.09,0.602,0.271,0.807
					c0.183,0.205,0.42,0.309,0.714,0.309s0.536-0.096,0.726-0.285s0.284-0.412,0.284-0.666v-0.082c0-0.076,0.039-0.115,0.116-0.115
					l0.592,0.012c0.077,0,0.115,0.037,0.115,0.115v0.127c0,0.465-0.168,0.85-0.505,1.154c-0.336,0.307-0.778,0.459-1.328,0.459
					C161.198,578.771,160.759,578.608,160.431,578.282z"/>
				<path d="M173.198,578.562v-7.889c0-0.078,0.039-0.115,0.116-0.115h0.604c0.062,0,0.104,0.029,0.127,0.092l1.3,3.145
					c0.008,0.016,0.02,0.023,0.035,0.023c0.015,0,0.027-0.008,0.034-0.023l1.312-3.145c0.023-0.063,0.065-0.092,0.128-0.092h0.603
					c0.078,0,0.116,0.037,0.116,0.115v7.889c0,0.078-0.038,0.117-0.116,0.117h-0.592c-0.077,0-0.115-0.039-0.115-0.117v-5.939
					c0-0.023-0.008-0.035-0.023-0.035s-0.027,0.008-0.034,0.023l-1.184,2.691c-0.023,0.063-0.059,0.092-0.104,0.092
					c-0.055,0-0.093-0.029-0.116-0.092l-1.207-2.703c-0.008-0.016-0.019-0.023-0.035-0.023c-0.015,0-0.022,0.012-0.022,0.035v5.951
					c0,0.078-0.039,0.117-0.116,0.117h-0.592C173.237,578.679,173.198,578.64,173.198,578.562z"/>
				<path d="M185.119,573.243c0.321,0.352,0.481,0.82,0.481,1.408v3.91c0,0.078-0.039,0.117-0.116,0.117h-0.592
					c-0.077,0-0.116-0.039-0.116-0.117v-0.336c0-0.016-0.005-0.025-0.017-0.029s-0.025,0.002-0.041,0.018
					c-0.286,0.371-0.711,0.557-1.275,0.557c-0.426,0-0.795-0.121-1.108-0.365s-0.471-0.676-0.471-1.293
					c0-0.658,0.189-1.141,0.569-1.445c0.379-0.305,0.878-0.459,1.496-0.459h0.801c0.031,0,0.046-0.014,0.046-0.045v-0.453
					c0-0.387-0.087-0.695-0.26-0.928c-0.175-0.232-0.413-0.35-0.715-0.35c-0.231,0-0.433,0.078-0.603,0.232
					c-0.17,0.156-0.267,0.352-0.29,0.592c-0.009,0.078-0.051,0.117-0.128,0.117l-0.639-0.012c-0.038,0-0.066-0.012-0.086-0.035
					s-0.025-0.051-0.018-0.082c0.038-0.455,0.224-0.824,0.557-1.107c0.332-0.281,0.743-0.424,1.229-0.424
					C184.367,572.714,184.799,572.89,185.119,573.243z M184.435,577.743c0.228-0.205,0.342-0.488,0.342-0.852v-0.975
					c0-0.031-0.015-0.047-0.046-0.047h-0.813c-0.371,0-0.665,0.1-0.881,0.295c-0.217,0.199-0.325,0.49-0.325,0.877
					c0,0.34,0.083,0.594,0.249,0.76s0.385,0.25,0.655,0.25C183.934,578.052,184.207,577.948,184.435,577.743z"/>
				<path d="M193.583,575.776c0,0.551-0.004,0.967-0.011,1.254c-0.017,0.518-0.165,0.938-0.447,1.258
					c-0.282,0.322-0.655,0.482-1.119,0.482c-0.495,0-0.878-0.186-1.149-0.557c-0.016-0.016-0.028-0.02-0.04-0.012
					s-0.018,0.02-0.018,0.035v2.574c0,0.078-0.039,0.117-0.116,0.117h-0.591c-0.078,0-0.117-0.039-0.117-0.117v-7.889
					c0-0.076,0.039-0.115,0.117-0.115h0.591c0.077,0,0.116,0.039,0.116,0.115v0.336c0,0.018,0.006,0.027,0.018,0.035
					s0.024,0.004,0.04-0.012c0.132-0.186,0.296-0.326,0.493-0.422c0.197-0.098,0.416-0.146,0.656-0.146
					c0.455,0,0.824,0.164,1.107,0.494c0.283,0.328,0.436,0.756,0.459,1.281C193.579,574.774,193.583,575.204,193.583,575.776z
					 M192.492,577.731c0.186-0.211,0.275-0.492,0.268-0.84v-0.406v-0.742v-1.148c0.008-0.342-0.082-0.619-0.268-0.836
					s-0.429-0.326-0.73-0.326c-0.278,0-0.509,0.107-0.69,0.32c-0.183,0.213-0.272,0.492-0.272,0.842v2.297
					c0,0.348,0.09,0.629,0.272,0.84c0.182,0.213,0.412,0.32,0.69,0.32C192.063,578.052,192.307,577.944,192.492,577.731z"/>
				<path d="M206.449,570.558h0.592c0.077,0,0.116,0.037,0.116,0.115v7.889c0,0.078-0.039,0.117-0.116,0.117h-0.592
					c-0.077,0-0.115-0.039-0.115-0.117v-3.539c0-0.031-0.017-0.045-0.047-0.045h-2.065c-0.031,0-0.046,0.014-0.046,0.045v3.539
					c0,0.078-0.039,0.117-0.116,0.117h-0.592c-0.077,0-0.116-0.039-0.116-0.117v-7.889c0-0.078,0.039-0.115,0.116-0.115h0.592
					c0.077,0,0.116,0.037,0.116,0.115v3.527c0,0.029,0.015,0.045,0.046,0.045h2.065c0.03,0,0.047-0.016,0.047-0.045v-3.527
					C206.334,570.595,206.372,570.558,206.449,570.558z"/>
				<path d="M212.083,578.282c-0.329-0.324-0.493-0.754-0.493-1.287v-2.506c0-0.525,0.166-0.953,0.498-1.281
					c0.333-0.33,0.774-0.494,1.323-0.494s0.992,0.164,1.329,0.494c0.336,0.328,0.504,0.756,0.504,1.281v2.506
					c0,0.533-0.166,0.963-0.499,1.287c-0.332,0.326-0.776,0.488-1.334,0.488C212.854,578.771,212.411,578.608,212.083,578.282z
					 M214.136,577.743c0.189-0.205,0.285-0.469,0.285-0.793v-2.402c0-0.332-0.096-0.602-0.285-0.807s-0.431-0.309-0.725-0.309
					s-0.533,0.104-0.719,0.309s-0.278,0.475-0.278,0.807v2.402c0,0.324,0.093,0.588,0.278,0.793s0.425,0.309,0.719,0.309
					S213.946,577.948,214.136,577.743z"/>
				<path d="M219.786,578.323c-0.321-0.273-0.481-0.639-0.481-1.096v-0.082c0-0.076,0.039-0.115,0.116-0.115h0.557
					c0.077,0,0.116,0.031,0.116,0.092v0.094c0,0.248,0.091,0.457,0.271,0.627c0.183,0.17,0.42,0.254,0.715,0.254
					c0.277,0,0.502-0.084,0.673-0.254c0.169-0.17,0.255-0.387,0.255-0.65c0-0.201-0.054-0.369-0.163-0.504
					c-0.108-0.135-0.233-0.242-0.377-0.32c-0.142-0.076-0.358-0.178-0.644-0.301c-0.302-0.123-0.551-0.246-0.748-0.365
					s-0.367-0.291-0.511-0.512c-0.144-0.219-0.214-0.5-0.214-0.84c0-0.496,0.152-0.885,0.457-1.172
					c0.307-0.287,0.719-0.43,1.236-0.43c0.525,0,0.943,0.146,1.253,0.441c0.31,0.293,0.464,0.684,0.464,1.172v0.033
					c0,0.078-0.038,0.117-0.116,0.117h-0.533c-0.077,0-0.116-0.031-0.116-0.094v-0.092c0-0.264-0.088-0.479-0.262-0.65
					c-0.173-0.17-0.399-0.254-0.678-0.254c-0.279,0-0.501,0.086-0.667,0.26c-0.167,0.176-0.251,0.389-0.251,0.645
					c0,0.186,0.052,0.342,0.151,0.471c0.102,0.127,0.225,0.23,0.371,0.313c0.148,0.08,0.353,0.18,0.616,0.295
					c0.317,0.141,0.578,0.271,0.782,0.395c0.205,0.125,0.385,0.299,0.54,0.523c0.154,0.225,0.231,0.502,0.231,0.834
					c0,0.48-0.159,0.863-0.476,1.148c-0.317,0.287-0.746,0.43-1.288,0.43C220.535,578.735,220.107,578.599,219.786,578.323z"/>
				<path d="M228.842,573.423h-0.881c-0.032,0-0.047,0.016-0.047,0.047v3.549c0,0.355,0.062,0.602,0.186,0.736
					s0.313,0.199,0.569,0.191h0.116c0.076,0,0.114,0.039,0.114,0.117v0.498c0,0.078-0.038,0.117-0.114,0.117h-0.292
					c-0.456,0-0.802-0.1-1.037-0.297c-0.236-0.197-0.354-0.57-0.354-1.119v-3.793c0-0.031-0.015-0.047-0.047-0.047h-0.451
					c-0.078,0-0.116-0.039-0.116-0.117v-0.383c0-0.076,0.038-0.115,0.116-0.115h0.451c0.032,0,0.047-0.016,0.047-0.047v-1.299
					c0-0.078,0.039-0.117,0.116-0.117h0.58c0.077,0,0.116,0.039,0.116,0.117v1.299c0,0.031,0.015,0.047,0.047,0.047h0.881
					c0.077,0,0.117,0.039,0.117,0.115v0.383C228.959,573.384,228.919,573.423,228.842,573.423z"/>
				<path d="M233.064,571.589c-0.108-0.115-0.161-0.264-0.161-0.441c0-0.17,0.053-0.311,0.161-0.424
					c0.109-0.111,0.248-0.166,0.418-0.166c0.162,0,0.296,0.055,0.4,0.166c0.104,0.113,0.157,0.254,0.157,0.424
					c0,0.178-0.053,0.326-0.157,0.441s-0.238,0.174-0.4,0.174C233.313,571.763,233.174,571.704,233.064,571.589z M233.064,578.562
					v-5.639c0-0.076,0.039-0.115,0.116-0.115h0.592c0.077,0,0.116,0.039,0.116,0.115v5.639c0,0.078-0.039,0.117-0.116,0.117h-0.592
					C233.104,578.679,233.064,578.64,233.064,578.562z"/>
				<path d="M241.552,573.212c0.26,0.326,0.39,0.779,0.39,1.359v3.99c0,0.078-0.039,0.117-0.116,0.117h-0.592
					c-0.077,0-0.116-0.039-0.116-0.117v-3.922c0-0.379-0.082-0.672-0.243-0.881c-0.163-0.209-0.391-0.313-0.686-0.313
					c-0.31,0-0.553,0.111-0.73,0.336c-0.179,0.225-0.268,0.529-0.268,0.916v3.863c0,0.078-0.037,0.117-0.114,0.117h-0.592
					c-0.078,0-0.116-0.039-0.116-0.117v-5.639c0-0.076,0.038-0.115,0.116-0.115h0.592c0.077,0,0.114,0.039,0.114,0.115v0.383
					c0,0.016,0.01,0.025,0.024,0.029c0.016,0.004,0.027-0.002,0.035-0.018c0.285-0.395,0.688-0.592,1.206-0.592
					C240.929,572.726,241.294,572.888,241.552,573.212z"/>
				<path d="M249.086,572.808h0.592c0.077,0,0.117,0.039,0.117,0.115v5.639c0,0.828-0.192,1.455-0.574,1.885
					c-0.383,0.43-1.023,0.625-1.92,0.586c-0.079-0.008-0.116-0.051-0.116-0.127v-0.498c0-0.078,0.037-0.117,0.116-0.117
					c0.619,0.016,1.051-0.125,1.298-0.424c0.248-0.297,0.372-0.756,0.372-1.375v-0.348c0-0.014-0.005-0.027-0.018-0.035
					c-0.012-0.006-0.025-0.002-0.04,0.012c-0.132,0.193-0.301,0.342-0.505,0.441c-0.205,0.102-0.424,0.15-0.656,0.15
					c-0.486,0-0.871-0.162-1.153-0.486c-0.282-0.326-0.425-0.754-0.425-1.289v-2.447c0-0.541,0.143-0.973,0.425-1.293
					c0.282-0.322,0.667-0.482,1.153-0.482c0.232,0,0.451,0.049,0.656,0.146c0.204,0.096,0.373,0.24,0.505,0.434
					c0.015,0.023,0.028,0.033,0.04,0.029c0.013-0.004,0.018-0.018,0.018-0.041v-0.359
					C248.971,572.847,249.01,572.808,249.086,572.808z M248.698,577.687c0.182-0.205,0.272-0.471,0.272-0.795v-2.344
					c0-0.332-0.091-0.602-0.272-0.807c-0.183-0.205-0.416-0.309-0.702-0.309c-0.294,0-0.534,0.104-0.72,0.309
					s-0.277,0.475-0.277,0.807v2.344c0,0.324,0.092,0.59,0.277,0.795c0.186,0.203,0.426,0.307,0.72,0.307
					C248.282,577.993,248.516,577.89,248.698,577.687z"/>
				<path d="M254.14,578.446c-0.12-0.133-0.18-0.295-0.18-0.488c0-0.186,0.063-0.346,0.191-0.48
					c0.127-0.137,0.271-0.203,0.435-0.203c0.171,0,0.318,0.066,0.447,0.203c0.127,0.135,0.191,0.295,0.191,0.48
					c0,0.193-0.062,0.355-0.186,0.488c-0.124,0.131-0.274,0.197-0.453,0.197C254.408,578.644,254.259,578.577,254.14,578.446z"/>
			</g>
		</g>
	</g>
</g>
<g>
	<g>
		<g>
			<g>
				<path fill="#E4DBDA" d="M561.577,555.608c-1.336-1.321-2.004-3.085-2.004-5.292v-16.637c0-2.205,0.668-3.969,2.004-5.291
					c1.335-1.32,3.121-1.98,5.356-1.98s4.029,0.668,5.378,2.004c1.351,1.336,2.026,3.105,2.026,5.312v1.872
					c0,0.292-0.146,0.437-0.436,0.437h-2.222c-0.29,0-0.436-0.145-0.436-0.437v-1.959c0-1.364-0.392-2.461-1.176-3.287
					c-0.783-0.828-1.829-1.241-3.136-1.241c-1.277,0-2.315,0.421-3.113,1.263c-0.799,0.842-1.198,1.932-1.198,3.266v16.725
					c0,1.335,0.399,2.423,1.198,3.266c0.798,0.842,1.836,1.262,3.113,1.262c1.307,0,2.353-0.412,3.136-1.24
					c0.784-0.827,1.176-1.924,1.176-3.287v-5.575c0-0.116-0.058-0.175-0.174-0.175h-3.745c-0.291,0-0.436-0.145-0.436-0.436v-1.829
					c0-0.289,0.145-0.436,0.436-0.436h6.576c0.289,0,0.436,0.146,0.436,0.436v7.97c0,2.207-0.676,3.971-2.026,5.292
					c-1.349,1.321-3.143,1.98-5.378,1.98S562.912,556.929,561.577,555.608z"/>
				<path fill="#E4DBDA" d="M604.343,529.456h-10.104c-0.116,0-0.174,0.06-0.174,0.175v10.8c0,0.116,0.058,0.175,0.174,0.175h6.358
					c0.289,0,0.435,0.146,0.435,0.436v1.873c0,0.289-0.146,0.436-0.435,0.436h-6.358c-0.116,0-0.174,0.057-0.174,0.173v10.845
					c0,0.115,0.058,0.174,0.174,0.174h10.104c0.289,0,0.435,0.145,0.435,0.436v1.828c0,0.292-0.146,0.437-0.435,0.437h-12.935
					c-0.29,0-0.436-0.145-0.436-0.437v-29.612c0-0.29,0.146-0.436,0.436-0.436h12.935c0.289,0,0.435,0.146,0.435,0.436v1.828
					C604.777,529.311,604.632,529.456,604.343,529.456z"/>
				<path fill="#E4DBDA" d="M622.307,555.5c-1.38-1.395-2.069-3.238-2.069-5.531v-15.939c0-2.294,0.689-4.138,2.069-5.531
					c1.379-1.394,3.186-2.09,5.422-2.09c2.265,0,4.094,0.696,5.487,2.09s2.091,3.237,2.091,5.531v15.939
					c0,2.265-0.697,4.101-2.091,5.508c-1.394,1.408-3.223,2.112-5.487,2.112C625.492,557.588,623.686,556.892,622.307,555.5z
					 M630.974,553.561c0.826-0.886,1.24-2.024,1.24-3.419v-16.244c0-1.422-0.414-2.576-1.24-3.462
					c-0.828-0.886-1.909-1.328-3.245-1.328c-1.307,0-2.366,0.442-3.179,1.328c-0.813,0.886-1.221,2.04-1.221,3.462v16.244
					c0,1.395,0.407,2.533,1.221,3.419c0.813,0.886,1.872,1.327,3.179,1.327C629.064,554.888,630.146,554.447,630.974,553.561z"/>
				<path fill="#E4DBDA" d="M652.159,556.804v-29.612c0-0.29,0.146-0.436,0.436-0.436h2.222c0.29,0,0.436,0.146,0.436,0.436v27.175
					c0,0.115,0.058,0.174,0.173,0.174h9.974c0.29,0,0.436,0.145,0.436,0.436v1.828c0,0.292-0.146,0.437-0.436,0.437h-12.804
					C652.305,557.241,652.159,557.096,652.159,556.804z"/>
				<path fill="#E4DBDA" d="M711.909,556.804v-29.612c0-0.29,0.146-0.436,0.436-0.436h2.309c0.232,0,0.393,0.115,0.479,0.348
					l8.754,21.949c0.027,0.087,0.071,0.132,0.13,0.132c0.058,0,0.088-0.045,0.088-0.132v-21.861c0-0.29,0.145-0.436,0.435-0.436
					h2.178c0.29,0,0.436,0.146,0.436,0.436v29.612c0,0.292-0.146,0.437-0.436,0.437h-2.308c-0.233,0-0.393-0.116-0.479-0.349
					l-8.754-21.949c-0.029-0.088-0.072-0.123-0.13-0.108c-0.059,0.015-0.088,0.065-0.088,0.152l0.044,21.817
					c0,0.292-0.146,0.437-0.436,0.437h-2.222C712.055,557.241,711.909,557.096,711.909,556.804z"/>
				<path fill="#E4DBDA" d="M744.702,556.804v-29.612c0-0.29,0.146-0.436,0.436-0.436h2.222c0.29,0,0.436,0.146,0.436,0.436v29.612
					c0,0.292-0.146,0.437-0.436,0.437h-2.222C744.848,557.241,744.702,557.096,744.702,556.804z"/>
				<path fill="#E4DBDA" d="M772.271,531.807c-0.03-0.087-0.06-0.13-0.088-0.13c-0.029,0-0.058,0.043-0.087,0.13l-5.226,25.041
					c-0.03,0.261-0.188,0.393-0.479,0.393h-2.221c-0.146,0-0.255-0.044-0.327-0.132c-0.072-0.086-0.095-0.201-0.064-0.348
					l6.576-29.613c0.058-0.262,0.218-0.392,0.479-0.392h2.613c0.29,0,0.45,0.13,0.479,0.392l6.619,29.613v0.087
					c0,0.261-0.13,0.393-0.391,0.393h-2.266c-0.261,0-0.421-0.132-0.479-0.393L772.271,531.807z"/>
			</g>
			<g>
				<path fill="#E4DBDA" d="M682.057,555.498c-1.38-1.393-2.068-3.236-2.068-5.531v-15.938c0-2.294,0.688-4.139,2.068-5.531
					c1.379-1.395,3.186-2.09,5.422-2.09c2.264,0,4.093,0.695,5.487,2.09c1.394,1.393,2.091,3.237,2.091,5.531v15.938
					c0,2.266-0.697,4.102-2.091,5.51c-1.395,1.409-3.224,2.111-5.487,2.111C685.242,557.587,683.436,556.892,682.057,555.498z
					 M690.723,553.56c0.827-0.885,1.241-2.025,1.241-3.418v-16.244c0-1.424-0.414-2.576-1.241-3.463
					c-0.828-0.886-1.909-1.328-3.244-1.328c-1.307,0-2.366,0.442-3.179,1.328c-0.813,0.887-1.221,2.039-1.221,3.463v16.244
					c0,1.393,0.407,2.533,1.221,3.418c0.813,0.886,1.872,1.328,3.179,1.328C688.813,554.888,689.895,554.446,690.723,553.56z"/>
			</g>
		</g>
	</g>
	<g>
		<g>
			<path fill="#E8931D" d="M598.563,576.955c-1.754,0-3.176,1.453-3.176,3.207c0,1.752,2.228,5.865,3.176,5.865
				s3.175-4.113,3.175-5.865C601.737,578.408,600.315,576.955,598.563,576.955z M598.563,581.492c-0.752,0-1.361-0.609-1.361-1.361
				s0.609-1.361,1.361-1.361c0.751,0,1.36,0.609,1.36,1.361S599.313,581.492,598.563,581.492z"/>
		</g>
		<g>
			<g>
				<path fill="#E4DBDA" d="M613.535,578.15h-2.692c-0.03,0-0.046,0.016-0.046,0.045v2.879c0,0.029,0.016,0.045,0.046,0.045h1.694
					c0.077,0,0.116,0.039,0.116,0.117v0.498c0,0.078-0.039,0.117-0.116,0.117h-1.694c-0.03,0-0.046,0.014-0.046,0.045v2.891
					c0,0.031,0.016,0.045,0.046,0.045h2.692c0.077,0,0.115,0.039,0.115,0.117v0.486c0,0.078-0.038,0.117-0.115,0.117h-3.446
					c-0.077,0-0.115-0.039-0.115-0.117v-7.889c0-0.078,0.038-0.115,0.115-0.115h3.446c0.077,0,0.115,0.037,0.115,0.115v0.486
					C613.65,578.111,613.612,578.15,613.535,578.15z"/>
				<path fill="#E4DBDA" d="M617.77,585.435v-7.889c0-0.078,0.039-0.115,0.116-0.115h0.592c0.077,0,0.116,0.037,0.116,0.115v7.889
					c0,0.078-0.039,0.117-0.116,0.117h-0.592C617.809,585.552,617.77,585.513,617.77,585.435z"/>
				<path fill="#E4DBDA" d="M625.955,580.117c0.321,0.352,0.481,0.82,0.481,1.408v3.91c0,0.078-0.039,0.117-0.116,0.117h-0.592
					c-0.077,0-0.116-0.039-0.116-0.117v-0.336c0-0.016-0.005-0.025-0.018-0.029c-0.011-0.004-0.024,0.002-0.04,0.018
					c-0.286,0.371-0.711,0.557-1.276,0.557c-0.425,0-0.794-0.121-1.107-0.365s-0.471-0.676-0.471-1.293
					c0-0.658,0.189-1.141,0.569-1.445c0.379-0.305,0.878-0.459,1.496-0.459h0.801c0.031,0,0.046-0.014,0.046-0.045v-0.453
					c0-0.387-0.087-0.695-0.261-0.928s-0.412-0.35-0.714-0.35c-0.231,0-0.433,0.078-0.603,0.232c-0.17,0.156-0.267,0.352-0.29,0.592
					c-0.008,0.078-0.051,0.117-0.128,0.117l-0.639-0.012c-0.038,0-0.066-0.012-0.086-0.035s-0.025-0.051-0.018-0.082
					c0.038-0.455,0.224-0.824,0.557-1.107c0.332-0.281,0.743-0.424,1.229-0.424C625.203,579.587,625.635,579.763,625.955,580.117z
					 M625.271,584.617c0.228-0.205,0.342-0.488,0.342-0.852v-0.975c0-0.031-0.015-0.047-0.046-0.047h-0.813
					c-0.371,0-0.664,0.1-0.881,0.295c-0.217,0.199-0.325,0.49-0.325,0.877c0,0.34,0.083,0.594,0.249,0.76s0.385,0.25,0.655,0.25
					C624.77,584.925,625.043,584.822,625.271,584.617z"/>
				<path fill="#E4DBDA" d="M630.99,585.197c-0.321-0.273-0.482-0.639-0.482-1.096v-0.082c0-0.076,0.039-0.115,0.117-0.115h0.557
					c0.077,0,0.115,0.031,0.115,0.092v0.094c0,0.248,0.092,0.457,0.273,0.627s0.419,0.254,0.713,0.254
					c0.279,0,0.503-0.084,0.673-0.254c0.171-0.17,0.256-0.387,0.256-0.65c0-0.201-0.054-0.369-0.163-0.504
					c-0.107-0.135-0.233-0.242-0.377-0.32c-0.143-0.076-0.357-0.178-0.644-0.301c-0.302-0.123-0.551-0.246-0.749-0.365
					c-0.196-0.119-0.366-0.291-0.51-0.512c-0.144-0.219-0.215-0.5-0.215-0.84c0-0.496,0.152-0.885,0.459-1.172
					c0.305-0.287,0.717-0.43,1.235-0.43c0.526,0,0.943,0.146,1.253,0.441c0.31,0.293,0.464,0.684,0.464,1.172v0.033
					c0,0.078-0.039,0.117-0.116,0.117h-0.533c-0.078,0-0.116-0.031-0.116-0.094v-0.092c0-0.264-0.087-0.479-0.261-0.65
					c-0.174-0.17-0.4-0.254-0.68-0.254c-0.278,0-0.5,0.086-0.667,0.26c-0.166,0.176-0.249,0.389-0.249,0.645
					c0,0.186,0.05,0.342,0.151,0.471c0.101,0.127,0.224,0.23,0.371,0.313c0.146,0.08,0.352,0.18,0.614,0.295
					c0.317,0.141,0.578,0.271,0.783,0.395c0.205,0.125,0.385,0.299,0.539,0.523c0.155,0.225,0.232,0.502,0.232,0.834
					c0,0.48-0.158,0.863-0.475,1.148c-0.318,0.287-0.747,0.43-1.288,0.43C631.738,585.609,631.311,585.472,630.99,585.197z"/>
				<path fill="#E4DBDA" d="M640.045,580.296h-0.881c-0.031,0-0.047,0.016-0.047,0.047v3.549c0,0.355,0.062,0.602,0.186,0.736
					s0.313,0.199,0.568,0.191h0.116c0.077,0,0.116,0.039,0.116,0.117v0.498c0,0.078-0.039,0.117-0.116,0.117h-0.29
					c-0.457,0-0.803-0.1-1.038-0.297c-0.236-0.197-0.354-0.57-0.354-1.119v-3.793c0-0.031-0.015-0.047-0.046-0.047h-0.453
					c-0.077,0-0.115-0.039-0.115-0.117v-0.383c0-0.076,0.038-0.115,0.115-0.115h0.453c0.031,0,0.046-0.016,0.046-0.047v-1.299
					c0-0.078,0.039-0.117,0.116-0.117h0.581c0.076,0,0.115,0.039,0.115,0.117v1.299c0,0.031,0.016,0.047,0.047,0.047h0.881
					c0.077,0,0.117,0.039,0.117,0.115v0.383C640.162,580.257,640.122,580.296,640.045,580.296z"/>
				<path fill="#E4DBDA" d="M644.269,578.462c-0.107-0.115-0.162-0.264-0.162-0.441c0-0.17,0.055-0.311,0.162-0.424
					c0.108-0.111,0.248-0.166,0.418-0.166c0.163,0,0.296,0.055,0.4,0.166c0.104,0.113,0.157,0.254,0.157,0.424
					c0,0.178-0.053,0.326-0.157,0.441s-0.237,0.174-0.4,0.174C644.517,578.636,644.377,578.578,644.269,578.462z M644.269,585.435
					v-5.639c0-0.076,0.039-0.115,0.116-0.115h0.592c0.077,0,0.116,0.039,0.116,0.115v5.639c0,0.078-0.039,0.117-0.116,0.117h-0.592
					C644.308,585.552,644.269,585.513,644.269,585.435z"/>
				<path fill="#E4DBDA" d="M649.937,585.156c-0.329-0.324-0.493-0.754-0.493-1.287v-2.506c0-0.525,0.166-0.953,0.498-1.281
					c0.333-0.33,0.771-0.494,1.312-0.494c0.364,0,0.685,0.074,0.963,0.221s0.493,0.342,0.644,0.586
					c0.151,0.244,0.227,0.514,0.227,0.807v0.115c0,0.078-0.038,0.117-0.115,0.117l-0.592,0.023c-0.031,0-0.059-0.01-0.081-0.029
					c-0.023-0.02-0.035-0.045-0.035-0.076v-0.092c0-0.256-0.095-0.479-0.284-0.668s-0.432-0.285-0.726-0.285
					s-0.531,0.104-0.714,0.309c-0.182,0.205-0.271,0.475-0.271,0.807v2.389c0,0.334,0.09,0.602,0.271,0.807
					c0.183,0.205,0.42,0.309,0.714,0.309s0.536-0.096,0.726-0.285s0.284-0.412,0.284-0.666v-0.082c0-0.076,0.039-0.115,0.116-0.115
					l0.592,0.012c0.077,0,0.115,0.037,0.115,0.115v0.127c0,0.465-0.168,0.85-0.505,1.154c-0.336,0.307-0.778,0.459-1.328,0.459
					C650.704,585.644,650.265,585.482,649.937,585.156z"/>
				<path fill="#E4DBDA" d="M662.704,585.435v-7.889c0-0.078,0.039-0.115,0.116-0.115h0.604c0.062,0,0.104,0.029,0.127,0.092
					l1.3,3.145c0.008,0.016,0.02,0.023,0.035,0.023c0.015,0,0.027-0.008,0.034-0.023l1.312-3.145
					c0.023-0.063,0.065-0.092,0.128-0.092h0.603c0.078,0,0.116,0.037,0.116,0.115v7.889c0,0.078-0.038,0.117-0.116,0.117h-0.592
					c-0.077,0-0.115-0.039-0.115-0.117v-5.939c0-0.023-0.008-0.035-0.023-0.035s-0.027,0.008-0.034,0.023l-1.184,2.691
					c-0.023,0.063-0.059,0.092-0.104,0.092c-0.055,0-0.093-0.029-0.116-0.092l-1.207-2.703c-0.008-0.016-0.019-0.023-0.035-0.023
					c-0.015,0-0.022,0.012-0.022,0.035v5.951c0,0.078-0.039,0.117-0.116,0.117h-0.592
					C662.743,585.552,662.704,585.513,662.704,585.435z"/>
				<path fill="#E4DBDA" d="M674.625,580.117c0.321,0.352,0.481,0.82,0.481,1.408v3.91c0,0.078-0.039,0.117-0.116,0.117h-0.592
					c-0.077,0-0.116-0.039-0.116-0.117v-0.336c0-0.016-0.005-0.025-0.017-0.029s-0.025,0.002-0.041,0.018
					c-0.286,0.371-0.711,0.557-1.275,0.557c-0.426,0-0.795-0.121-1.108-0.365s-0.471-0.676-0.471-1.293
					c0-0.658,0.189-1.141,0.569-1.445c0.379-0.305,0.878-0.459,1.496-0.459h0.801c0.031,0,0.046-0.014,0.046-0.045v-0.453
					c0-0.387-0.087-0.695-0.26-0.928c-0.175-0.232-0.413-0.35-0.715-0.35c-0.231,0-0.433,0.078-0.603,0.232
					c-0.17,0.156-0.267,0.352-0.29,0.592c-0.009,0.078-0.051,0.117-0.128,0.117l-0.639-0.012c-0.038,0-0.066-0.012-0.086-0.035
					s-0.025-0.051-0.018-0.082c0.038-0.455,0.224-0.824,0.557-1.107c0.332-0.281,0.743-0.424,1.229-0.424
					C673.873,579.587,674.305,579.763,674.625,580.117z M673.94,584.617c0.228-0.205,0.342-0.488,0.342-0.852v-0.975
					c0-0.031-0.015-0.047-0.046-0.047h-0.813c-0.371,0-0.665,0.1-0.881,0.295c-0.217,0.199-0.325,0.49-0.325,0.877
					c0,0.34,0.083,0.594,0.249,0.76s0.385,0.25,0.655,0.25C673.439,584.925,673.713,584.822,673.94,584.617z"/>
				<path fill="#E4DBDA" d="M683.089,582.65c0,0.551-0.004,0.967-0.011,1.254c-0.017,0.518-0.165,0.938-0.447,1.258
					c-0.282,0.322-0.655,0.482-1.119,0.482c-0.495,0-0.878-0.186-1.149-0.557c-0.016-0.016-0.028-0.02-0.04-0.012
					s-0.018,0.02-0.018,0.035v2.574c0,0.078-0.039,0.117-0.116,0.117h-0.591c-0.078,0-0.117-0.039-0.117-0.117v-7.889
					c0-0.076,0.039-0.115,0.117-0.115h0.591c0.077,0,0.116,0.039,0.116,0.115v0.336c0,0.018,0.006,0.027,0.018,0.035
					s0.024,0.004,0.04-0.012c0.132-0.186,0.296-0.326,0.493-0.422c0.197-0.098,0.416-0.146,0.656-0.146
					c0.455,0,0.824,0.164,1.107,0.494c0.283,0.328,0.436,0.756,0.459,1.281C683.085,581.648,683.089,582.078,683.089,582.65z
					 M681.998,584.605c0.186-0.211,0.275-0.492,0.268-0.84v-0.406v-0.742v-1.148c0.008-0.342-0.082-0.619-0.268-0.836
					s-0.429-0.326-0.73-0.326c-0.278,0-0.509,0.107-0.69,0.32c-0.183,0.213-0.272,0.492-0.272,0.842v2.297
					c0,0.348,0.09,0.629,0.272,0.84c0.182,0.213,0.412,0.32,0.69,0.32C681.569,584.925,681.813,584.818,681.998,584.605z"/>
				<path fill="#E4DBDA" d="M695.955,577.431h0.592c0.077,0,0.116,0.037,0.116,0.115v7.889c0,0.078-0.039,0.117-0.116,0.117h-0.592
					c-0.077,0-0.115-0.039-0.115-0.117v-3.539c0-0.031-0.017-0.045-0.047-0.045h-2.065c-0.031,0-0.046,0.014-0.046,0.045v3.539
					c0,0.078-0.039,0.117-0.116,0.117h-0.592c-0.077,0-0.116-0.039-0.116-0.117v-7.889c0-0.078,0.039-0.115,0.116-0.115h0.592
					c0.077,0,0.116,0.037,0.116,0.115v3.527c0,0.029,0.015,0.045,0.046,0.045h2.065c0.03,0,0.047-0.016,0.047-0.045v-3.527
					C695.84,577.468,695.878,577.431,695.955,577.431z"/>
				<path fill="#E4DBDA" d="M701.589,585.156c-0.329-0.324-0.493-0.754-0.493-1.287v-2.506c0-0.525,0.166-0.953,0.498-1.281
					c0.333-0.33,0.774-0.494,1.323-0.494s0.992,0.164,1.329,0.494c0.336,0.328,0.504,0.756,0.504,1.281v2.506
					c0,0.533-0.166,0.963-0.499,1.287c-0.332,0.326-0.776,0.488-1.334,0.488C702.36,585.644,701.917,585.482,701.589,585.156z
					 M703.642,584.617c0.189-0.205,0.285-0.469,0.285-0.793v-2.402c0-0.332-0.096-0.602-0.285-0.807s-0.431-0.309-0.725-0.309
					s-0.533,0.104-0.719,0.309s-0.278,0.475-0.278,0.807v2.402c0,0.324,0.093,0.588,0.278,0.793s0.425,0.309,0.719,0.309
					S703.452,584.822,703.642,584.617z"/>
				<path fill="#E4DBDA" d="M709.292,585.197c-0.321-0.273-0.481-0.639-0.481-1.096v-0.082c0-0.076,0.039-0.115,0.116-0.115h0.557
					c0.077,0,0.116,0.031,0.116,0.092v0.094c0,0.248,0.091,0.457,0.271,0.627c0.183,0.17,0.42,0.254,0.715,0.254
					c0.277,0,0.502-0.084,0.673-0.254c0.169-0.17,0.255-0.387,0.255-0.65c0-0.201-0.054-0.369-0.163-0.504
					c-0.108-0.135-0.233-0.242-0.377-0.32c-0.142-0.076-0.358-0.178-0.644-0.301c-0.302-0.123-0.551-0.246-0.748-0.365
					s-0.367-0.291-0.511-0.512c-0.144-0.219-0.214-0.5-0.214-0.84c0-0.496,0.152-0.885,0.457-1.172
					c0.307-0.287,0.719-0.43,1.236-0.43c0.525,0,0.943,0.146,1.253,0.441c0.31,0.293,0.464,0.684,0.464,1.172v0.033
					c0,0.078-0.038,0.117-0.116,0.117h-0.533c-0.077,0-0.116-0.031-0.116-0.094v-0.092c0-0.264-0.088-0.479-0.262-0.65
					c-0.173-0.17-0.399-0.254-0.678-0.254c-0.279,0-0.501,0.086-0.667,0.26c-0.167,0.176-0.251,0.389-0.251,0.645
					c0,0.186,0.052,0.342,0.151,0.471c0.102,0.127,0.225,0.23,0.371,0.313c0.148,0.08,0.353,0.18,0.616,0.295
					c0.317,0.141,0.578,0.271,0.782,0.395c0.205,0.125,0.385,0.299,0.54,0.523c0.154,0.225,0.231,0.502,0.231,0.834
					c0,0.48-0.159,0.863-0.476,1.148c-0.317,0.287-0.746,0.43-1.288,0.43C710.041,585.609,709.613,585.472,709.292,585.197z"/>
				<path fill="#E4DBDA" d="M718.348,580.296h-0.881c-0.032,0-0.047,0.016-0.047,0.047v3.549c0,0.355,0.062,0.602,0.186,0.736
					s0.313,0.199,0.569,0.191h0.116c0.076,0,0.114,0.039,0.114,0.117v0.498c0,0.078-0.038,0.117-0.114,0.117h-0.292
					c-0.456,0-0.802-0.1-1.037-0.297c-0.236-0.197-0.354-0.57-0.354-1.119v-3.793c0-0.031-0.015-0.047-0.047-0.047h-0.451
					c-0.078,0-0.116-0.039-0.116-0.117v-0.383c0-0.076,0.038-0.115,0.116-0.115h0.451c0.032,0,0.047-0.016,0.047-0.047v-1.299
					c0-0.078,0.039-0.117,0.116-0.117h0.58c0.077,0,0.116,0.039,0.116,0.117v1.299c0,0.031,0.015,0.047,0.047,0.047h0.881
					c0.077,0,0.117,0.039,0.117,0.115v0.383C718.465,580.257,718.425,580.296,718.348,580.296z"/>
				<path fill="#E4DBDA" d="M722.57,578.462c-0.108-0.115-0.161-0.264-0.161-0.441c0-0.17,0.053-0.311,0.161-0.424
					c0.109-0.111,0.248-0.166,0.418-0.166c0.162,0,0.296,0.055,0.4,0.166c0.104,0.113,0.157,0.254,0.157,0.424
					c0,0.178-0.053,0.326-0.157,0.441s-0.238,0.174-0.4,0.174C722.818,578.636,722.68,578.578,722.57,578.462z M722.57,585.435
					v-5.639c0-0.076,0.039-0.115,0.116-0.115h0.592c0.077,0,0.116,0.039,0.116,0.115v5.639c0,0.078-0.039,0.117-0.116,0.117h-0.592
					C722.609,585.552,722.57,585.513,722.57,585.435z"/>
				<path fill="#E4DBDA" d="M731.058,580.085c0.26,0.326,0.39,0.779,0.39,1.359v3.99c0,0.078-0.039,0.117-0.116,0.117h-0.592
					c-0.077,0-0.116-0.039-0.116-0.117v-3.922c0-0.379-0.082-0.672-0.243-0.881c-0.163-0.209-0.391-0.313-0.686-0.313
					c-0.31,0-0.553,0.111-0.73,0.336c-0.179,0.225-0.268,0.529-0.268,0.916v3.863c0,0.078-0.037,0.117-0.114,0.117h-0.592
					c-0.078,0-0.116-0.039-0.116-0.117v-5.639c0-0.076,0.038-0.115,0.116-0.115h0.592c0.077,0,0.114,0.039,0.114,0.115v0.383
					c0,0.016,0.01,0.025,0.024,0.029c0.016,0.004,0.027-0.002,0.035-0.018c0.285-0.395,0.688-0.592,1.206-0.592
					C730.435,579.599,730.8,579.761,731.058,580.085z"/>
				<path fill="#E4DBDA" d="M738.592,579.681h0.592c0.077,0,0.117,0.039,0.117,0.115v5.639c0,0.828-0.192,1.455-0.574,1.885
					c-0.383,0.43-1.023,0.625-1.92,0.586c-0.079-0.008-0.116-0.051-0.116-0.127v-0.498c0-0.078,0.037-0.117,0.116-0.117
					c0.619,0.016,1.051-0.125,1.298-0.424c0.248-0.297,0.372-0.756,0.372-1.375v-0.348c0-0.014-0.005-0.027-0.018-0.035
					c-0.012-0.006-0.025-0.002-0.04,0.012c-0.132,0.193-0.301,0.342-0.505,0.441c-0.205,0.102-0.424,0.15-0.656,0.15
					c-0.486,0-0.871-0.162-1.153-0.486c-0.282-0.326-0.425-0.754-0.425-1.289v-2.447c0-0.541,0.143-0.973,0.425-1.293
					c0.282-0.322,0.667-0.482,1.153-0.482c0.232,0,0.451,0.049,0.656,0.146c0.204,0.096,0.373,0.24,0.505,0.434
					c0.015,0.023,0.028,0.033,0.04,0.029c0.013-0.004,0.018-0.018,0.018-0.041v-0.359
					C738.477,579.72,738.516,579.681,738.592,579.681z M738.204,584.56c0.182-0.205,0.272-0.471,0.272-0.795v-2.344
					c0-0.332-0.091-0.602-0.272-0.807c-0.183-0.205-0.416-0.309-0.702-0.309c-0.294,0-0.534,0.104-0.72,0.309
					s-0.277,0.475-0.277,0.807v2.344c0,0.324,0.092,0.59,0.277,0.795c0.186,0.203,0.426,0.307,0.72,0.307
					C737.788,584.867,738.021,584.763,738.204,584.56z"/>
				<path fill="#E4DBDA" d="M743.646,585.32c-0.12-0.133-0.18-0.295-0.18-0.488c0-0.186,0.063-0.346,0.191-0.48
					c0.127-0.137,0.271-0.203,0.435-0.203c0.171,0,0.318,0.066,0.447,0.203c0.127,0.135,0.191,0.295,0.191,0.48
					c0,0.193-0.062,0.355-0.186,0.488c-0.124,0.131-0.274,0.197-0.453,0.197C743.914,585.517,743.765,585.451,743.646,585.32z"/>
			</g>
		</g>
	</g>
</g>
<g>
	<g>
		<g>
			<g>
				<path d="M100.175,702.726c-1.336-1.321-2.004-3.085-2.004-5.292v-16.636c0-2.206,0.668-3.97,2.004-5.291
					c1.335-1.32,3.121-1.981,5.356-1.981s4.029,0.668,5.378,2.004c1.351,1.336,2.026,3.106,2.026,5.312v1.873
					c0,0.292-0.146,0.436-0.436,0.436h-2.222c-0.29,0-0.436-0.145-0.436-0.436v-1.959c0-1.365-0.392-2.461-1.176-3.288
					c-0.783-0.828-1.829-1.241-3.136-1.241c-1.277,0-2.315,0.421-3.113,1.262c-0.799,0.843-1.198,1.932-1.198,3.267v16.724
					c0,1.335,0.399,2.423,1.198,3.266c0.798,0.842,1.836,1.262,3.113,1.262c1.307,0,2.353-0.413,3.136-1.241
					c0.784-0.827,1.176-1.923,1.176-3.287v-5.575c0-0.116-0.058-0.174-0.174-0.174h-3.745c-0.291,0-0.436-0.145-0.436-0.436v-1.829
					c0-0.289,0.145-0.436,0.436-0.436h6.576c0.289,0,0.436,0.146,0.436,0.436v7.969c0,2.208-0.676,3.971-2.026,5.292
					c-1.349,1.321-3.143,1.98-5.378,1.98S101.51,704.047,100.175,702.726z"/>
				<path d="M142.94,676.574h-10.104c-0.116,0-0.174,0.059-0.174,0.174v10.8c0,0.117,0.058,0.174,0.174,0.174h6.358
					c0.289,0,0.435,0.146,0.435,0.436v1.873c0,0.29-0.146,0.436-0.435,0.436h-6.358c-0.116,0-0.174,0.058-0.174,0.173v10.845
					c0,0.115,0.058,0.173,0.174,0.173h10.104c0.289,0,0.435,0.146,0.435,0.436v1.829c0,0.292-0.146,0.437-0.435,0.437h-12.935
					c-0.29,0-0.436-0.145-0.436-0.437V674.31c0-0.29,0.146-0.436,0.436-0.436h12.935c0.289,0,0.435,0.146,0.435,0.436v1.828
					C143.375,676.429,143.229,676.574,142.94,676.574z"/>
				<path d="M160.904,702.617c-1.38-1.394-2.069-3.237-2.069-5.531v-15.939c0-2.294,0.689-4.138,2.069-5.531
					c1.379-1.394,3.186-2.09,5.422-2.09c2.265,0,4.094,0.697,5.487,2.09s2.091,3.237,2.091,5.531v15.939
					c0,2.265-0.697,4.101-2.091,5.509s-3.223,2.112-5.487,2.112C164.09,704.707,162.283,704.01,160.904,702.617z M169.571,700.679
					c0.826-0.886,1.24-2.025,1.24-3.419v-16.245c0-1.421-0.414-2.576-1.24-3.461c-0.828-0.886-1.909-1.328-3.245-1.328
					c-1.307,0-2.366,0.442-3.179,1.328c-0.813,0.886-1.221,2.041-1.221,3.461v16.245c0,1.394,0.407,2.533,1.221,3.419
					c0.813,0.885,1.872,1.328,3.179,1.328C167.662,702.007,168.743,701.564,169.571,700.679z"/>
				<path d="M190.757,703.922V674.31c0-0.29,0.146-0.436,0.436-0.436h2.222c0.29,0,0.436,0.146,0.436,0.436v27.175
					c0,0.115,0.058,0.173,0.173,0.173h9.974c0.29,0,0.436,0.146,0.436,0.436v1.829c0,0.292-0.146,0.437-0.436,0.437h-12.804
					C190.902,704.359,190.757,704.214,190.757,703.922z"/>
				<path d="M250.507,703.922V674.31c0-0.29,0.146-0.436,0.436-0.436h2.309c0.232,0,0.393,0.115,0.479,0.348l8.754,21.949
					c0.027,0.086,0.071,0.131,0.13,0.131c0.058,0,0.088-0.045,0.088-0.131V674.31c0-0.29,0.145-0.436,0.435-0.436h2.178
					c0.29,0,0.436,0.146,0.436,0.436v29.612c0,0.292-0.146,0.437-0.436,0.437h-2.308c-0.233,0-0.393-0.116-0.479-0.349
					l-8.754-21.949c-0.029-0.088-0.072-0.123-0.13-0.109c-0.059,0.015-0.088,0.065-0.088,0.152l0.044,21.817
					c0,0.292-0.146,0.437-0.436,0.437h-2.222C250.652,704.359,250.507,704.214,250.507,703.922z"/>
				<path d="M283.3,703.922V674.31c0-0.29,0.146-0.436,0.436-0.436h2.222c0.29,0,0.436,0.146,0.436,0.436v29.612
					c0,0.292-0.146,0.437-0.436,0.437h-2.222C283.445,704.359,283.3,704.214,283.3,703.922z"/>
				<path d="M310.868,678.925c-0.03-0.086-0.06-0.13-0.088-0.13c-0.029,0-0.058,0.043-0.087,0.13l-5.226,25.041
					c-0.03,0.261-0.188,0.393-0.479,0.393h-2.221c-0.146,0-0.255-0.044-0.327-0.132c-0.072-0.086-0.095-0.201-0.064-0.348
					l6.576-29.614c0.058-0.261,0.218-0.391,0.479-0.391h2.613c0.29,0,0.45,0.13,0.479,0.391l6.619,29.614v0.087
					c0,0.261-0.13,0.393-0.391,0.393h-2.266c-0.261,0-0.421-0.132-0.479-0.393L310.868,678.925z"/>
			</g>
			<g>
				<path d="M220.654,702.616c-1.38-1.393-2.068-3.237-2.068-5.531v-15.938c0-2.293,0.688-4.138,2.068-5.531
					c1.379-1.395,3.186-2.09,5.422-2.09c2.264,0,4.093,0.696,5.487,2.09c1.394,1.393,2.091,3.237,2.091,5.531v15.938
					c0,2.266-0.697,4.102-2.091,5.51c-1.395,1.409-3.224,2.111-5.487,2.111C223.84,704.706,222.033,704.01,220.654,702.616z
					 M229.32,700.678c0.827-0.885,1.241-2.025,1.241-3.418v-16.245c0-1.423-0.414-2.576-1.241-3.462
					c-0.828-0.886-1.909-1.329-3.244-1.329c-1.307,0-2.366,0.443-3.179,1.329c-0.813,0.886-1.221,2.039-1.221,3.462v16.245
					c0,1.393,0.407,2.533,1.221,3.418c0.813,0.886,1.872,1.329,3.179,1.329C227.411,702.007,228.492,701.564,229.32,700.678z"/>
			</g>
		</g>
	</g>
</g>
<g>
	<g>
		<g>
			<g>
				<path fill="#E4DBDA" d="M589.681,709.6c-1.336-1.321-2.004-3.085-2.004-5.292v-16.637c0-2.205,0.668-3.969,2.004-5.291
					c1.335-1.32,3.121-1.98,5.356-1.98s4.029,0.668,5.378,2.004c1.351,1.336,2.026,3.105,2.026,5.312v1.872
					c0,0.292-0.146,0.437-0.436,0.437h-2.222c-0.29,0-0.436-0.145-0.436-0.437v-1.959c0-1.364-0.392-2.461-1.176-3.287
					c-0.783-0.828-1.829-1.241-3.136-1.241c-1.277,0-2.315,0.421-3.113,1.263c-0.799,0.842-1.198,1.932-1.198,3.266v16.725
					c0,1.335,0.399,2.423,1.198,3.266c0.798,0.842,1.836,1.262,3.113,1.262c1.307,0,2.353-0.412,3.136-1.24
					c0.784-0.827,1.176-1.924,1.176-3.287v-5.575c0-0.116-0.058-0.175-0.174-0.175h-3.745c-0.291,0-0.436-0.145-0.436-0.436v-1.829
					c0-0.289,0.145-0.436,0.436-0.436h6.576c0.289,0,0.436,0.146,0.436,0.436v7.97c0,2.207-0.676,3.971-2.026,5.292
					c-1.349,1.321-3.143,1.98-5.378,1.98S591.016,710.921,589.681,709.6z"/>
				<path fill="#E4DBDA" d="M632.446,683.447h-10.104c-0.116,0-0.174,0.06-0.174,0.175v10.8c0,0.116,0.058,0.175,0.174,0.175h6.358
					c0.289,0,0.435,0.146,0.435,0.436v1.873c0,0.289-0.146,0.436-0.435,0.436h-6.358c-0.116,0-0.174,0.057-0.174,0.173v10.845
					c0,0.115,0.058,0.174,0.174,0.174h10.104c0.289,0,0.435,0.145,0.435,0.436v1.828c0,0.292-0.146,0.437-0.435,0.437h-12.935
					c-0.29,0-0.436-0.145-0.436-0.437v-29.612c0-0.29,0.146-0.436,0.436-0.436h12.935c0.289,0,0.435,0.146,0.435,0.436v1.828
					C632.881,683.303,632.735,683.447,632.446,683.447z"/>
				<path fill="#E4DBDA" d="M650.41,709.491c-1.38-1.395-2.069-3.238-2.069-5.531v-15.939c0-2.294,0.689-4.138,2.069-5.531
					c1.379-1.394,3.186-2.09,5.422-2.09c2.265,0,4.094,0.696,5.487,2.09s2.091,3.237,2.091,5.531v15.939
					c0,2.265-0.697,4.101-2.091,5.508c-1.394,1.408-3.223,2.112-5.487,2.112C653.596,711.58,651.789,710.884,650.41,709.491z
					 M659.077,707.553c0.826-0.886,1.24-2.024,1.24-3.419V687.89c0-1.422-0.414-2.576-1.24-3.462
					c-0.828-0.886-1.909-1.328-3.245-1.328c-1.307,0-2.366,0.442-3.179,1.328c-0.813,0.886-1.221,2.04-1.221,3.462v16.244
					c0,1.395,0.407,2.533,1.221,3.419c0.813,0.886,1.872,1.327,3.179,1.327C657.168,708.88,658.249,708.438,659.077,707.553z"/>
				<path fill="#E4DBDA" d="M680.263,710.796v-29.612c0-0.29,0.146-0.436,0.436-0.436h2.222c0.29,0,0.436,0.146,0.436,0.436v27.175
					c0,0.115,0.058,0.174,0.173,0.174h9.974c0.29,0,0.436,0.145,0.436,0.436v1.828c0,0.292-0.146,0.437-0.436,0.437h-12.804
					C680.408,711.232,680.263,711.088,680.263,710.796z"/>
				<path fill="#E4DBDA" d="M740.013,710.796v-29.612c0-0.29,0.146-0.436,0.436-0.436h2.309c0.232,0,0.393,0.115,0.479,0.348
					l8.754,21.949c0.027,0.087,0.071,0.132,0.13,0.132c0.058,0,0.088-0.045,0.088-0.132v-21.861c0-0.29,0.145-0.436,0.435-0.436
					h2.178c0.29,0,0.436,0.146,0.436,0.436v29.612c0,0.292-0.146,0.437-0.436,0.437h-2.308c-0.233,0-0.393-0.116-0.479-0.349
					l-8.754-21.949c-0.029-0.088-0.072-0.123-0.13-0.108c-0.059,0.015-0.088,0.065-0.088,0.152l0.044,21.817
					c0,0.292-0.146,0.437-0.436,0.437h-2.222C740.158,711.232,740.013,711.088,740.013,710.796z"/>
				<path fill="#E4DBDA" d="M772.806,710.796v-29.612c0-0.29,0.146-0.436,0.436-0.436h2.222c0.29,0,0.436,0.146,0.436,0.436v29.612
					c0,0.292-0.146,0.437-0.436,0.437h-2.222C772.951,711.232,772.806,711.088,772.806,710.796z"/>
				<path fill="#E4DBDA" d="M800.374,685.799c-0.03-0.087-0.06-0.13-0.088-0.13c-0.029,0-0.058,0.043-0.087,0.13l-5.226,25.041
					c-0.03,0.261-0.188,0.393-0.479,0.393h-2.221c-0.146,0-0.255-0.044-0.327-0.132c-0.072-0.086-0.095-0.201-0.064-0.348
					l6.576-29.613c0.058-0.262,0.218-0.392,0.479-0.392h2.613c0.29,0,0.45,0.13,0.479,0.392l6.619,29.613v0.087
					c0,0.261-0.13,0.393-0.391,0.393h-2.266c-0.261,0-0.421-0.132-0.479-0.393L800.374,685.799z"/>
			</g>
			<g>
				<path fill="#E4DBDA" d="M710.16,709.489c-1.38-1.393-2.068-3.236-2.068-5.531v-15.938c0-2.294,0.688-4.139,2.068-5.531
					c1.379-1.395,3.186-2.09,5.422-2.09c2.264,0,4.093,0.695,5.487,2.09c1.394,1.393,2.091,3.237,2.091,5.531v15.938
					c0,2.266-0.697,4.102-2.091,5.51c-1.395,1.409-3.224,2.111-5.487,2.111C713.346,711.579,711.539,710.884,710.16,709.489z
					 M718.826,707.552c0.827-0.885,1.241-2.025,1.241-3.418V687.89c0-1.424-0.414-2.576-1.241-3.463
					c-0.828-0.886-1.909-1.328-3.244-1.328c-1.307,0-2.366,0.442-3.179,1.328c-0.813,0.887-1.221,2.039-1.221,3.463v16.244
					c0,1.393,0.407,2.533,1.221,3.418c0.813,0.886,1.872,1.328,3.179,1.328C716.917,708.88,717.998,708.438,718.826,707.552z"/>
			</g>
		</g>
	</g>
</g>
</svg>
