<svg id="abcdd533-745e-46a6-9572-bee5c7e4f40e" data-name="レイヤー 1" xmlns="http://www.w3.org/2000/svg" width="9cm" height="12.7cm" viewBox="0 0 255.11811 360">
  <g>
    <circle cx="127.5995" cy="125.93345" r="113.93401" style="fill: #fff"/>
    <g>
      <path d="M68.751,139.17994v5.5133a36.75548,36.75548,0,0,0,36.75532,36.75532h4.75261l42.26862-42.26776H68.751Z" style="fill: #ee730d"/>
      <path d="M115.455,181.44856h34.15686a36.75493,36.75493,0,0,0,36.75533-36.75532v-5.5133H157.72358Z" style="fill: #eb5c0c"/>
      <path d="M111.01959,63.83239h-5.5133A36.75549,36.75549,0,0,0,68.751,100.58771v34.91756h42.26862Z" style="fill: #e84130"/>
      <path d="M157.72358,135.50441h28.64356V100.58685a36.75549,36.75549,0,0,0-36.75533-36.75532c-6.21175.00086-23.28673.00086-34.91669.00086V92.476Z" style="fill: #fac03d"/>
      <polygon points="114.695 135.504 152.528 135.504 114.695 97.672 114.695 135.504" style="fill: #f39813"/>
    </g>
    <path d="M.82659,133.10339C-.5035,69.48428,39.12517,17.301,97.42121,3.53365c62.02734-14.6485,124.868,17.31087,147.038,76.136,16.65938,44.20342,12.60777,86.9948-14.30832,126.41155-12.30581,18.021-25.88916,35.18873-39.29782,52.42769-21.92754,28.19136-41.03172,57.90536-52.39851,92.11751-1.66628,5.01526-4.13333,9.44276-11.05721,9.37276-6.69974-.06775-10.12434-3.54975-12.5536-8.91248-.98606-2.17682-1.49039-4.56754-2.38888-6.79-4.672-11.556-8.02163-23.93-14.41424-34.44419-11.14913-18.33741-23.943-35.69888-36.50121-53.14168-11.22073-15.58508-23.27483-30.5668-34.56613-46.10277C9.35939,186.37268-.25268,159.424.82659,133.10339Zm233.43628-6.18661c.624-58.65639-47.50327-108.7341-106.09645-108.78361C67.93924,18.08227,20.35989,65.58188,19.41831,124.43464c-.92752,57.974,44.523,108.7945,106.98259,109.31732C186.78561,234.25742,234.29447,184.67263,234.26287,126.91678Z" style="fill: #eb5c0c"/>
  </g>
</svg>
