<?xml version="1.0" encoding="utf-8"?>
<!DOCTYPE svg PUBLIC "-//W3C//DTD SVG 1.1//EN" "http://www.w3.org/Graphics/SVG/1.1/DTD/svg11.dtd">
<svg version="1.1" id="レイヤー_1" xmlns="http://www.w3.org/2000/svg" xmlns:xlink="http://www.w3.org/1999/xlink" x="0px"
	 y="0px" width="325.853px" height="85.039px" viewBox="0 0 325.853 85.039" enable-background="new 0 0 325.853 85.039"
	 xml:space="preserve">
<g>
	<g>
		<path fill="#EE730D" d="M0,54.479c0,1.623,0,2.998,0,3.986C0,73.141,11.898,85.04,26.575,85.04c0.874,0,2.053,0,3.437,0
			l30.561-30.561H0z"/>
		<path fill="#EB5C0C" d="M33.769,85.04c8.389,0,20.302,0,24.696,0c14.677,0,26.575-11.898,26.575-26.574c0-0.988,0-2.363,0-3.986
			H64.33L33.769,85.04z"/>
		<path fill="#E84130" d="M30.562,0c-1.624,0-2.998,0-3.986,0C11.898,0,0,11.898,0,26.575c0,4.491,0,16.838,0,25.246h30.562V0z"/>
		<path fill="#FAC03D" d="M64.33,51.821h20.71c0-8.408,0-20.755,0-25.246C85.04,11.898,73.142,0,58.465,0
			c-4.491,0-16.837,0-25.246,0v20.709L64.33,51.821z"/>
		<polygon fill="#F39813" points="33.219,51.821 60.572,51.821 33.219,24.467 		"/>
	</g>
	<g>
		<g>
			<g>
				<g>
					<path fill="#E4DBDA" d="M106.886,40.541c-1.336-1.321-2.004-3.085-2.004-5.292V18.612c0-2.205,0.668-3.969,2.004-5.291
						c1.335-1.32,3.121-1.98,5.356-1.98s4.029,0.668,5.378,2.004c1.351,1.336,2.026,3.105,2.026,5.312v1.872
						c0,0.292-0.146,0.437-0.436,0.437h-2.222c-0.29,0-0.436-0.145-0.436-0.437v-1.959c0-1.364-0.392-2.461-1.176-3.287
						c-0.783-0.828-1.829-1.241-3.136-1.241c-1.277,0-2.315,0.421-3.113,1.263c-0.799,0.842-1.198,1.932-1.198,3.266v16.725
						c0,1.335,0.399,2.423,1.198,3.266c0.798,0.842,1.836,1.262,3.113,1.262c1.307,0,2.353-0.412,3.136-1.24
						c0.784-0.827,1.176-1.924,1.176-3.287v-5.575c0-0.116-0.058-0.175-0.174-0.175h-3.745c-0.291,0-0.436-0.145-0.436-0.436v-1.829
						c0-0.289,0.145-0.436,0.436-0.436h6.576c0.289,0,0.436,0.146,0.436,0.436v7.97c0,2.207-0.676,3.971-2.026,5.292
						c-1.349,1.321-3.143,1.98-5.378,1.98S108.221,41.862,106.886,40.541z"/>
					<path fill="#E4DBDA" d="M149.651,14.388h-10.104c-0.116,0-0.174,0.06-0.174,0.175v10.8c0,0.116,0.058,0.175,0.174,0.175h6.358
						c0.289,0,0.435,0.146,0.435,0.436v1.873c0,0.289-0.146,0.436-0.435,0.436h-6.358c-0.116,0-0.174,0.057-0.174,0.173v10.845
						c0,0.115,0.058,0.174,0.174,0.174h10.104c0.289,0,0.435,0.145,0.435,0.436v1.828c0,0.292-0.146,0.437-0.435,0.437h-12.935
						c-0.29,0-0.436-0.145-0.436-0.437V12.125c0-0.29,0.146-0.436,0.436-0.436h12.935c0.289,0,0.435,0.146,0.435,0.436v1.828
						C150.086,14.244,149.94,14.388,149.651,14.388z"/>
					<path fill="#E4DBDA" d="M167.615,40.432c-1.38-1.395-2.069-3.238-2.069-5.531V18.961c0-2.294,0.689-4.138,2.069-5.531
						c1.379-1.394,3.186-2.09,5.422-2.09c2.265,0,4.094,0.696,5.487,2.09s2.091,3.237,2.091,5.531v15.939
						c0,2.265-0.697,4.101-2.091,5.508c-1.394,1.408-3.223,2.112-5.487,2.112C170.801,42.521,168.994,41.825,167.615,40.432z
						 M176.282,38.494c0.826-0.886,1.24-2.024,1.24-3.419V18.831c0-1.422-0.414-2.576-1.24-3.462
						c-0.828-0.886-1.909-1.328-3.245-1.328c-1.307,0-2.366,0.442-3.179,1.328c-0.813,0.886-1.221,2.04-1.221,3.462v16.244
						c0,1.395,0.407,2.533,1.221,3.419c0.813,0.886,1.872,1.327,3.179,1.327C174.373,39.821,175.454,39.379,176.282,38.494z"/>
					<path fill="#E4DBDA" d="M197.468,41.737V12.125c0-0.29,0.146-0.436,0.436-0.436h2.222c0.29,0,0.436,0.146,0.436,0.436v27.175
						c0,0.115,0.058,0.174,0.173,0.174h9.974c0.29,0,0.436,0.145,0.436,0.436v1.828c0,0.292-0.146,0.437-0.436,0.437h-12.804
						C197.613,42.173,197.468,42.029,197.468,41.737z"/>
					<path fill="#E4DBDA" d="M257.218,41.737V12.125c0-0.29,0.146-0.436,0.436-0.436h2.309c0.232,0,0.393,0.115,0.479,0.348
						l8.754,21.949c0.027,0.087,0.071,0.132,0.13,0.132c0.058,0,0.088-0.045,0.088-0.132V12.125c0-0.29,0.145-0.436,0.435-0.436
						h2.178c0.29,0,0.436,0.146,0.436,0.436v29.612c0,0.292-0.146,0.437-0.436,0.437h-2.308c-0.233,0-0.393-0.116-0.479-0.349
						l-8.754-21.949c-0.029-0.088-0.072-0.123-0.13-0.108c-0.059,0.015-0.088,0.065-0.088,0.152l0.044,21.817
						c0,0.292-0.146,0.437-0.436,0.437h-2.222C257.363,42.173,257.218,42.029,257.218,41.737z"/>
					<path fill="#E4DBDA" d="M290.011,41.737V12.125c0-0.29,0.146-0.436,0.436-0.436h2.222c0.29,0,0.436,0.146,0.436,0.436v29.612
						c0,0.292-0.146,0.437-0.436,0.437h-2.222C290.156,42.173,290.011,42.029,290.011,41.737z"/>
					<path fill="#E4DBDA" d="M317.579,16.74c-0.03-0.087-0.06-0.13-0.088-0.13c-0.029,0-0.058,0.043-0.087,0.13l-5.226,25.041
						c-0.03,0.261-0.188,0.393-0.479,0.393h-2.221c-0.146,0-0.255-0.044-0.327-0.132c-0.072-0.086-0.095-0.201-0.064-0.348
						l6.576-29.613c0.058-0.262,0.218-0.392,0.479-0.392h2.613c0.29,0,0.45,0.13,0.479,0.392l6.619,29.613v0.087
						c0,0.261-0.13,0.393-0.391,0.393h-2.266c-0.261,0-0.421-0.132-0.479-0.393L317.579,16.74z"/>
				</g>
				<g>
					<path fill="#E4DBDA" d="M227.365,40.43c-1.38-1.393-2.068-3.236-2.068-5.531V18.961c0-2.294,0.688-4.139,2.068-5.531
						c1.379-1.395,3.186-2.09,5.422-2.09c2.264,0,4.093,0.695,5.487,2.09c1.394,1.393,2.091,3.237,2.091,5.531v15.938
						c0,2.266-0.697,4.102-2.091,5.51c-1.395,1.409-3.224,2.111-5.487,2.111C230.551,42.52,228.744,41.825,227.365,40.43z
						 M236.031,38.493c0.827-0.885,1.241-2.025,1.241-3.418V18.831c0-1.424-0.414-2.576-1.241-3.463
						c-0.828-0.886-1.909-1.328-3.244-1.328c-1.307,0-2.366,0.442-3.179,1.328c-0.813,0.887-1.221,2.039-1.221,3.463v16.244
						c0,1.393,0.407,2.533,1.221,3.418c0.813,0.886,1.872,1.328,3.179,1.328C234.122,39.821,235.203,39.378,236.031,38.493z"/>
				</g>
			</g>
		</g>
		<g>
			<g>
				<path fill="#E8931D" d="M143.871,61.887c-1.754,0-3.176,1.453-3.176,3.207c0,1.752,2.228,5.865,3.176,5.865
					s3.175-4.113,3.175-5.865C147.046,63.34,145.624,61.887,143.871,61.887z M143.871,66.424c-0.752,0-1.361-0.609-1.361-1.361
					s0.609-1.361,1.361-1.361c0.751,0,1.36,0.609,1.36,1.361S144.622,66.424,143.871,66.424z"/>
			</g>
			<g>
				<g>
					<path fill="#E4DBDA" d="M158.844,63.083h-2.692c-0.03,0-0.046,0.016-0.046,0.045v2.879c0,0.029,0.016,0.045,0.046,0.045h1.694
						c0.077,0,0.116,0.039,0.116,0.117v0.498c0,0.078-0.039,0.117-0.116,0.117h-1.694c-0.03,0-0.046,0.014-0.046,0.045v2.891
						c0,0.031,0.016,0.045,0.046,0.045h2.692c0.077,0,0.115,0.039,0.115,0.117v0.486c0,0.078-0.038,0.117-0.115,0.117h-3.446
						c-0.077,0-0.115-0.039-0.115-0.117v-7.889c0-0.078,0.038-0.115,0.115-0.115h3.446c0.077,0,0.115,0.037,0.115,0.115v0.486
						C158.959,63.043,158.921,63.083,158.844,63.083z"/>
					<path fill="#E4DBDA" d="M163.078,70.368v-7.889c0-0.078,0.039-0.115,0.116-0.115h0.592c0.077,0,0.116,0.037,0.116,0.115v7.889
						c0,0.078-0.039,0.117-0.116,0.117h-0.592C163.117,70.485,163.078,70.446,163.078,70.368z"/>
					<path fill="#E4DBDA" d="M171.264,65.049c0.321,0.352,0.481,0.82,0.481,1.408v3.91c0,0.078-0.039,0.117-0.116,0.117h-0.592
						c-0.077,0-0.116-0.039-0.116-0.117v-0.336c0-0.016-0.005-0.025-0.018-0.029c-0.011-0.004-0.024,0.002-0.04,0.018
						c-0.286,0.371-0.711,0.557-1.276,0.557c-0.425,0-0.794-0.121-1.107-0.365s-0.471-0.676-0.471-1.293
						c0-0.658,0.189-1.141,0.569-1.445c0.379-0.305,0.878-0.459,1.496-0.459h0.801c0.031,0,0.046-0.014,0.046-0.045v-0.453
						c0-0.387-0.087-0.695-0.261-0.928s-0.412-0.35-0.714-0.35c-0.231,0-0.433,0.078-0.603,0.232
						c-0.17,0.156-0.267,0.352-0.29,0.592c-0.008,0.078-0.051,0.117-0.128,0.117l-0.639-0.012c-0.038,0-0.066-0.012-0.086-0.035
						s-0.025-0.051-0.018-0.082c0.038-0.455,0.224-0.824,0.557-1.107c0.332-0.281,0.743-0.424,1.229-0.424
						C170.512,64.52,170.943,64.696,171.264,65.049z M170.579,69.549c0.228-0.205,0.342-0.488,0.342-0.852v-0.975
						c0-0.031-0.015-0.047-0.046-0.047h-0.813c-0.371,0-0.664,0.1-0.881,0.295c-0.217,0.199-0.325,0.49-0.325,0.877
						c0,0.34,0.083,0.594,0.249,0.76s0.385,0.25,0.655,0.25C170.078,69.858,170.352,69.754,170.579,69.549z"/>
					<path fill="#E4DBDA" d="M176.299,70.129c-0.321-0.273-0.482-0.639-0.482-1.096v-0.082c0-0.076,0.039-0.115,0.117-0.115h0.557
						c0.077,0,0.115,0.031,0.115,0.092v0.094c0,0.248,0.092,0.457,0.273,0.627s0.419,0.254,0.713,0.254
						c0.279,0,0.503-0.084,0.673-0.254c0.171-0.17,0.256-0.387,0.256-0.65c0-0.201-0.054-0.369-0.163-0.504
						c-0.107-0.135-0.233-0.242-0.377-0.32c-0.143-0.076-0.357-0.178-0.644-0.301c-0.302-0.123-0.551-0.246-0.749-0.365
						c-0.196-0.119-0.366-0.291-0.51-0.512c-0.144-0.219-0.215-0.5-0.215-0.84c0-0.496,0.152-0.885,0.459-1.172
						c0.305-0.287,0.717-0.43,1.235-0.43c0.526,0,0.943,0.146,1.253,0.441c0.31,0.293,0.464,0.684,0.464,1.172v0.033
						c0,0.078-0.039,0.117-0.116,0.117h-0.533c-0.078,0-0.116-0.031-0.116-0.094v-0.092c0-0.264-0.087-0.479-0.261-0.65
						c-0.174-0.17-0.4-0.254-0.68-0.254c-0.278,0-0.5,0.086-0.667,0.26c-0.166,0.176-0.249,0.389-0.249,0.645
						c0,0.186,0.05,0.342,0.151,0.471c0.101,0.127,0.224,0.23,0.371,0.313c0.146,0.08,0.352,0.18,0.614,0.295
						c0.317,0.141,0.578,0.271,0.783,0.395c0.205,0.125,0.385,0.299,0.539,0.523c0.155,0.225,0.232,0.502,0.232,0.834
						c0,0.48-0.158,0.863-0.475,1.148c-0.318,0.287-0.747,0.43-1.288,0.43C177.047,70.542,176.619,70.405,176.299,70.129z"/>
					<path fill="#E4DBDA" d="M185.354,65.229h-0.881c-0.031,0-0.047,0.016-0.047,0.047v3.549c0,0.355,0.062,0.602,0.186,0.736
						s0.313,0.199,0.568,0.191h0.116c0.077,0,0.116,0.039,0.116,0.117v0.498c0,0.078-0.039,0.117-0.116,0.117h-0.29
						c-0.457,0-0.803-0.1-1.038-0.297c-0.236-0.197-0.354-0.57-0.354-1.119v-3.793c0-0.031-0.015-0.047-0.046-0.047h-0.453
						c-0.077,0-0.115-0.039-0.115-0.117v-0.383c0-0.076,0.038-0.115,0.115-0.115h0.453c0.031,0,0.046-0.016,0.046-0.047v-1.299
						c0-0.078,0.039-0.117,0.116-0.117h0.581c0.076,0,0.115,0.039,0.115,0.117v1.299c0,0.031,0.016,0.047,0.047,0.047h0.881
						c0.077,0,0.117,0.039,0.117,0.115v0.383C185.471,65.19,185.431,65.229,185.354,65.229z"/>
					<path fill="#E4DBDA" d="M189.577,63.395c-0.107-0.115-0.162-0.264-0.162-0.441c0-0.17,0.055-0.311,0.162-0.424
						c0.108-0.111,0.248-0.166,0.418-0.166c0.163,0,0.296,0.055,0.4,0.166c0.104,0.113,0.157,0.254,0.157,0.424
						c0,0.178-0.053,0.326-0.157,0.441s-0.237,0.174-0.4,0.174C189.825,63.569,189.686,63.51,189.577,63.395z M189.577,70.368
						v-5.639c0-0.076,0.039-0.115,0.116-0.115h0.592c0.077,0,0.116,0.039,0.116,0.115v5.639c0,0.078-0.039,0.117-0.116,0.117h-0.592
						C189.616,70.485,189.577,70.446,189.577,70.368z"/>
					<path fill="#E4DBDA" d="M195.245,70.088c-0.329-0.324-0.493-0.754-0.493-1.287v-2.506c0-0.525,0.166-0.953,0.498-1.281
						c0.333-0.33,0.771-0.494,1.312-0.494c0.364,0,0.685,0.074,0.963,0.221s0.493,0.342,0.644,0.586
						c0.151,0.244,0.227,0.514,0.227,0.807v0.115c0,0.078-0.038,0.117-0.115,0.117l-0.592,0.023c-0.031,0-0.059-0.01-0.081-0.029
						c-0.023-0.02-0.035-0.045-0.035-0.076v-0.092c0-0.256-0.095-0.479-0.284-0.668s-0.432-0.285-0.726-0.285
						s-0.531,0.104-0.714,0.309c-0.182,0.205-0.271,0.475-0.271,0.807v2.389c0,0.334,0.09,0.602,0.271,0.807
						c0.183,0.205,0.42,0.309,0.714,0.309s0.536-0.096,0.726-0.285s0.284-0.412,0.284-0.666v-0.082c0-0.076,0.039-0.115,0.116-0.115
						l0.592,0.012c0.077,0,0.115,0.037,0.115,0.115v0.127c0,0.465-0.168,0.85-0.505,1.154c-0.336,0.307-0.778,0.459-1.328,0.459
						C196.013,70.577,195.573,70.415,195.245,70.088z"/>
					<path fill="#E4DBDA" d="M208.013,70.368v-7.889c0-0.078,0.039-0.115,0.116-0.115h0.604c0.062,0,0.104,0.029,0.127,0.092
						l1.3,3.145c0.008,0.016,0.02,0.023,0.035,0.023c0.015,0,0.027-0.008,0.034-0.023l1.312-3.145
						c0.023-0.063,0.065-0.092,0.128-0.092h0.603c0.078,0,0.116,0.037,0.116,0.115v7.889c0,0.078-0.038,0.117-0.116,0.117h-0.592
						c-0.077,0-0.115-0.039-0.115-0.117v-5.939c0-0.023-0.008-0.035-0.023-0.035s-0.027,0.008-0.034,0.023l-1.184,2.691
						c-0.023,0.063-0.059,0.092-0.104,0.092c-0.055,0-0.093-0.029-0.116-0.092l-1.207-2.703c-0.008-0.016-0.019-0.023-0.035-0.023
						c-0.015,0-0.022,0.012-0.022,0.035v5.951c0,0.078-0.039,0.117-0.116,0.117h-0.592
						C208.052,70.485,208.013,70.446,208.013,70.368z"/>
					<path fill="#E4DBDA" d="M219.934,65.049c0.321,0.352,0.481,0.82,0.481,1.408v3.91c0,0.078-0.039,0.117-0.116,0.117h-0.592
						c-0.077,0-0.116-0.039-0.116-0.117v-0.336c0-0.016-0.005-0.025-0.017-0.029s-0.025,0.002-0.041,0.018
						c-0.286,0.371-0.711,0.557-1.275,0.557c-0.426,0-0.795-0.121-1.108-0.365s-0.471-0.676-0.471-1.293
						c0-0.658,0.189-1.141,0.569-1.445c0.379-0.305,0.878-0.459,1.496-0.459h0.801c0.031,0,0.046-0.014,0.046-0.045v-0.453
						c0-0.387-0.087-0.695-0.26-0.928c-0.175-0.232-0.413-0.35-0.715-0.35c-0.231,0-0.433,0.078-0.603,0.232
						c-0.17,0.156-0.267,0.352-0.29,0.592c-0.009,0.078-0.051,0.117-0.128,0.117l-0.639-0.012c-0.038,0-0.066-0.012-0.086-0.035
						s-0.025-0.051-0.018-0.082c0.038-0.455,0.224-0.824,0.557-1.107c0.332-0.281,0.743-0.424,1.229-0.424
						C219.182,64.52,219.613,64.696,219.934,65.049z M219.249,69.549c0.228-0.205,0.342-0.488,0.342-0.852v-0.975
						c0-0.031-0.015-0.047-0.046-0.047h-0.813c-0.371,0-0.665,0.1-0.881,0.295c-0.217,0.199-0.325,0.49-0.325,0.877
						c0,0.34,0.083,0.594,0.249,0.76s0.385,0.25,0.655,0.25C218.748,69.858,219.021,69.754,219.249,69.549z"/>
					<path fill="#E4DBDA" d="M228.397,67.583c0,0.551-0.004,0.967-0.011,1.254c-0.017,0.518-0.165,0.938-0.447,1.258
						c-0.282,0.322-0.655,0.482-1.119,0.482c-0.495,0-0.878-0.186-1.149-0.557c-0.016-0.016-0.028-0.02-0.04-0.012
						s-0.018,0.02-0.018,0.035v2.574c0,0.078-0.039,0.117-0.116,0.117h-0.591c-0.078,0-0.117-0.039-0.117-0.117v-7.889
						c0-0.076,0.039-0.115,0.117-0.115h0.591c0.077,0,0.116,0.039,0.116,0.115v0.336c0,0.018,0.006,0.027,0.018,0.035
						s0.024,0.004,0.04-0.012c0.132-0.186,0.296-0.326,0.493-0.422c0.197-0.098,0.416-0.146,0.656-0.146
						c0.455,0,0.824,0.164,1.107,0.494c0.283,0.328,0.436,0.756,0.459,1.281C228.394,66.581,228.397,67.01,228.397,67.583z
						 M227.307,69.538c0.186-0.211,0.275-0.492,0.268-0.84v-0.406v-0.742v-1.148c0.008-0.342-0.082-0.619-0.268-0.836
						s-0.429-0.326-0.73-0.326c-0.278,0-0.509,0.107-0.69,0.32c-0.183,0.213-0.272,0.492-0.272,0.842v2.297
						c0,0.348,0.09,0.629,0.272,0.84c0.182,0.213,0.412,0.32,0.69,0.32C226.878,69.858,227.121,69.75,227.307,69.538z"/>
					<path fill="#E4DBDA" d="M241.264,62.364h0.592c0.077,0,0.116,0.037,0.116,0.115v7.889c0,0.078-0.039,0.117-0.116,0.117h-0.592
						c-0.077,0-0.115-0.039-0.115-0.117v-3.539c0-0.031-0.017-0.045-0.047-0.045h-2.065c-0.031,0-0.046,0.014-0.046,0.045v3.539
						c0,0.078-0.039,0.117-0.116,0.117h-0.592c-0.077,0-0.116-0.039-0.116-0.117v-7.889c0-0.078,0.039-0.115,0.116-0.115h0.592
						c0.077,0,0.116,0.037,0.116,0.115v3.527c0,0.029,0.015,0.045,0.046,0.045h2.065c0.03,0,0.047-0.016,0.047-0.045v-3.527
						C241.148,62.401,241.187,62.364,241.264,62.364z"/>
					<path fill="#E4DBDA" d="M246.897,70.088c-0.329-0.324-0.493-0.754-0.493-1.287v-2.506c0-0.525,0.166-0.953,0.498-1.281
						c0.333-0.33,0.774-0.494,1.323-0.494s0.992,0.164,1.329,0.494c0.336,0.328,0.504,0.756,0.504,1.281v2.506
						c0,0.533-0.166,0.963-0.499,1.287c-0.332,0.326-0.776,0.488-1.334,0.488C247.669,70.577,247.226,70.415,246.897,70.088z
						 M248.95,69.549c0.189-0.205,0.285-0.469,0.285-0.793v-2.402c0-0.332-0.096-0.602-0.285-0.807s-0.431-0.309-0.725-0.309
						s-0.533,0.104-0.719,0.309s-0.278,0.475-0.278,0.807v2.402c0,0.324,0.093,0.588,0.278,0.793s0.425,0.309,0.719,0.309
						S248.761,69.754,248.95,69.549z"/>
					<path fill="#E4DBDA" d="M254.601,70.129c-0.321-0.273-0.481-0.639-0.481-1.096v-0.082c0-0.076,0.039-0.115,0.116-0.115h0.557
						c0.077,0,0.116,0.031,0.116,0.092v0.094c0,0.248,0.091,0.457,0.271,0.627c0.183,0.17,0.42,0.254,0.715,0.254
						c0.277,0,0.502-0.084,0.673-0.254c0.169-0.17,0.255-0.387,0.255-0.65c0-0.201-0.054-0.369-0.163-0.504
						c-0.108-0.135-0.233-0.242-0.377-0.32c-0.142-0.076-0.358-0.178-0.644-0.301c-0.302-0.123-0.551-0.246-0.748-0.365
						s-0.367-0.291-0.511-0.512c-0.144-0.219-0.214-0.5-0.214-0.84c0-0.496,0.152-0.885,0.457-1.172
						c0.307-0.287,0.719-0.43,1.236-0.43c0.525,0,0.943,0.146,1.253,0.441c0.31,0.293,0.464,0.684,0.464,1.172v0.033
						c0,0.078-0.038,0.117-0.116,0.117h-0.533c-0.077,0-0.116-0.031-0.116-0.094v-0.092c0-0.264-0.088-0.479-0.262-0.65
						c-0.173-0.17-0.399-0.254-0.678-0.254c-0.279,0-0.501,0.086-0.667,0.26c-0.167,0.176-0.251,0.389-0.251,0.645
						c0,0.186,0.052,0.342,0.151,0.471c0.102,0.127,0.225,0.23,0.371,0.313c0.148,0.08,0.353,0.18,0.616,0.295
						c0.317,0.141,0.578,0.271,0.782,0.395c0.205,0.125,0.385,0.299,0.54,0.523c0.154,0.225,0.231,0.502,0.231,0.834
						c0,0.48-0.159,0.863-0.476,1.148c-0.317,0.287-0.746,0.43-1.288,0.43C255.35,70.542,254.922,70.405,254.601,70.129z"/>
					<path fill="#E4DBDA" d="M263.656,65.229h-0.881c-0.032,0-0.047,0.016-0.047,0.047v3.549c0,0.355,0.062,0.602,0.186,0.736
						s0.313,0.199,0.569,0.191h0.116c0.076,0,0.114,0.039,0.114,0.117v0.498c0,0.078-0.038,0.117-0.114,0.117h-0.292
						c-0.456,0-0.802-0.1-1.037-0.297c-0.236-0.197-0.354-0.57-0.354-1.119v-3.793c0-0.031-0.015-0.047-0.047-0.047h-0.451
						c-0.078,0-0.116-0.039-0.116-0.117v-0.383c0-0.076,0.038-0.115,0.116-0.115h0.451c0.032,0,0.047-0.016,0.047-0.047v-1.299
						c0-0.078,0.039-0.117,0.116-0.117h0.58c0.077,0,0.116,0.039,0.116,0.117v1.299c0,0.031,0.015,0.047,0.047,0.047h0.881
						c0.077,0,0.117,0.039,0.117,0.115v0.383C263.773,65.19,263.733,65.229,263.656,65.229z"/>
					<path fill="#E4DBDA" d="M267.879,63.395c-0.108-0.115-0.161-0.264-0.161-0.441c0-0.17,0.053-0.311,0.161-0.424
						c0.109-0.111,0.248-0.166,0.418-0.166c0.162,0,0.296,0.055,0.4,0.166c0.104,0.113,0.157,0.254,0.157,0.424
						c0,0.178-0.053,0.326-0.157,0.441s-0.238,0.174-0.4,0.174C268.127,63.569,267.988,63.51,267.879,63.395z M267.879,70.368
						v-5.639c0-0.076,0.039-0.115,0.116-0.115h0.592c0.077,0,0.116,0.039,0.116,0.115v5.639c0,0.078-0.039,0.117-0.116,0.117h-0.592
						C267.918,70.485,267.879,70.446,267.879,70.368z"/>
					<path fill="#E4DBDA" d="M276.366,65.018c0.26,0.326,0.39,0.779,0.39,1.359v3.99c0,0.078-0.039,0.117-0.116,0.117h-0.592
						c-0.077,0-0.116-0.039-0.116-0.117v-3.922c0-0.379-0.082-0.672-0.243-0.881c-0.163-0.209-0.391-0.313-0.686-0.313
						c-0.31,0-0.553,0.111-0.73,0.336c-0.179,0.225-0.268,0.529-0.268,0.916v3.863c0,0.078-0.037,0.117-0.114,0.117h-0.592
						c-0.078,0-0.116-0.039-0.116-0.117v-5.639c0-0.076,0.038-0.115,0.116-0.115h0.592c0.077,0,0.114,0.039,0.114,0.115v0.383
						c0,0.016,0.01,0.025,0.024,0.029c0.016,0.004,0.027-0.002,0.035-0.018c0.285-0.395,0.688-0.592,1.206-0.592
						C275.743,64.532,276.108,64.694,276.366,65.018z"/>
					<path fill="#E4DBDA" d="M283.9,64.614h0.592c0.077,0,0.117,0.039,0.117,0.115v5.639c0,0.828-0.192,1.455-0.574,1.885
						c-0.383,0.43-1.023,0.625-1.92,0.586c-0.079-0.008-0.116-0.051-0.116-0.127v-0.498c0-0.078,0.037-0.117,0.116-0.117
						c0.619,0.016,1.051-0.125,1.298-0.424c0.248-0.297,0.372-0.756,0.372-1.375V69.95c0-0.014-0.005-0.027-0.018-0.035
						c-0.012-0.006-0.025-0.002-0.04,0.012c-0.132,0.193-0.301,0.342-0.505,0.441c-0.205,0.102-0.424,0.15-0.656,0.15
						c-0.486,0-0.871-0.162-1.153-0.486c-0.282-0.326-0.425-0.754-0.425-1.289v-2.447c0-0.541,0.143-0.973,0.425-1.293
						c0.282-0.322,0.667-0.482,1.153-0.482c0.232,0,0.451,0.049,0.656,0.146c0.204,0.096,0.373,0.24,0.505,0.434
						c0.015,0.023,0.028,0.033,0.04,0.029c0.013-0.004,0.018-0.018,0.018-0.041v-0.359C283.785,64.653,283.824,64.614,283.9,64.614z
						 M283.513,69.493c0.182-0.205,0.272-0.471,0.272-0.795v-2.344c0-0.332-0.091-0.602-0.272-0.807
						c-0.183-0.205-0.416-0.309-0.702-0.309c-0.294,0-0.534,0.104-0.72,0.309s-0.277,0.475-0.277,0.807v2.344
						c0,0.324,0.092,0.59,0.277,0.795c0.186,0.203,0.426,0.307,0.72,0.307C283.097,69.799,283.33,69.696,283.513,69.493z"/>
					<path fill="#E4DBDA" d="M288.954,70.252c-0.12-0.133-0.18-0.295-0.18-0.488c0-0.186,0.063-0.346,0.191-0.48
						c0.127-0.137,0.271-0.203,0.435-0.203c0.171,0,0.318,0.066,0.447,0.203c0.127,0.135,0.191,0.295,0.191,0.48
						c0,0.193-0.062,0.355-0.186,0.488c-0.124,0.131-0.274,0.197-0.453,0.197C289.223,70.45,289.073,70.383,288.954,70.252z"/>
				</g>
			</g>
		</g>
	</g>
</g>
<g>
	<g>
		<g>
			<g>
				<path d="M-428.11,548.734c-1.336-1.321-2.004-3.085-2.004-5.292v-16.636c0-2.206,0.668-3.97,2.004-5.291
					c1.335-1.32,3.121-1.981,5.356-1.981s4.029,0.668,5.378,2.004c1.351,1.336,2.026,3.106,2.026,5.312v1.873
					c0,0.292-0.146,0.436-0.436,0.436h-2.222c-0.29,0-0.436-0.145-0.436-0.436v-1.959c0-1.365-0.392-2.461-1.176-3.288
					c-0.783-0.828-1.829-1.241-3.136-1.241c-1.277,0-2.315,0.421-3.113,1.262c-0.799,0.843-1.198,1.932-1.198,3.267v16.724
					c0,1.335,0.399,2.423,1.198,3.266c0.798,0.842,1.836,1.262,3.113,1.262c1.307,0,2.353-0.413,3.136-1.241
					c0.784-0.827,1.176-1.923,1.176-3.287v-5.575c0-0.116-0.058-0.174-0.174-0.174h-3.745c-0.291,0-0.436-0.145-0.436-0.436v-1.829
					c0-0.289,0.145-0.436,0.436-0.436h6.576c0.289,0,0.436,0.146,0.436,0.436v7.969c0,2.208-0.676,3.971-2.026,5.292
					c-1.349,1.321-3.143,1.98-5.378,1.98S-426.775,550.056-428.11,548.734z"/>
				<path d="M-385.345,522.582h-10.104c-0.116,0-0.174,0.059-0.174,0.174v10.8c0,0.117,0.058,0.174,0.174,0.174h6.358
					c0.289,0,0.435,0.146,0.435,0.436v1.873c0,0.29-0.146,0.436-0.435,0.436h-6.358c-0.116,0-0.174,0.058-0.174,0.173v10.845
					c0,0.115,0.058,0.173,0.174,0.173h10.104c0.289,0,0.435,0.146,0.435,0.436v1.829c0,0.292-0.146,0.437-0.435,0.437h-12.935
					c-0.29,0-0.436-0.145-0.436-0.437v-29.612c0-0.29,0.146-0.436,0.436-0.436h12.935c0.289,0,0.435,0.146,0.435,0.436v1.828
					C-384.91,522.438-385.056,522.582-385.345,522.582z"/>
				<path d="M-367.381,548.625c-1.38-1.394-2.069-3.237-2.069-5.531v-15.939c0-2.294,0.689-4.138,2.069-5.531
					c1.379-1.394,3.186-2.09,5.422-2.09c2.265,0,4.094,0.697,5.487,2.09s2.091,3.237,2.091,5.531v15.939
					c0,2.265-0.697,4.101-2.091,5.509s-3.223,2.112-5.487,2.112C-364.195,550.715-366.002,550.019-367.381,548.625z
					 M-358.714,546.688c0.826-0.886,1.24-2.025,1.24-3.419v-16.245c0-1.421-0.414-2.576-1.24-3.461
					c-0.828-0.886-1.909-1.328-3.245-1.328c-1.307,0-2.366,0.442-3.179,1.328c-0.813,0.886-1.221,2.041-1.221,3.461v16.245
					c0,1.394,0.407,2.533,1.221,3.419c0.813,0.885,1.872,1.328,3.179,1.328C-360.623,548.015-359.542,547.573-358.714,546.688z"/>
				<path d="M-337.528,549.931v-29.612c0-0.29,0.146-0.436,0.436-0.436h2.222c0.29,0,0.436,0.146,0.436,0.436v27.175
					c0,0.115,0.058,0.173,0.173,0.173h9.974c0.29,0,0.436,0.146,0.436,0.436v1.829c0,0.292-0.146,0.437-0.436,0.437h-12.804
					C-337.383,550.367-337.528,550.223-337.528,549.931z"/>
				<path d="M-277.778,549.931v-29.612c0-0.29,0.146-0.436,0.436-0.436h2.309c0.232,0,0.393,0.115,0.479,0.348l8.754,21.949
					c0.027,0.086,0.071,0.131,0.13,0.131c0.058,0,0.088-0.045,0.088-0.131v-21.861c0-0.29,0.145-0.436,0.435-0.436h2.178
					c0.29,0,0.436,0.146,0.436,0.436v29.612c0,0.292-0.146,0.437-0.436,0.437h-2.308c-0.233,0-0.393-0.116-0.479-0.349
					l-8.754-21.949c-0.029-0.088-0.072-0.123-0.13-0.109c-0.059,0.015-0.088,0.065-0.088,0.152l0.044,21.817
					c0,0.292-0.146,0.437-0.436,0.437h-2.222C-277.633,550.367-277.778,550.223-277.778,549.931z"/>
				<path d="M-244.985,549.931v-29.612c0-0.29,0.146-0.436,0.436-0.436h2.222c0.29,0,0.436,0.146,0.436,0.436v29.612
					c0,0.292-0.146,0.437-0.436,0.437h-2.222C-244.84,550.367-244.985,550.223-244.985,549.931z"/>
				<path d="M-217.417,524.934c-0.03-0.086-0.06-0.13-0.088-0.13c-0.029,0-0.058,0.043-0.087,0.13l-5.226,25.041
					c-0.03,0.261-0.188,0.393-0.479,0.393h-2.221c-0.146,0-0.255-0.044-0.327-0.132c-0.072-0.086-0.095-0.201-0.064-0.348
					l6.576-29.614c0.058-0.261,0.218-0.391,0.479-0.391h2.613c0.29,0,0.45,0.13,0.479,0.391l6.619,29.614v0.087
					c0,0.261-0.13,0.393-0.391,0.393h-2.266c-0.261,0-0.421-0.132-0.479-0.393L-217.417,524.934z"/>
			</g>
			<g>
				<path d="M-307.631,548.624c-1.38-1.393-2.068-3.237-2.068-5.531v-15.938c0-2.293,0.688-4.138,2.068-5.531
					c1.379-1.395,3.186-2.09,5.422-2.09c2.264,0,4.093,0.696,5.487,2.09c1.394,1.393,2.091,3.237,2.091,5.531v15.938
					c0,2.266-0.697,4.102-2.091,5.51c-1.395,1.409-3.224,2.111-5.487,2.111C-304.445,550.714-306.252,550.019-307.631,548.624z
					 M-298.965,546.687c0.827-0.885,1.241-2.025,1.241-3.418v-16.245c0-1.423-0.414-2.576-1.241-3.462
					c-0.828-0.886-1.909-1.329-3.244-1.329c-1.307,0-2.366,0.443-3.179,1.329c-0.813,0.886-1.221,2.039-1.221,3.462v16.245
					c0,1.393,0.407,2.533,1.221,3.418c0.813,0.886,1.872,1.329,3.179,1.329C-300.874,548.015-299.793,547.572-298.965,546.687z"/>
			</g>
		</g>
	</g>
	<g>
		<g>
			<path fill="#EB5C0C" d="M-391.125,570.081c-1.754,0-3.176,1.453-3.176,3.207c0,1.752,2.228,5.865,3.176,5.865
				s3.175-4.113,3.175-5.865C-387.95,571.534-389.372,570.081-391.125,570.081z M-391.125,574.618c-0.752,0-1.361-0.609-1.361-1.361
				s0.609-1.361,1.361-1.361c0.751,0,1.36,0.609,1.36,1.361S-390.374,574.618-391.125,574.618z"/>
		</g>
		<g>
			<g>
				<path d="M-376.152,571.276h-2.692c-0.03,0-0.046,0.016-0.046,0.045v2.879c0,0.029,0.016,0.045,0.046,0.045h1.694
					c0.077,0,0.116,0.039,0.116,0.117v0.498c0,0.078-0.039,0.117-0.116,0.117h-1.694c-0.03,0-0.046,0.014-0.046,0.045v2.891
					c0,0.031,0.016,0.045,0.046,0.045h2.692c0.077,0,0.115,0.039,0.115,0.117v0.486c0,0.078-0.038,0.117-0.115,0.117h-3.446
					c-0.077,0-0.115-0.039-0.115-0.117v-7.889c0-0.078,0.038-0.115,0.115-0.115h3.446c0.077,0,0.115,0.037,0.115,0.115v0.486
					C-376.037,571.237-376.075,571.276-376.152,571.276z"/>
				<path d="M-371.918,578.562v-7.889c0-0.078,0.039-0.115,0.116-0.115h0.592c0.077,0,0.116,0.037,0.116,0.115v7.889
					c0,0.078-0.039,0.117-0.116,0.117h-0.592C-371.879,578.679-371.918,578.64-371.918,578.562z"/>
				<path d="M-363.732,573.243c0.321,0.352,0.481,0.82,0.481,1.408v3.91c0,0.078-0.039,0.117-0.116,0.117h-0.592
					c-0.077,0-0.116-0.039-0.116-0.117v-0.336c0-0.016-0.005-0.025-0.018-0.029c-0.011-0.004-0.024,0.002-0.04,0.018
					c-0.286,0.371-0.711,0.557-1.276,0.557c-0.425,0-0.794-0.121-1.107-0.365s-0.471-0.676-0.471-1.293
					c0-0.658,0.189-1.141,0.569-1.445c0.379-0.305,0.878-0.459,1.496-0.459h0.801c0.031,0,0.046-0.014,0.046-0.045v-0.453
					c0-0.387-0.087-0.695-0.261-0.928s-0.412-0.35-0.714-0.35c-0.231,0-0.433,0.078-0.603,0.232c-0.17,0.156-0.267,0.352-0.29,0.592
					c-0.008,0.078-0.051,0.117-0.128,0.117l-0.639-0.012c-0.038,0-0.066-0.012-0.086-0.035s-0.025-0.051-0.018-0.082
					c0.038-0.455,0.224-0.824,0.557-1.107c0.332-0.281,0.743-0.424,1.229-0.424C-364.484,572.714-364.053,572.89-363.732,573.243z
					 M-364.417,577.743c0.228-0.205,0.342-0.488,0.342-0.852v-0.975c0-0.031-0.015-0.047-0.046-0.047h-0.813
					c-0.371,0-0.664,0.1-0.881,0.295c-0.217,0.199-0.325,0.49-0.325,0.877c0,0.34,0.083,0.594,0.249,0.76s0.385,0.25,0.655,0.25
					C-364.918,578.052-364.645,577.948-364.417,577.743z"/>
				<path d="M-358.697,578.323c-0.321-0.273-0.482-0.639-0.482-1.096v-0.082c0-0.076,0.039-0.115,0.117-0.115h0.557
					c0.077,0,0.115,0.031,0.115,0.092v0.094c0,0.248,0.092,0.457,0.273,0.627s0.419,0.254,0.713,0.254
					c0.279,0,0.503-0.084,0.673-0.254c0.171-0.17,0.256-0.387,0.256-0.65c0-0.201-0.054-0.369-0.163-0.504
					c-0.107-0.135-0.233-0.242-0.377-0.32c-0.143-0.076-0.357-0.178-0.644-0.301c-0.302-0.123-0.551-0.246-0.749-0.365
					c-0.196-0.119-0.366-0.291-0.51-0.512c-0.144-0.219-0.215-0.5-0.215-0.84c0-0.496,0.152-0.885,0.459-1.172
					c0.305-0.287,0.717-0.43,1.235-0.43c0.526,0,0.943,0.146,1.253,0.441c0.31,0.293,0.464,0.684,0.464,1.172v0.033
					c0,0.078-0.039,0.117-0.116,0.117h-0.533c-0.078,0-0.116-0.031-0.116-0.094v-0.092c0-0.264-0.087-0.479-0.261-0.65
					c-0.174-0.17-0.4-0.254-0.68-0.254c-0.278,0-0.5,0.086-0.667,0.26c-0.166,0.176-0.249,0.389-0.249,0.645
					c0,0.186,0.05,0.342,0.151,0.471c0.101,0.127,0.224,0.23,0.371,0.313c0.146,0.08,0.352,0.18,0.614,0.295
					c0.317,0.141,0.578,0.271,0.783,0.395c0.205,0.125,0.385,0.299,0.539,0.523c0.155,0.225,0.232,0.502,0.232,0.834
					c0,0.48-0.158,0.863-0.475,1.148c-0.318,0.287-0.747,0.43-1.288,0.43C-357.949,578.735-358.377,578.599-358.697,578.323z"/>
				<path d="M-349.643,573.423h-0.881c-0.031,0-0.047,0.016-0.047,0.047v3.549c0,0.355,0.062,0.602,0.186,0.736
					s0.313,0.199,0.568,0.191h0.116c0.077,0,0.116,0.039,0.116,0.117v0.498c0,0.078-0.039,0.117-0.116,0.117h-0.29
					c-0.457,0-0.803-0.1-1.038-0.297c-0.236-0.197-0.354-0.57-0.354-1.119v-3.793c0-0.031-0.015-0.047-0.046-0.047h-0.453
					c-0.077,0-0.115-0.039-0.115-0.117v-0.383c0-0.076,0.038-0.115,0.115-0.115h0.453c0.031,0,0.046-0.016,0.046-0.047v-1.299
					c0-0.078,0.039-0.117,0.116-0.117h0.581c0.076,0,0.115,0.039,0.115,0.117v1.299c0,0.031,0.016,0.047,0.047,0.047h0.881
					c0.077,0,0.117,0.039,0.117,0.115v0.383C-349.525,573.384-349.565,573.423-349.643,573.423z"/>
				<path d="M-345.419,571.589c-0.107-0.115-0.162-0.264-0.162-0.441c0-0.17,0.055-0.311,0.162-0.424
					c0.108-0.111,0.248-0.166,0.418-0.166c0.163,0,0.296,0.055,0.4,0.166c0.104,0.113,0.157,0.254,0.157,0.424
					c0,0.178-0.053,0.326-0.157,0.441s-0.237,0.174-0.4,0.174C-345.171,571.763-345.311,571.704-345.419,571.589z M-345.419,578.562
					v-5.639c0-0.076,0.039-0.115,0.116-0.115h0.592c0.077,0,0.116,0.039,0.116,0.115v5.639c0,0.078-0.039,0.117-0.116,0.117h-0.592
					C-345.38,578.679-345.419,578.64-345.419,578.562z"/>
				<path d="M-339.751,578.282c-0.329-0.324-0.493-0.754-0.493-1.287v-2.506c0-0.525,0.166-0.953,0.498-1.281
					c0.333-0.33,0.771-0.494,1.312-0.494c0.364,0,0.685,0.074,0.963,0.221s0.493,0.342,0.644,0.586
					c0.151,0.244,0.227,0.514,0.227,0.807v0.115c0,0.078-0.038,0.117-0.115,0.117l-0.592,0.023c-0.031,0-0.059-0.01-0.081-0.029
					c-0.023-0.02-0.035-0.045-0.035-0.076v-0.092c0-0.256-0.095-0.479-0.284-0.668s-0.432-0.285-0.726-0.285
					s-0.531,0.104-0.714,0.309c-0.182,0.205-0.271,0.475-0.271,0.807v2.389c0,0.334,0.09,0.602,0.271,0.807
					c0.183,0.205,0.42,0.309,0.714,0.309s0.536-0.096,0.726-0.285s0.284-0.412,0.284-0.666v-0.082c0-0.076,0.039-0.115,0.116-0.115
					l0.592,0.012c0.077,0,0.115,0.037,0.115,0.115v0.127c0,0.465-0.168,0.85-0.505,1.154c-0.336,0.307-0.778,0.459-1.328,0.459
					C-338.983,578.771-339.423,578.608-339.751,578.282z"/>
				<path d="M-326.983,578.562v-7.889c0-0.078,0.039-0.115,0.116-0.115h0.604c0.062,0,0.104,0.029,0.127,0.092l1.3,3.145
					c0.008,0.016,0.02,0.023,0.035,0.023c0.015,0,0.027-0.008,0.034-0.023l1.312-3.145c0.023-0.063,0.065-0.092,0.128-0.092h0.603
					c0.078,0,0.116,0.037,0.116,0.115v7.889c0,0.078-0.038,0.117-0.116,0.117h-0.592c-0.077,0-0.115-0.039-0.115-0.117v-5.939
					c0-0.023-0.008-0.035-0.023-0.035s-0.027,0.008-0.034,0.023l-1.184,2.691c-0.023,0.063-0.059,0.092-0.104,0.092
					c-0.055,0-0.093-0.029-0.116-0.092l-1.207-2.703c-0.008-0.016-0.019-0.023-0.035-0.023c-0.015,0-0.022,0.012-0.022,0.035v5.951
					c0,0.078-0.039,0.117-0.116,0.117h-0.592C-326.944,578.679-326.983,578.64-326.983,578.562z"/>
				<path d="M-315.063,573.243c0.321,0.352,0.481,0.82,0.481,1.408v3.91c0,0.078-0.039,0.117-0.116,0.117h-0.592
					c-0.077,0-0.116-0.039-0.116-0.117v-0.336c0-0.016-0.005-0.025-0.017-0.029s-0.025,0.002-0.041,0.018
					c-0.286,0.371-0.711,0.557-1.275,0.557c-0.426,0-0.795-0.121-1.108-0.365s-0.471-0.676-0.471-1.293
					c0-0.658,0.189-1.141,0.569-1.445c0.379-0.305,0.878-0.459,1.496-0.459h0.801c0.031,0,0.046-0.014,0.046-0.045v-0.453
					c0-0.387-0.087-0.695-0.26-0.928c-0.175-0.232-0.413-0.35-0.715-0.35c-0.231,0-0.433,0.078-0.603,0.232
					c-0.17,0.156-0.267,0.352-0.29,0.592c-0.009,0.078-0.051,0.117-0.128,0.117l-0.639-0.012c-0.038,0-0.066-0.012-0.086-0.035
					s-0.025-0.051-0.018-0.082c0.038-0.455,0.224-0.824,0.557-1.107c0.332-0.281,0.743-0.424,1.229-0.424
					C-315.814,572.714-315.383,572.89-315.063,573.243z M-315.747,577.743c0.228-0.205,0.342-0.488,0.342-0.852v-0.975
					c0-0.031-0.015-0.047-0.046-0.047h-0.813c-0.371,0-0.665,0.1-0.881,0.295c-0.217,0.199-0.325,0.49-0.325,0.877
					c0,0.34,0.083,0.594,0.249,0.76s0.385,0.25,0.655,0.25C-316.248,578.052-315.975,577.948-315.747,577.743z"/>
				<path d="M-306.599,575.776c0,0.551-0.004,0.967-0.011,1.254c-0.017,0.518-0.165,0.938-0.447,1.258
					c-0.282,0.322-0.655,0.482-1.119,0.482c-0.495,0-0.878-0.186-1.149-0.557c-0.016-0.016-0.028-0.02-0.04-0.012
					s-0.018,0.02-0.018,0.035v2.574c0,0.078-0.039,0.117-0.116,0.117h-0.591c-0.078,0-0.117-0.039-0.117-0.117v-7.889
					c0-0.076,0.039-0.115,0.117-0.115h0.591c0.077,0,0.116,0.039,0.116,0.115v0.336c0,0.018,0.006,0.027,0.018,0.035
					s0.024,0.004,0.04-0.012c0.132-0.186,0.296-0.326,0.493-0.422c0.197-0.098,0.416-0.146,0.656-0.146
					c0.455,0,0.824,0.164,1.107,0.494c0.283,0.328,0.436,0.756,0.459,1.281C-306.603,574.774-306.599,575.204-306.599,575.776z
					 M-307.689,577.731c0.186-0.211,0.275-0.492,0.268-0.84v-0.406v-0.742v-1.148c0.008-0.342-0.082-0.619-0.268-0.836
					s-0.429-0.326-0.73-0.326c-0.278,0-0.509,0.107-0.69,0.32c-0.183,0.213-0.272,0.492-0.272,0.842v2.297
					c0,0.348,0.09,0.629,0.272,0.84c0.182,0.213,0.412,0.32,0.69,0.32C-308.118,578.052-307.875,577.944-307.689,577.731z"/>
				<path d="M-293.732,570.558h0.592c0.077,0,0.116,0.037,0.116,0.115v7.889c0,0.078-0.039,0.117-0.116,0.117h-0.592
					c-0.077,0-0.115-0.039-0.115-0.117v-3.539c0-0.031-0.017-0.045-0.047-0.045h-2.065c-0.031,0-0.046,0.014-0.046,0.045v3.539
					c0,0.078-0.039,0.117-0.116,0.117h-0.592c-0.077,0-0.116-0.039-0.116-0.117v-7.889c0-0.078,0.039-0.115,0.116-0.115h0.592
					c0.077,0,0.116,0.037,0.116,0.115v3.527c0,0.029,0.015,0.045,0.046,0.045h2.065c0.03,0,0.047-0.016,0.047-0.045v-3.527
					C-293.848,570.595-293.81,570.558-293.732,570.558z"/>
				<path d="M-288.099,578.282c-0.329-0.324-0.493-0.754-0.493-1.287v-2.506c0-0.525,0.166-0.953,0.498-1.281
					c0.333-0.33,0.774-0.494,1.323-0.494s0.992,0.164,1.329,0.494c0.336,0.328,0.504,0.756,0.504,1.281v2.506
					c0,0.533-0.166,0.963-0.499,1.287c-0.332,0.326-0.776,0.488-1.334,0.488C-287.327,578.771-287.771,578.608-288.099,578.282z
					 M-286.046,577.743c0.189-0.205,0.285-0.469,0.285-0.793v-2.402c0-0.332-0.096-0.602-0.285-0.807s-0.431-0.309-0.725-0.309
					s-0.533,0.104-0.719,0.309s-0.278,0.475-0.278,0.807v2.402c0,0.324,0.093,0.588,0.278,0.793s0.425,0.309,0.719,0.309
					S-286.235,577.948-286.046,577.743z"/>
				<path d="M-280.396,578.323c-0.321-0.273-0.481-0.639-0.481-1.096v-0.082c0-0.076,0.039-0.115,0.116-0.115h0.557
					c0.077,0,0.116,0.031,0.116,0.092v0.094c0,0.248,0.091,0.457,0.271,0.627c0.183,0.17,0.42,0.254,0.715,0.254
					c0.277,0,0.502-0.084,0.673-0.254c0.169-0.17,0.255-0.387,0.255-0.65c0-0.201-0.054-0.369-0.163-0.504
					c-0.108-0.135-0.233-0.242-0.377-0.32c-0.142-0.076-0.358-0.178-0.644-0.301c-0.302-0.123-0.551-0.246-0.748-0.365
					s-0.367-0.291-0.511-0.512c-0.144-0.219-0.214-0.5-0.214-0.84c0-0.496,0.152-0.885,0.457-1.172
					c0.307-0.287,0.719-0.43,1.236-0.43c0.525,0,0.943,0.146,1.253,0.441c0.31,0.293,0.464,0.684,0.464,1.172v0.033
					c0,0.078-0.038,0.117-0.116,0.117h-0.533c-0.077,0-0.116-0.031-0.116-0.094v-0.092c0-0.264-0.088-0.479-0.262-0.65
					c-0.173-0.17-0.399-0.254-0.678-0.254c-0.279,0-0.501,0.086-0.667,0.26c-0.167,0.176-0.251,0.389-0.251,0.645
					c0,0.186,0.052,0.342,0.151,0.471c0.102,0.127,0.225,0.23,0.371,0.313c0.148,0.08,0.353,0.18,0.616,0.295
					c0.317,0.141,0.578,0.271,0.782,0.395c0.205,0.125,0.385,0.299,0.54,0.523c0.154,0.225,0.231,0.502,0.231,0.834
					c0,0.48-0.159,0.863-0.476,1.148c-0.317,0.287-0.746,0.43-1.288,0.43C-279.646,578.735-280.074,578.599-280.396,578.323z"/>
				<path d="M-271.34,573.423h-0.881c-0.032,0-0.047,0.016-0.047,0.047v3.549c0,0.355,0.062,0.602,0.186,0.736
					s0.313,0.199,0.569,0.191h0.116c0.076,0,0.114,0.039,0.114,0.117v0.498c0,0.078-0.038,0.117-0.114,0.117h-0.292
					c-0.456,0-0.802-0.1-1.037-0.297c-0.236-0.197-0.354-0.57-0.354-1.119v-3.793c0-0.031-0.015-0.047-0.047-0.047h-0.451
					c-0.078,0-0.116-0.039-0.116-0.117v-0.383c0-0.076,0.038-0.115,0.116-0.115h0.451c0.032,0,0.047-0.016,0.047-0.047v-1.299
					c0-0.078,0.039-0.117,0.116-0.117h0.58c0.077,0,0.116,0.039,0.116,0.117v1.299c0,0.031,0.015,0.047,0.047,0.047h0.881
					c0.077,0,0.117,0.039,0.117,0.115v0.383C-271.223,573.384-271.263,573.423-271.34,573.423z"/>
				<path d="M-267.117,571.589c-0.108-0.115-0.161-0.264-0.161-0.441c0-0.17,0.053-0.311,0.161-0.424
					c0.109-0.111,0.248-0.166,0.418-0.166c0.162,0,0.296,0.055,0.4,0.166c0.104,0.113,0.157,0.254,0.157,0.424
					c0,0.178-0.053,0.326-0.157,0.441s-0.238,0.174-0.4,0.174C-266.869,571.763-267.008,571.704-267.117,571.589z M-267.117,578.562
					v-5.639c0-0.076,0.039-0.115,0.116-0.115h0.592c0.077,0,0.116,0.039,0.116,0.115v5.639c0,0.078-0.039,0.117-0.116,0.117h-0.592
					C-267.078,578.679-267.117,578.64-267.117,578.562z"/>
				<path d="M-258.63,573.212c0.26,0.326,0.39,0.779,0.39,1.359v3.99c0,0.078-0.039,0.117-0.116,0.117h-0.592
					c-0.077,0-0.116-0.039-0.116-0.117v-3.922c0-0.379-0.082-0.672-0.243-0.881c-0.163-0.209-0.391-0.313-0.686-0.313
					c-0.31,0-0.553,0.111-0.73,0.336c-0.179,0.225-0.268,0.529-0.268,0.916v3.863c0,0.078-0.037,0.117-0.114,0.117h-0.592
					c-0.078,0-0.116-0.039-0.116-0.117v-5.639c0-0.076,0.038-0.115,0.116-0.115h0.592c0.077,0,0.114,0.039,0.114,0.115v0.383
					c0,0.016,0.01,0.025,0.024,0.029c0.016,0.004,0.027-0.002,0.035-0.018c0.285-0.395,0.688-0.592,1.206-0.592
					C-259.253,572.726-258.888,572.888-258.63,573.212z"/>
				<path d="M-251.096,572.808h0.592c0.077,0,0.117,0.039,0.117,0.115v5.639c0,0.828-0.192,1.455-0.574,1.885
					c-0.383,0.43-1.023,0.625-1.92,0.586c-0.079-0.008-0.116-0.051-0.116-0.127v-0.498c0-0.078,0.037-0.117,0.116-0.117
					c0.619,0.016,1.051-0.125,1.298-0.424c0.248-0.297,0.372-0.756,0.372-1.375v-0.348c0-0.014-0.005-0.027-0.018-0.035
					c-0.012-0.006-0.025-0.002-0.04,0.012c-0.132,0.193-0.301,0.342-0.505,0.441c-0.205,0.102-0.424,0.15-0.656,0.15
					c-0.486,0-0.871-0.162-1.153-0.486c-0.282-0.326-0.425-0.754-0.425-1.289v-2.447c0-0.541,0.143-0.973,0.425-1.293
					c0.282-0.322,0.667-0.482,1.153-0.482c0.232,0,0.451,0.049,0.656,0.146c0.204,0.096,0.373,0.24,0.505,0.434
					c0.015,0.023,0.028,0.033,0.04,0.029c0.013-0.004,0.018-0.018,0.018-0.041v-0.359
					C-251.211,572.847-251.172,572.808-251.096,572.808z M-251.483,577.687c0.182-0.205,0.272-0.471,0.272-0.795v-2.344
					c0-0.332-0.091-0.602-0.272-0.807c-0.183-0.205-0.416-0.309-0.702-0.309c-0.294,0-0.534,0.104-0.72,0.309
					s-0.277,0.475-0.277,0.807v2.344c0,0.324,0.092,0.59,0.277,0.795c0.186,0.203,0.426,0.307,0.72,0.307
					C-251.899,577.993-251.666,577.89-251.483,577.687z"/>
				<path d="M-246.042,578.446c-0.12-0.133-0.18-0.295-0.18-0.488c0-0.186,0.063-0.346,0.191-0.48
					c0.127-0.137,0.271-0.203,0.435-0.203c0.171,0,0.318,0.066,0.447,0.203c0.127,0.135,0.191,0.295,0.191,0.48
					c0,0.193-0.062,0.355-0.186,0.488c-0.124,0.131-0.274,0.197-0.453,0.197C-245.773,578.644-245.923,578.577-246.042,578.446z"/>
			</g>
		</g>
	</g>
</g>
<g>
	<g>
		<g>
			<g>
				<path fill="#E4DBDA" d="M61.396,555.608c-1.336-1.321-2.004-3.085-2.004-5.292v-16.637c0-2.205,0.668-3.969,2.004-5.291
					c1.335-1.32,3.121-1.98,5.356-1.98s4.029,0.668,5.378,2.004c1.351,1.336,2.026,3.105,2.026,5.312v1.872
					c0,0.292-0.146,0.437-0.436,0.437h-2.222c-0.29,0-0.436-0.145-0.436-0.437v-1.959c0-1.364-0.392-2.461-1.176-3.287
					c-0.783-0.828-1.829-1.241-3.136-1.241c-1.277,0-2.315,0.421-3.113,1.263c-0.799,0.842-1.198,1.932-1.198,3.266v16.725
					c0,1.335,0.399,2.423,1.198,3.266c0.798,0.842,1.836,1.262,3.113,1.262c1.307,0,2.353-0.412,3.136-1.24
					c0.784-0.827,1.176-1.924,1.176-3.287v-5.575c0-0.116-0.058-0.175-0.174-0.175h-3.745c-0.291,0-0.436-0.145-0.436-0.436v-1.829
					c0-0.289,0.145-0.436,0.436-0.436h6.576c0.289,0,0.436,0.146,0.436,0.436v7.97c0,2.207-0.676,3.971-2.026,5.292
					c-1.349,1.321-3.143,1.98-5.378,1.98S62.73,556.929,61.396,555.608z"/>
				<path fill="#E4DBDA" d="M104.161,529.456H94.058c-0.116,0-0.174,0.06-0.174,0.175v10.8c0,0.116,0.058,0.175,0.174,0.175h6.358
					c0.289,0,0.435,0.146,0.435,0.436v1.873c0,0.289-0.146,0.436-0.435,0.436h-6.358c-0.116,0-0.174,0.057-0.174,0.173v10.845
					c0,0.115,0.058,0.174,0.174,0.174h10.104c0.289,0,0.435,0.145,0.435,0.436v1.828c0,0.292-0.146,0.437-0.435,0.437H91.227
					c-0.29,0-0.436-0.145-0.436-0.437v-29.612c0-0.29,0.146-0.436,0.436-0.436h12.935c0.289,0,0.435,0.146,0.435,0.436v1.828
					C104.596,529.311,104.45,529.456,104.161,529.456z"/>
				<path fill="#E4DBDA" d="M122.125,555.5c-1.38-1.395-2.069-3.238-2.069-5.531v-15.939c0-2.294,0.689-4.138,2.069-5.531
					c1.379-1.394,3.186-2.09,5.422-2.09c2.265,0,4.094,0.696,5.487,2.09s2.091,3.237,2.091,5.531v15.939
					c0,2.265-0.697,4.101-2.091,5.508c-1.394,1.408-3.223,2.112-5.487,2.112C125.311,557.588,123.504,556.892,122.125,555.5z
					 M130.792,553.561c0.826-0.886,1.24-2.024,1.24-3.419v-16.244c0-1.422-0.414-2.576-1.24-3.462
					c-0.828-0.886-1.909-1.328-3.245-1.328c-1.307,0-2.366,0.442-3.179,1.328c-0.813,0.886-1.221,2.04-1.221,3.462v16.244
					c0,1.395,0.407,2.533,1.221,3.419c0.813,0.886,1.872,1.327,3.179,1.327C128.883,554.888,129.964,554.447,130.792,553.561z"/>
				<path fill="#E4DBDA" d="M151.978,556.804v-29.612c0-0.29,0.146-0.436,0.436-0.436h2.222c0.29,0,0.436,0.146,0.436,0.436v27.175
					c0,0.115,0.058,0.174,0.173,0.174h9.974c0.29,0,0.436,0.145,0.436,0.436v1.828c0,0.292-0.146,0.437-0.436,0.437h-12.804
					C152.123,557.241,151.978,557.096,151.978,556.804z"/>
				<path fill="#E4DBDA" d="M211.728,556.804v-29.612c0-0.29,0.146-0.436,0.436-0.436h2.309c0.232,0,0.393,0.115,0.479,0.348
					l8.754,21.949c0.027,0.087,0.071,0.132,0.13,0.132c0.058,0,0.088-0.045,0.088-0.132v-21.861c0-0.29,0.145-0.436,0.435-0.436
					h2.178c0.29,0,0.436,0.146,0.436,0.436v29.612c0,0.292-0.146,0.437-0.436,0.437h-2.308c-0.233,0-0.393-0.116-0.479-0.349
					l-8.754-21.949c-0.029-0.088-0.072-0.123-0.13-0.108c-0.059,0.015-0.088,0.065-0.088,0.152l0.044,21.817
					c0,0.292-0.146,0.437-0.436,0.437h-2.222C211.873,557.241,211.728,557.096,211.728,556.804z"/>
				<path fill="#E4DBDA" d="M244.521,556.804v-29.612c0-0.29,0.146-0.436,0.436-0.436h2.222c0.29,0,0.436,0.146,0.436,0.436v29.612
					c0,0.292-0.146,0.437-0.436,0.437h-2.222C244.666,557.241,244.521,557.096,244.521,556.804z"/>
				<path fill="#E4DBDA" d="M272.089,531.807c-0.03-0.087-0.06-0.13-0.088-0.13c-0.029,0-0.058,0.043-0.087,0.13l-5.226,25.041
					c-0.03,0.261-0.188,0.393-0.479,0.393h-2.221c-0.146,0-0.255-0.044-0.327-0.132c-0.072-0.086-0.095-0.201-0.064-0.348
					l6.576-29.613c0.058-0.262,0.218-0.392,0.479-0.392h2.613c0.29,0,0.45,0.13,0.479,0.392l6.619,29.613v0.087
					c0,0.261-0.13,0.393-0.391,0.393h-2.266c-0.261,0-0.421-0.132-0.479-0.393L272.089,531.807z"/>
			</g>
			<g>
				<path fill="#E4DBDA" d="M181.875,555.498c-1.38-1.393-2.068-3.236-2.068-5.531v-15.938c0-2.294,0.688-4.139,2.068-5.531
					c1.379-1.395,3.186-2.09,5.422-2.09c2.264,0,4.093,0.695,5.487,2.09c1.394,1.393,2.091,3.237,2.091,5.531v15.938
					c0,2.266-0.697,4.102-2.091,5.51c-1.395,1.409-3.224,2.111-5.487,2.111C185.061,557.587,183.254,556.892,181.875,555.498z
					 M190.541,553.56c0.827-0.885,1.241-2.025,1.241-3.418v-16.244c0-1.424-0.414-2.576-1.241-3.463
					c-0.828-0.886-1.909-1.328-3.244-1.328c-1.307,0-2.366,0.442-3.179,1.328c-0.813,0.887-1.221,2.039-1.221,3.463v16.244
					c0,1.393,0.407,2.533,1.221,3.418c0.813,0.886,1.872,1.328,3.179,1.328C188.632,554.888,189.713,554.446,190.541,553.56z"/>
			</g>
		</g>
	</g>
	<g>
		<g>
			<path fill="#E8931D" d="M98.381,576.955c-1.754,0-3.176,1.453-3.176,3.207c0,1.752,2.228,5.865,3.176,5.865
				s3.175-4.113,3.175-5.865C101.556,578.408,100.134,576.955,98.381,576.955z M98.381,581.492c-0.752,0-1.361-0.609-1.361-1.361
				s0.609-1.361,1.361-1.361c0.751,0,1.36,0.609,1.36,1.361S99.132,581.492,98.381,581.492z"/>
		</g>
		<g>
			<g>
				<path fill="#E4DBDA" d="M113.354,578.15h-2.692c-0.03,0-0.046,0.016-0.046,0.045v2.879c0,0.029,0.016,0.045,0.046,0.045h1.694
					c0.077,0,0.116,0.039,0.116,0.117v0.498c0,0.078-0.039,0.117-0.116,0.117h-1.694c-0.03,0-0.046,0.014-0.046,0.045v2.891
					c0,0.031,0.016,0.045,0.046,0.045h2.692c0.077,0,0.115,0.039,0.115,0.117v0.486c0,0.078-0.038,0.117-0.115,0.117h-3.446
					c-0.077,0-0.115-0.039-0.115-0.117v-7.889c0-0.078,0.038-0.115,0.115-0.115h3.446c0.077,0,0.115,0.037,0.115,0.115v0.486
					C113.469,578.111,113.431,578.15,113.354,578.15z"/>
				<path fill="#E4DBDA" d="M117.588,585.435v-7.889c0-0.078,0.039-0.115,0.116-0.115h0.592c0.077,0,0.116,0.037,0.116,0.115v7.889
					c0,0.078-0.039,0.117-0.116,0.117h-0.592C117.627,585.552,117.588,585.513,117.588,585.435z"/>
				<path fill="#E4DBDA" d="M125.773,580.117c0.321,0.352,0.481,0.82,0.481,1.408v3.91c0,0.078-0.039,0.117-0.116,0.117h-0.592
					c-0.077,0-0.116-0.039-0.116-0.117v-0.336c0-0.016-0.005-0.025-0.018-0.029c-0.011-0.004-0.024,0.002-0.04,0.018
					c-0.286,0.371-0.711,0.557-1.276,0.557c-0.425,0-0.794-0.121-1.107-0.365s-0.471-0.676-0.471-1.293
					c0-0.658,0.189-1.141,0.569-1.445c0.379-0.305,0.878-0.459,1.496-0.459h0.801c0.031,0,0.046-0.014,0.046-0.045v-0.453
					c0-0.387-0.087-0.695-0.261-0.928s-0.412-0.35-0.714-0.35c-0.231,0-0.433,0.078-0.603,0.232c-0.17,0.156-0.267,0.352-0.29,0.592
					c-0.008,0.078-0.051,0.117-0.128,0.117l-0.639-0.012c-0.038,0-0.066-0.012-0.086-0.035s-0.025-0.051-0.018-0.082
					c0.038-0.455,0.224-0.824,0.557-1.107c0.332-0.281,0.743-0.424,1.229-0.424C125.021,579.587,125.453,579.763,125.773,580.117z
					 M125.089,584.617c0.228-0.205,0.342-0.488,0.342-0.852v-0.975c0-0.031-0.015-0.047-0.046-0.047h-0.813
					c-0.371,0-0.664,0.1-0.881,0.295c-0.217,0.199-0.325,0.49-0.325,0.877c0,0.34,0.083,0.594,0.249,0.76s0.385,0.25,0.655,0.25
					C124.588,584.925,124.861,584.822,125.089,584.617z"/>
				<path fill="#E4DBDA" d="M130.809,585.197c-0.321-0.273-0.482-0.639-0.482-1.096v-0.082c0-0.076,0.039-0.115,0.117-0.115H131
					c0.077,0,0.115,0.031,0.115,0.092v0.094c0,0.248,0.092,0.457,0.273,0.627s0.419,0.254,0.713,0.254
					c0.279,0,0.503-0.084,0.673-0.254c0.171-0.17,0.256-0.387,0.256-0.65c0-0.201-0.054-0.369-0.163-0.504
					c-0.107-0.135-0.233-0.242-0.377-0.32c-0.143-0.076-0.357-0.178-0.644-0.301c-0.302-0.123-0.551-0.246-0.749-0.365
					c-0.196-0.119-0.366-0.291-0.51-0.512c-0.144-0.219-0.215-0.5-0.215-0.84c0-0.496,0.152-0.885,0.459-1.172
					c0.305-0.287,0.717-0.43,1.235-0.43c0.526,0,0.943,0.146,1.253,0.441c0.31,0.293,0.464,0.684,0.464,1.172v0.033
					c0,0.078-0.039,0.117-0.116,0.117h-0.533c-0.078,0-0.116-0.031-0.116-0.094v-0.092c0-0.264-0.087-0.479-0.261-0.65
					c-0.174-0.17-0.4-0.254-0.68-0.254c-0.278,0-0.5,0.086-0.667,0.26c-0.166,0.176-0.249,0.389-0.249,0.645
					c0,0.186,0.05,0.342,0.151,0.471c0.101,0.127,0.224,0.23,0.371,0.313c0.146,0.08,0.352,0.18,0.614,0.295
					c0.317,0.141,0.578,0.271,0.783,0.395c0.205,0.125,0.385,0.299,0.539,0.523c0.155,0.225,0.232,0.502,0.232,0.834
					c0,0.48-0.158,0.863-0.475,1.148c-0.318,0.287-0.747,0.43-1.288,0.43C131.557,585.609,131.129,585.472,130.809,585.197z"/>
				<path fill="#E4DBDA" d="M139.863,580.296h-0.881c-0.031,0-0.047,0.016-0.047,0.047v3.549c0,0.355,0.062,0.602,0.186,0.736
					s0.313,0.199,0.568,0.191h0.116c0.077,0,0.116,0.039,0.116,0.117v0.498c0,0.078-0.039,0.117-0.116,0.117h-0.29
					c-0.457,0-0.803-0.1-1.038-0.297c-0.236-0.197-0.354-0.57-0.354-1.119v-3.793c0-0.031-0.015-0.047-0.046-0.047h-0.453
					c-0.077,0-0.115-0.039-0.115-0.117v-0.383c0-0.076,0.038-0.115,0.115-0.115h0.453c0.031,0,0.046-0.016,0.046-0.047v-1.299
					c0-0.078,0.039-0.117,0.116-0.117h0.581c0.076,0,0.115,0.039,0.115,0.117v1.299c0,0.031,0.016,0.047,0.047,0.047h0.881
					c0.077,0,0.117,0.039,0.117,0.115v0.383C139.98,580.257,139.94,580.296,139.863,580.296z"/>
				<path fill="#E4DBDA" d="M144.087,578.462c-0.107-0.115-0.162-0.264-0.162-0.441c0-0.17,0.055-0.311,0.162-0.424
					c0.108-0.111,0.248-0.166,0.418-0.166c0.163,0,0.296,0.055,0.4,0.166c0.104,0.113,0.157,0.254,0.157,0.424
					c0,0.178-0.053,0.326-0.157,0.441s-0.237,0.174-0.4,0.174C144.335,578.636,144.195,578.578,144.087,578.462z M144.087,585.435
					v-5.639c0-0.076,0.039-0.115,0.116-0.115h0.592c0.077,0,0.116,0.039,0.116,0.115v5.639c0,0.078-0.039,0.117-0.116,0.117h-0.592
					C144.126,585.552,144.087,585.513,144.087,585.435z"/>
				<path fill="#E4DBDA" d="M149.755,585.156c-0.329-0.324-0.493-0.754-0.493-1.287v-2.506c0-0.525,0.166-0.953,0.498-1.281
					c0.333-0.33,0.771-0.494,1.312-0.494c0.364,0,0.685,0.074,0.963,0.221s0.493,0.342,0.644,0.586
					c0.151,0.244,0.227,0.514,0.227,0.807v0.115c0,0.078-0.038,0.117-0.115,0.117l-0.592,0.023c-0.031,0-0.059-0.01-0.081-0.029
					c-0.023-0.02-0.035-0.045-0.035-0.076v-0.092c0-0.256-0.095-0.479-0.284-0.668s-0.432-0.285-0.726-0.285
					s-0.531,0.104-0.714,0.309c-0.182,0.205-0.271,0.475-0.271,0.807v2.389c0,0.334,0.09,0.602,0.271,0.807
					c0.183,0.205,0.42,0.309,0.714,0.309s0.536-0.096,0.726-0.285s0.284-0.412,0.284-0.666v-0.082c0-0.076,0.039-0.115,0.116-0.115
					l0.592,0.012c0.077,0,0.115,0.037,0.115,0.115v0.127c0,0.465-0.168,0.85-0.505,1.154c-0.336,0.307-0.778,0.459-1.328,0.459
					C150.522,585.644,150.083,585.482,149.755,585.156z"/>
				<path fill="#E4DBDA" d="M162.522,585.435v-7.889c0-0.078,0.039-0.115,0.116-0.115h0.604c0.062,0,0.104,0.029,0.127,0.092
					l1.3,3.145c0.008,0.016,0.02,0.023,0.035,0.023c0.015,0,0.027-0.008,0.034-0.023l1.312-3.145
					c0.023-0.063,0.065-0.092,0.128-0.092h0.603c0.078,0,0.116,0.037,0.116,0.115v7.889c0,0.078-0.038,0.117-0.116,0.117h-0.592
					c-0.077,0-0.115-0.039-0.115-0.117v-5.939c0-0.023-0.008-0.035-0.023-0.035s-0.027,0.008-0.034,0.023l-1.184,2.691
					c-0.023,0.063-0.059,0.092-0.104,0.092c-0.055,0-0.093-0.029-0.116-0.092l-1.207-2.703c-0.008-0.016-0.019-0.023-0.035-0.023
					c-0.015,0-0.022,0.012-0.022,0.035v5.951c0,0.078-0.039,0.117-0.116,0.117h-0.592
					C162.562,585.552,162.522,585.513,162.522,585.435z"/>
				<path fill="#E4DBDA" d="M174.443,580.117c0.321,0.352,0.481,0.82,0.481,1.408v3.91c0,0.078-0.039,0.117-0.116,0.117h-0.592
					c-0.077,0-0.116-0.039-0.116-0.117v-0.336c0-0.016-0.005-0.025-0.017-0.029s-0.025,0.002-0.041,0.018
					c-0.286,0.371-0.711,0.557-1.275,0.557c-0.426,0-0.795-0.121-1.108-0.365s-0.471-0.676-0.471-1.293
					c0-0.658,0.189-1.141,0.569-1.445c0.379-0.305,0.878-0.459,1.496-0.459h0.801c0.031,0,0.046-0.014,0.046-0.045v-0.453
					c0-0.387-0.087-0.695-0.26-0.928c-0.175-0.232-0.413-0.35-0.715-0.35c-0.231,0-0.433,0.078-0.603,0.232
					c-0.17,0.156-0.267,0.352-0.29,0.592c-0.009,0.078-0.051,0.117-0.128,0.117l-0.639-0.012c-0.038,0-0.066-0.012-0.086-0.035
					s-0.025-0.051-0.018-0.082c0.038-0.455,0.224-0.824,0.557-1.107c0.332-0.281,0.743-0.424,1.229-0.424
					C173.691,579.587,174.123,579.763,174.443,580.117z M173.759,584.617c0.228-0.205,0.342-0.488,0.342-0.852v-0.975
					c0-0.031-0.015-0.047-0.046-0.047h-0.813c-0.371,0-0.665,0.1-0.881,0.295c-0.217,0.199-0.325,0.49-0.325,0.877
					c0,0.34,0.083,0.594,0.249,0.76s0.385,0.25,0.655,0.25C173.258,584.925,173.531,584.822,173.759,584.617z"/>
				<path fill="#E4DBDA" d="M182.907,582.65c0,0.551-0.004,0.967-0.011,1.254c-0.017,0.518-0.165,0.938-0.447,1.258
					c-0.282,0.322-0.655,0.482-1.119,0.482c-0.495,0-0.878-0.186-1.149-0.557c-0.016-0.016-0.028-0.02-0.04-0.012
					s-0.018,0.02-0.018,0.035v2.574c0,0.078-0.039,0.117-0.116,0.117h-0.591c-0.078,0-0.117-0.039-0.117-0.117v-7.889
					c0-0.076,0.039-0.115,0.117-0.115h0.591c0.077,0,0.116,0.039,0.116,0.115v0.336c0,0.018,0.006,0.027,0.018,0.035
					s0.024,0.004,0.04-0.012c0.132-0.186,0.296-0.326,0.493-0.422c0.197-0.098,0.416-0.146,0.656-0.146
					c0.455,0,0.824,0.164,1.107,0.494c0.283,0.328,0.436,0.756,0.459,1.281C182.903,581.648,182.907,582.078,182.907,582.65z
					 M181.816,584.605c0.186-0.211,0.275-0.492,0.268-0.84v-0.406v-0.742v-1.148c0.008-0.342-0.082-0.619-0.268-0.836
					s-0.429-0.326-0.73-0.326c-0.278,0-0.509,0.107-0.69,0.32c-0.183,0.213-0.272,0.492-0.272,0.842v2.297
					c0,0.348,0.09,0.629,0.272,0.84c0.182,0.213,0.412,0.32,0.69,0.32C181.388,584.925,181.631,584.818,181.816,584.605z"/>
				<path fill="#E4DBDA" d="M195.773,577.431h0.592c0.077,0,0.116,0.037,0.116,0.115v7.889c0,0.078-0.039,0.117-0.116,0.117h-0.592
					c-0.077,0-0.115-0.039-0.115-0.117v-3.539c0-0.031-0.017-0.045-0.047-0.045h-2.065c-0.031,0-0.046,0.014-0.046,0.045v3.539
					c0,0.078-0.039,0.117-0.116,0.117h-0.592c-0.077,0-0.116-0.039-0.116-0.117v-7.889c0-0.078,0.039-0.115,0.116-0.115h0.592
					c0.077,0,0.116,0.037,0.116,0.115v3.527c0,0.029,0.015,0.045,0.046,0.045h2.065c0.03,0,0.047-0.016,0.047-0.045v-3.527
					C195.658,577.468,195.696,577.431,195.773,577.431z"/>
				<path fill="#E4DBDA" d="M201.407,585.156c-0.329-0.324-0.493-0.754-0.493-1.287v-2.506c0-0.525,0.166-0.953,0.498-1.281
					c0.333-0.33,0.774-0.494,1.323-0.494s0.992,0.164,1.329,0.494c0.336,0.328,0.504,0.756,0.504,1.281v2.506
					c0,0.533-0.166,0.963-0.499,1.287c-0.332,0.326-0.776,0.488-1.334,0.488C202.179,585.644,201.735,585.482,201.407,585.156z
					 M203.46,584.617c0.189-0.205,0.285-0.469,0.285-0.793v-2.402c0-0.332-0.096-0.602-0.285-0.807s-0.431-0.309-0.725-0.309
					s-0.533,0.104-0.719,0.309s-0.278,0.475-0.278,0.807v2.402c0,0.324,0.093,0.588,0.278,0.793s0.425,0.309,0.719,0.309
					S203.271,584.822,203.46,584.617z"/>
				<path fill="#E4DBDA" d="M209.11,585.197c-0.321-0.273-0.481-0.639-0.481-1.096v-0.082c0-0.076,0.039-0.115,0.116-0.115h0.557
					c0.077,0,0.116,0.031,0.116,0.092v0.094c0,0.248,0.091,0.457,0.271,0.627c0.183,0.17,0.42,0.254,0.715,0.254
					c0.277,0,0.502-0.084,0.673-0.254c0.169-0.17,0.255-0.387,0.255-0.65c0-0.201-0.054-0.369-0.163-0.504
					c-0.108-0.135-0.233-0.242-0.377-0.32c-0.142-0.076-0.358-0.178-0.644-0.301c-0.302-0.123-0.551-0.246-0.748-0.365
					s-0.367-0.291-0.511-0.512c-0.144-0.219-0.214-0.5-0.214-0.84c0-0.496,0.152-0.885,0.457-1.172
					c0.307-0.287,0.719-0.43,1.236-0.43c0.525,0,0.943,0.146,1.253,0.441c0.31,0.293,0.464,0.684,0.464,1.172v0.033
					c0,0.078-0.038,0.117-0.116,0.117h-0.533c-0.077,0-0.116-0.031-0.116-0.094v-0.092c0-0.264-0.088-0.479-0.262-0.65
					c-0.173-0.17-0.399-0.254-0.678-0.254c-0.279,0-0.501,0.086-0.667,0.26c-0.167,0.176-0.251,0.389-0.251,0.645
					c0,0.186,0.052,0.342,0.151,0.471c0.102,0.127,0.225,0.23,0.371,0.313c0.148,0.08,0.353,0.18,0.616,0.295
					c0.317,0.141,0.578,0.271,0.782,0.395c0.205,0.125,0.385,0.299,0.54,0.523c0.154,0.225,0.231,0.502,0.231,0.834
					c0,0.48-0.159,0.863-0.476,1.148c-0.317,0.287-0.746,0.43-1.288,0.43C209.859,585.609,209.432,585.472,209.11,585.197z"/>
				<path fill="#E4DBDA" d="M218.166,580.296h-0.881c-0.032,0-0.047,0.016-0.047,0.047v3.549c0,0.355,0.062,0.602,0.186,0.736
					s0.313,0.199,0.569,0.191h0.116c0.076,0,0.114,0.039,0.114,0.117v0.498c0,0.078-0.038,0.117-0.114,0.117h-0.292
					c-0.456,0-0.802-0.1-1.037-0.297c-0.236-0.197-0.354-0.57-0.354-1.119v-3.793c0-0.031-0.015-0.047-0.047-0.047h-0.451
					c-0.078,0-0.116-0.039-0.116-0.117v-0.383c0-0.076,0.038-0.115,0.116-0.115h0.451c0.032,0,0.047-0.016,0.047-0.047v-1.299
					c0-0.078,0.039-0.117,0.116-0.117h0.58c0.077,0,0.116,0.039,0.116,0.117v1.299c0,0.031,0.015,0.047,0.047,0.047h0.881
					c0.077,0,0.117,0.039,0.117,0.115v0.383C218.283,580.257,218.243,580.296,218.166,580.296z"/>
				<path fill="#E4DBDA" d="M222.389,578.462c-0.108-0.115-0.161-0.264-0.161-0.441c0-0.17,0.053-0.311,0.161-0.424
					c0.109-0.111,0.248-0.166,0.418-0.166c0.162,0,0.296,0.055,0.4,0.166c0.104,0.113,0.157,0.254,0.157,0.424
					c0,0.178-0.053,0.326-0.157,0.441s-0.238,0.174-0.4,0.174C222.637,578.636,222.498,578.578,222.389,578.462z M222.389,585.435
					v-5.639c0-0.076,0.039-0.115,0.116-0.115h0.592c0.077,0,0.116,0.039,0.116,0.115v5.639c0,0.078-0.039,0.117-0.116,0.117h-0.592
					C222.428,585.552,222.389,585.513,222.389,585.435z"/>
				<path fill="#E4DBDA" d="M230.876,580.085c0.26,0.326,0.39,0.779,0.39,1.359v3.99c0,0.078-0.039,0.117-0.116,0.117h-0.592
					c-0.077,0-0.116-0.039-0.116-0.117v-3.922c0-0.379-0.082-0.672-0.243-0.881c-0.163-0.209-0.391-0.313-0.686-0.313
					c-0.31,0-0.553,0.111-0.73,0.336c-0.179,0.225-0.268,0.529-0.268,0.916v3.863c0,0.078-0.037,0.117-0.114,0.117h-0.592
					c-0.078,0-0.116-0.039-0.116-0.117v-5.639c0-0.076,0.038-0.115,0.116-0.115h0.592c0.077,0,0.114,0.039,0.114,0.115v0.383
					c0,0.016,0.01,0.025,0.024,0.029c0.016,0.004,0.027-0.002,0.035-0.018c0.285-0.395,0.688-0.592,1.206-0.592
					C230.253,579.599,230.618,579.761,230.876,580.085z"/>
				<path fill="#E4DBDA" d="M238.41,579.681h0.592c0.077,0,0.117,0.039,0.117,0.115v5.639c0,0.828-0.192,1.455-0.574,1.885
					c-0.383,0.43-1.023,0.625-1.92,0.586c-0.079-0.008-0.116-0.051-0.116-0.127v-0.498c0-0.078,0.037-0.117,0.116-0.117
					c0.619,0.016,1.051-0.125,1.298-0.424c0.248-0.297,0.372-0.756,0.372-1.375v-0.348c0-0.014-0.005-0.027-0.018-0.035
					c-0.012-0.006-0.025-0.002-0.04,0.012c-0.132,0.193-0.301,0.342-0.505,0.441c-0.205,0.102-0.424,0.15-0.656,0.15
					c-0.486,0-0.871-0.162-1.153-0.486c-0.282-0.326-0.425-0.754-0.425-1.289v-2.447c0-0.541,0.143-0.973,0.425-1.293
					c0.282-0.322,0.667-0.482,1.153-0.482c0.232,0,0.451,0.049,0.656,0.146c0.204,0.096,0.373,0.24,0.505,0.434
					c0.015,0.023,0.028,0.033,0.04,0.029c0.013-0.004,0.018-0.018,0.018-0.041v-0.359
					C238.295,579.72,238.334,579.681,238.41,579.681z M238.022,584.56c0.182-0.205,0.272-0.471,0.272-0.795v-2.344
					c0-0.332-0.091-0.602-0.272-0.807c-0.183-0.205-0.416-0.309-0.702-0.309c-0.294,0-0.534,0.104-0.72,0.309
					s-0.277,0.475-0.277,0.807v2.344c0,0.324,0.092,0.59,0.277,0.795c0.186,0.203,0.426,0.307,0.72,0.307
					C237.606,584.867,237.84,584.763,238.022,584.56z"/>
				<path fill="#E4DBDA" d="M243.464,585.32c-0.12-0.133-0.18-0.295-0.18-0.488c0-0.186,0.063-0.346,0.191-0.48
					c0.127-0.137,0.271-0.203,0.435-0.203c0.171,0,0.318,0.066,0.447,0.203c0.127,0.135,0.191,0.295,0.191,0.48
					c0,0.193-0.062,0.355-0.186,0.488c-0.124,0.131-0.274,0.197-0.453,0.197C243.732,585.517,243.583,585.451,243.464,585.32z"/>
			</g>
		</g>
	</g>
</g>
<g>
	<g>
		<g>
			<g>
				<path d="M-400.007,702.726c-1.336-1.321-2.004-3.085-2.004-5.292v-16.636c0-2.206,0.668-3.97,2.004-5.291
					c1.335-1.32,3.121-1.981,5.356-1.981s4.029,0.668,5.378,2.004c1.351,1.336,2.026,3.106,2.026,5.312v1.873
					c0,0.292-0.146,0.436-0.436,0.436h-2.222c-0.29,0-0.436-0.145-0.436-0.436v-1.959c0-1.365-0.392-2.461-1.176-3.288
					c-0.783-0.828-1.829-1.241-3.136-1.241c-1.277,0-2.315,0.421-3.113,1.262c-0.799,0.843-1.198,1.932-1.198,3.267v16.724
					c0,1.335,0.399,2.423,1.198,3.266c0.798,0.842,1.836,1.262,3.113,1.262c1.307,0,2.353-0.413,3.136-1.241
					c0.784-0.827,1.176-1.923,1.176-3.287v-5.575c0-0.116-0.058-0.174-0.174-0.174h-3.745c-0.291,0-0.436-0.145-0.436-0.436v-1.829
					c0-0.289,0.145-0.436,0.436-0.436h6.576c0.289,0,0.436,0.146,0.436,0.436v7.969c0,2.208-0.676,3.971-2.026,5.292
					c-1.349,1.321-3.143,1.98-5.378,1.98S-398.672,704.047-400.007,702.726z"/>
				<path d="M-357.241,676.574h-10.104c-0.116,0-0.174,0.059-0.174,0.174v10.8c0,0.117,0.058,0.174,0.174,0.174h6.358
					c0.289,0,0.435,0.146,0.435,0.436v1.873c0,0.29-0.146,0.436-0.435,0.436h-6.358c-0.116,0-0.174,0.058-0.174,0.173v10.845
					c0,0.115,0.058,0.173,0.174,0.173h10.104c0.289,0,0.435,0.146,0.435,0.436v1.829c0,0.292-0.146,0.437-0.435,0.437h-12.935
					c-0.29,0-0.436-0.145-0.436-0.437V674.31c0-0.29,0.146-0.436,0.436-0.436h12.935c0.289,0,0.435,0.146,0.435,0.436v1.828
					C-356.807,676.429-356.952,676.574-357.241,676.574z"/>
				<path d="M-339.277,702.617c-1.38-1.394-2.069-3.237-2.069-5.531v-15.939c0-2.294,0.689-4.138,2.069-5.531
					c1.379-1.394,3.186-2.09,5.422-2.09c2.265,0,4.094,0.697,5.487,2.09s2.091,3.237,2.091,5.531v15.939
					c0,2.265-0.697,4.101-2.091,5.509s-3.223,2.112-5.487,2.112C-336.092,704.707-337.898,704.01-339.277,702.617z M-330.61,700.679
					c0.826-0.886,1.24-2.025,1.24-3.419v-16.245c0-1.421-0.414-2.576-1.24-3.461c-0.828-0.886-1.909-1.328-3.245-1.328
					c-1.307,0-2.366,0.442-3.179,1.328c-0.813,0.886-1.221,2.041-1.221,3.461v16.245c0,1.394,0.407,2.533,1.221,3.419
					c0.813,0.885,1.872,1.328,3.179,1.328C-332.52,702.007-331.438,701.564-330.61,700.679z"/>
				<path d="M-309.425,703.922V674.31c0-0.29,0.146-0.436,0.436-0.436h2.222c0.29,0,0.436,0.146,0.436,0.436v27.175
					c0,0.115,0.058,0.173,0.173,0.173h9.974c0.29,0,0.436,0.146,0.436,0.436v1.829c0,0.292-0.146,0.437-0.436,0.437h-12.804
					C-309.279,704.359-309.425,704.214-309.425,703.922z"/>
				<path d="M-249.675,703.922V674.31c0-0.29,0.146-0.436,0.436-0.436h2.309c0.232,0,0.393,0.115,0.479,0.348l8.754,21.949
					c0.027,0.086,0.071,0.131,0.13,0.131c0.058,0,0.088-0.045,0.088-0.131V674.31c0-0.29,0.145-0.436,0.435-0.436h2.178
					c0.29,0,0.436,0.146,0.436,0.436v29.612c0,0.292-0.146,0.437-0.436,0.437h-2.308c-0.233,0-0.393-0.116-0.479-0.349
					l-8.754-21.949c-0.029-0.088-0.072-0.123-0.13-0.109c-0.059,0.015-0.088,0.065-0.088,0.152l0.044,21.817
					c0,0.292-0.146,0.437-0.436,0.437h-2.222C-249.529,704.359-249.675,704.214-249.675,703.922z"/>
				<path d="M-216.882,703.922V674.31c0-0.29,0.146-0.436,0.436-0.436h2.222c0.29,0,0.436,0.146,0.436,0.436v29.612
					c0,0.292-0.146,0.437-0.436,0.437h-2.222C-216.736,704.359-216.882,704.214-216.882,703.922z"/>
				<path d="M-189.313,678.925c-0.03-0.086-0.06-0.13-0.088-0.13c-0.029,0-0.058,0.043-0.087,0.13l-5.226,25.041
					c-0.03,0.261-0.188,0.393-0.479,0.393h-2.221c-0.146,0-0.255-0.044-0.327-0.132c-0.072-0.086-0.095-0.201-0.064-0.348
					l6.576-29.614c0.058-0.261,0.218-0.391,0.479-0.391h2.613c0.29,0,0.45,0.13,0.479,0.391l6.619,29.614v0.087
					c0,0.261-0.13,0.393-0.391,0.393h-2.266c-0.261,0-0.421-0.132-0.479-0.393L-189.313,678.925z"/>
			</g>
			<g>
				<path d="M-279.527,702.616c-1.38-1.393-2.068-3.237-2.068-5.531v-15.938c0-2.293,0.688-4.138,2.068-5.531
					c1.379-1.395,3.186-2.09,5.422-2.09c2.264,0,4.093,0.696,5.487,2.09c1.394,1.393,2.091,3.237,2.091,5.531v15.938
					c0,2.266-0.697,4.102-2.091,5.51c-1.395,1.409-3.224,2.111-5.487,2.111C-276.342,704.706-278.148,704.01-279.527,702.616z
					 M-270.861,700.678c0.827-0.885,1.241-2.025,1.241-3.418v-16.245c0-1.423-0.414-2.576-1.241-3.462
					c-0.828-0.886-1.909-1.329-3.244-1.329c-1.307,0-2.366,0.443-3.179,1.329c-0.813,0.886-1.221,2.039-1.221,3.462v16.245
					c0,1.393,0.407,2.533,1.221,3.418c0.813,0.886,1.872,1.329,3.179,1.329C-272.771,702.007-271.689,701.564-270.861,700.678z"/>
			</g>
		</g>
	</g>
</g>
<g>
	<g>
		<g>
			<g>
				<path fill="#E4DBDA" d="M89.499,709.6c-1.336-1.321-2.004-3.085-2.004-5.292v-16.637c0-2.205,0.668-3.969,2.004-5.291
					c1.335-1.32,3.121-1.98,5.356-1.98s4.029,0.668,5.378,2.004c1.351,1.336,2.026,3.105,2.026,5.312v1.872
					c0,0.292-0.146,0.437-0.436,0.437h-2.222c-0.29,0-0.436-0.145-0.436-0.437v-1.959c0-1.364-0.392-2.461-1.176-3.287
					c-0.783-0.828-1.829-1.241-3.136-1.241c-1.277,0-2.315,0.421-3.113,1.263c-0.799,0.842-1.198,1.932-1.198,3.266v16.725
					c0,1.335,0.399,2.423,1.198,3.266c0.798,0.842,1.836,1.262,3.113,1.262c1.307,0,2.353-0.412,3.136-1.24
					c0.784-0.827,1.176-1.924,1.176-3.287v-5.575c0-0.116-0.058-0.175-0.174-0.175h-3.745c-0.291,0-0.436-0.145-0.436-0.436v-1.829
					c0-0.289,0.145-0.436,0.436-0.436h6.576c0.289,0,0.436,0.146,0.436,0.436v7.97c0,2.207-0.676,3.971-2.026,5.292
					c-1.349,1.321-3.143,1.98-5.378,1.98S90.834,710.921,89.499,709.6z"/>
				<path fill="#E4DBDA" d="M132.265,683.447h-10.104c-0.116,0-0.174,0.06-0.174,0.175v10.8c0,0.116,0.058,0.175,0.174,0.175h6.358
					c0.289,0,0.435,0.146,0.435,0.436v1.873c0,0.289-0.146,0.436-0.435,0.436h-6.358c-0.116,0-0.174,0.057-0.174,0.173v10.845
					c0,0.115,0.058,0.174,0.174,0.174h10.104c0.289,0,0.435,0.145,0.435,0.436v1.828c0,0.292-0.146,0.437-0.435,0.437H119.33
					c-0.29,0-0.436-0.145-0.436-0.437v-29.612c0-0.29,0.146-0.436,0.436-0.436h12.935c0.289,0,0.435,0.146,0.435,0.436v1.828
					C132.699,683.303,132.554,683.447,132.265,683.447z"/>
				<path fill="#E4DBDA" d="M150.229,709.491c-1.38-1.395-2.069-3.238-2.069-5.531v-15.939c0-2.294,0.689-4.138,2.069-5.531
					c1.379-1.394,3.186-2.09,5.422-2.09c2.265,0,4.094,0.696,5.487,2.09s2.091,3.237,2.091,5.531v15.939
					c0,2.265-0.697,4.101-2.091,5.508c-1.394,1.408-3.223,2.112-5.487,2.112C153.414,711.58,151.607,710.884,150.229,709.491z
					 M158.896,707.553c0.826-0.886,1.24-2.024,1.24-3.419V687.89c0-1.422-0.414-2.576-1.24-3.462
					c-0.828-0.886-1.909-1.328-3.245-1.328c-1.307,0-2.366,0.442-3.179,1.328c-0.813,0.886-1.221,2.04-1.221,3.462v16.244
					c0,1.395,0.407,2.533,1.221,3.419c0.813,0.886,1.872,1.327,3.179,1.327C156.986,708.88,158.067,708.438,158.896,707.553z"/>
				<path fill="#E4DBDA" d="M180.081,710.796v-29.612c0-0.29,0.146-0.436,0.436-0.436h2.222c0.29,0,0.436,0.146,0.436,0.436v27.175
					c0,0.115,0.058,0.174,0.173,0.174h9.974c0.29,0,0.436,0.145,0.436,0.436v1.828c0,0.292-0.146,0.437-0.436,0.437h-12.804
					C180.227,711.232,180.081,711.088,180.081,710.796z"/>
				<path fill="#E4DBDA" d="M239.831,710.796v-29.612c0-0.29,0.146-0.436,0.436-0.436h2.309c0.232,0,0.393,0.115,0.479,0.348
					l8.754,21.949c0.027,0.087,0.071,0.132,0.13,0.132c0.058,0,0.088-0.045,0.088-0.132v-21.861c0-0.29,0.145-0.436,0.435-0.436
					h2.178c0.29,0,0.436,0.146,0.436,0.436v29.612c0,0.292-0.146,0.437-0.436,0.437h-2.308c-0.233,0-0.393-0.116-0.479-0.349
					l-8.754-21.949c-0.029-0.088-0.072-0.123-0.13-0.108c-0.059,0.015-0.088,0.065-0.088,0.152l0.044,21.817
					c0,0.292-0.146,0.437-0.436,0.437h-2.222C239.977,711.232,239.831,711.088,239.831,710.796z"/>
				<path fill="#E4DBDA" d="M272.624,710.796v-29.612c0-0.29,0.146-0.436,0.436-0.436h2.222c0.29,0,0.436,0.146,0.436,0.436v29.612
					c0,0.292-0.146,0.437-0.436,0.437h-2.222C272.77,711.232,272.624,711.088,272.624,710.796z"/>
				<path fill="#E4DBDA" d="M300.192,685.799c-0.03-0.087-0.06-0.13-0.088-0.13c-0.029,0-0.058,0.043-0.087,0.13l-5.226,25.041
					c-0.03,0.261-0.188,0.393-0.479,0.393h-2.221c-0.146,0-0.255-0.044-0.327-0.132c-0.072-0.086-0.095-0.201-0.064-0.348
					l6.576-29.613c0.058-0.262,0.218-0.392,0.479-0.392h2.613c0.29,0,0.45,0.13,0.479,0.392l6.619,29.613v0.087
					c0,0.261-0.13,0.393-0.391,0.393h-2.266c-0.261,0-0.421-0.132-0.479-0.393L300.192,685.799z"/>
			</g>
			<g>
				<path fill="#E4DBDA" d="M209.979,709.489c-1.38-1.393-2.068-3.236-2.068-5.531v-15.938c0-2.294,0.688-4.139,2.068-5.531
					c1.379-1.395,3.186-2.09,5.422-2.09c2.264,0,4.093,0.695,5.487,2.09c1.394,1.393,2.091,3.237,2.091,5.531v15.938
					c0,2.266-0.697,4.102-2.091,5.51c-1.395,1.409-3.224,2.111-5.487,2.111C213.164,711.579,211.357,710.884,209.979,709.489z
					 M218.645,707.552c0.827-0.885,1.241-2.025,1.241-3.418V687.89c0-1.424-0.414-2.576-1.241-3.463
					c-0.828-0.886-1.909-1.328-3.244-1.328c-1.307,0-2.366,0.442-3.179,1.328c-0.813,0.887-1.221,2.039-1.221,3.463v16.244
					c0,1.393,0.407,2.533,1.221,3.418c0.813,0.886,1.872,1.328,3.179,1.328C216.735,708.88,217.816,708.438,218.645,707.552z"/>
			</g>
		</g>
	</g>
</g>
</svg>
