<?xml version="1.0" encoding="utf-8"?>
<!DOCTYPE svg PUBLIC "-//W3C//DTD SVG 1.1//EN" "http://www.w3.org/Graphics/SVG/1.1/DTD/svg11.dtd">
<svg version="1.1" id="レイヤー_1" xmlns="http://www.w3.org/2000/svg" xmlns:xlink="http://www.w3.org/1999/xlink" x="0px"
	 y="0px" width="220.971px" height="31.181px" viewBox="0 0 220.971 31.181" enable-background="new 0 0 220.971 31.181"
	 xml:space="preserve">
<g>
	<g>
		<g>
			<g>
				<path fill="#E4DBDA" d="M2.004,29.2C0.668,27.879,0,26.115,0,23.908V7.271C0,5.066,0.668,3.303,2.004,1.98
					C3.339,0.66,5.125,0,7.36,0s4.029,0.668,5.378,2.004c1.351,1.336,2.026,3.105,2.026,5.312v1.872
					c0,0.292-0.146,0.437-0.436,0.437h-2.222c-0.29,0-0.436-0.145-0.436-0.437V7.229c0-1.364-0.392-2.461-1.176-3.287
					C9.713,3.113,8.667,2.7,7.36,2.7c-1.277,0-2.315,0.421-3.113,1.263C3.448,4.805,3.049,5.895,3.049,7.229v16.725
					c0,1.335,0.399,2.423,1.198,3.266c0.798,0.842,1.836,1.262,3.113,1.262c1.307,0,2.353-0.412,3.136-1.24
					c0.784-0.827,1.176-1.924,1.176-3.287v-5.575c0-0.116-0.058-0.175-0.174-0.175H7.753c-0.291,0-0.436-0.145-0.436-0.436v-1.829
					c0-0.289,0.145-0.436,0.436-0.436h6.576c0.289,0,0.436,0.146,0.436,0.436v7.97c0,2.207-0.676,3.971-2.026,5.292
					c-1.349,1.321-3.143,1.98-5.378,1.98S3.339,30.521,2.004,29.2z"/>
				<path fill="#E4DBDA" d="M44.77,3.048H34.666c-0.116,0-0.174,0.06-0.174,0.175v10.8c0,0.116,0.058,0.175,0.174,0.175h6.358
					c0.289,0,0.435,0.146,0.435,0.436v1.873c0,0.289-0.146,0.436-0.435,0.436h-6.358c-0.116,0-0.174,0.057-0.174,0.173v10.845
					c0,0.115,0.058,0.174,0.174,0.174H44.77c0.289,0,0.435,0.145,0.435,0.436v1.828c0,0.292-0.146,0.437-0.435,0.437H31.835
					c-0.29,0-0.436-0.145-0.436-0.437V0.784c0-0.29,0.146-0.436,0.436-0.436H44.77c0.289,0,0.435,0.146,0.435,0.436v1.828
					C45.204,2.903,45.059,3.048,44.77,3.048z"/>
				<path fill="#E4DBDA" d="M62.733,29.092c-1.38-1.395-2.069-3.238-2.069-5.531V7.621c0-2.294,0.689-4.138,2.069-5.531
					C64.112,0.696,65.919,0,68.155,0c2.265,0,4.094,0.696,5.487,2.09s2.091,3.237,2.091,5.531v15.939
					c0,2.265-0.697,4.101-2.091,5.508c-1.394,1.408-3.223,2.112-5.487,2.112C65.919,31.181,64.112,30.484,62.733,29.092z
					 M71.4,27.153c0.826-0.886,1.24-2.024,1.24-3.419V7.49c0-1.422-0.414-2.576-1.24-3.462C70.572,3.143,69.491,2.7,68.155,2.7
					c-1.307,0-2.366,0.442-3.179,1.328c-0.813,0.886-1.221,2.04-1.221,3.462v16.244c0,1.395,0.407,2.533,1.221,3.419
					c0.813,0.886,1.872,1.327,3.179,1.327C69.491,28.48,70.572,28.039,71.4,27.153z"/>
				<path fill="#E4DBDA" d="M92.586,30.396V0.784c0-0.29,0.146-0.436,0.436-0.436h2.222c0.29,0,0.436,0.146,0.436,0.436v27.175
					c0,0.115,0.058,0.174,0.173,0.174h9.974c0.29,0,0.436,0.145,0.436,0.436v1.828c0,0.292-0.146,0.437-0.436,0.437H93.021
					C92.731,30.833,92.586,30.688,92.586,30.396z"/>
				<path fill="#E4DBDA" d="M152.336,30.396V0.784c0-0.29,0.146-0.436,0.436-0.436h2.309c0.232,0,0.393,0.115,0.479,0.348
					l8.754,21.949c0.027,0.087,0.071,0.132,0.13,0.132c0.058,0,0.088-0.045,0.088-0.132V0.784c0-0.29,0.145-0.436,0.435-0.436h2.178
					c0.29,0,0.436,0.146,0.436,0.436v29.612c0,0.292-0.146,0.437-0.436,0.437h-2.308c-0.233,0-0.393-0.116-0.479-0.349
					l-8.754-21.949c-0.029-0.088-0.072-0.123-0.13-0.108c-0.059,0.015-0.088,0.065-0.088,0.152l0.044,21.817
					c0,0.292-0.146,0.437-0.436,0.437h-2.222C152.481,30.833,152.336,30.688,152.336,30.396z"/>
				<path fill="#E4DBDA" d="M185.129,30.396V0.784c0-0.29,0.146-0.436,0.436-0.436h2.222c0.29,0,0.436,0.146,0.436,0.436v29.612
					c0,0.292-0.146,0.437-0.436,0.437h-2.222C185.274,30.833,185.129,30.688,185.129,30.396z"/>
				<path fill="#E4DBDA" d="M212.697,5.399c-0.03-0.087-0.06-0.13-0.088-0.13c-0.029,0-0.058,0.043-0.087,0.13l-5.226,25.041
					c-0.03,0.261-0.188,0.393-0.479,0.393h-2.221c-0.146,0-0.255-0.044-0.327-0.132c-0.072-0.086-0.095-0.201-0.064-0.348
					l6.576-29.613c0.058-0.262,0.218-0.392,0.479-0.392h2.613c0.29,0,0.45,0.13,0.479,0.392l6.619,29.613v0.087
					c0,0.261-0.13,0.393-0.391,0.393h-2.266c-0.261,0-0.421-0.132-0.479-0.393L212.697,5.399z"/>
			</g>
			<g>
				<path fill="#E4DBDA" d="M122.483,29.09c-1.38-1.393-2.068-3.236-2.068-5.531V7.621c0-2.294,0.688-4.139,2.068-5.531
					c1.379-1.395,3.186-2.09,5.422-2.09c2.264,0,4.093,0.695,5.487,2.09c1.394,1.393,2.091,3.237,2.091,5.531v15.938
					c0,2.266-0.697,4.102-2.091,5.51c-1.395,1.409-3.224,2.111-5.487,2.111C125.669,31.18,123.862,30.484,122.483,29.09z
					 M131.149,27.152c0.827-0.885,1.241-2.025,1.241-3.418V7.49c0-1.424-0.414-2.576-1.241-3.463
					c-0.828-0.886-1.909-1.328-3.244-1.328c-1.307,0-2.366,0.442-3.179,1.328c-0.813,0.887-1.221,2.039-1.221,3.463v16.244
					c0,1.393,0.407,2.533,1.221,3.418c0.813,0.886,1.872,1.328,3.179,1.328C129.24,28.48,130.321,28.038,131.149,27.152z"/>
			</g>
		</g>
	</g>
</g>
</svg>
