<?xml version="1.0" encoding="utf-8"?>
<!DOCTYPE svg PUBLIC "-//W3C//DTD SVG 1.1//EN" "http://www.w3.org/Graphics/SVG/1.1/DTD/svg11.dtd">
<svg version="1.1" id="レイヤー_1" xmlns="http://www.w3.org/2000/svg" xmlns:xlink="http://www.w3.org/1999/xlink" x="0px"
	 y="0px" width="220.971px" height="61.395px" viewBox="0 0 220.971 61.395" enable-background="new 0 0 220.971 61.395"
	 xml:space="preserve">
<g>
	<g>
		<g>
			<g>
				<path d="M2.004,29.201C0.668,27.879,0,26.116,0,23.908V7.272c0-2.206,0.668-3.97,2.004-5.291C3.339,0.661,5.125,0,7.36,0
					s4.029,0.668,5.378,2.004c1.351,1.336,2.026,3.106,2.026,5.312v1.873c0,0.292-0.146,0.436-0.436,0.436h-2.222
					c-0.29,0-0.436-0.145-0.436-0.436V7.229c0-1.365-0.392-2.461-1.176-3.288C9.713,3.114,8.667,2.701,7.36,2.701
					c-1.277,0-2.315,0.421-3.113,1.262C3.448,4.806,3.049,5.895,3.049,7.229v16.724c0,1.335,0.399,2.423,1.198,3.266
					c0.798,0.842,1.836,1.262,3.113,1.262c1.307,0,2.353-0.413,3.136-1.241c0.784-0.827,1.176-1.923,1.176-3.287v-5.575
					c0-0.116-0.058-0.174-0.174-0.174H7.753c-0.291,0-0.436-0.145-0.436-0.436v-1.829c0-0.289,0.145-0.436,0.436-0.436h6.576
					c0.289,0,0.436,0.146,0.436,0.436v7.969c0,2.208-0.676,3.971-2.026,5.292c-1.349,1.321-3.143,1.98-5.378,1.98
					S3.339,30.522,2.004,29.201z"/>
				<path d="M44.77,3.048H34.666c-0.116,0-0.174,0.059-0.174,0.174v10.8c0,0.117,0.058,0.174,0.174,0.174h6.358
					c0.289,0,0.435,0.146,0.435,0.436v1.873c0,0.29-0.146,0.436-0.435,0.436h-6.358c-0.116,0-0.174,0.058-0.174,0.173v10.845
					c0,0.115,0.058,0.173,0.174,0.173H44.77c0.289,0,0.435,0.146,0.435,0.436v1.829c0,0.292-0.146,0.437-0.435,0.437H31.835
					c-0.29,0-0.436-0.145-0.436-0.437V0.785c0-0.29,0.146-0.436,0.436-0.436H44.77c0.289,0,0.435,0.146,0.435,0.436v1.828
					C45.204,2.904,45.059,3.048,44.77,3.048z"/>
				<path d="M62.733,29.092c-1.38-1.394-2.069-3.237-2.069-5.531V7.622c0-2.294,0.689-4.138,2.069-5.531
					C64.112,0.697,65.919,0,68.155,0c2.265,0,4.094,0.697,5.487,2.09s2.091,3.237,2.091,5.531v15.939
					c0,2.265-0.697,4.101-2.091,5.509s-3.223,2.112-5.487,2.112C65.919,31.181,64.112,30.485,62.733,29.092z M71.4,27.154
					c0.826-0.886,1.24-2.025,1.24-3.419V7.49c0-1.421-0.414-2.576-1.24-3.461c-0.828-0.886-1.909-1.328-3.245-1.328
					c-1.307,0-2.366,0.442-3.179,1.328c-0.813,0.886-1.221,2.041-1.221,3.461v16.245c0,1.394,0.407,2.533,1.221,3.419
					c0.813,0.885,1.872,1.328,3.179,1.328C69.491,28.481,70.572,28.039,71.4,27.154z"/>
				<path d="M92.586,30.397V0.785c0-0.29,0.146-0.436,0.436-0.436h2.222c0.29,0,0.436,0.146,0.436,0.436v27.175
					c0,0.115,0.058,0.173,0.173,0.173h9.974c0.29,0,0.436,0.146,0.436,0.436v1.829c0,0.292-0.146,0.437-0.436,0.437H93.021
					C92.731,30.833,92.586,30.689,92.586,30.397z"/>
				<path d="M152.336,30.397V0.785c0-0.29,0.146-0.436,0.436-0.436h2.309c0.232,0,0.393,0.115,0.479,0.348l8.754,21.949
					c0.027,0.086,0.071,0.131,0.13,0.131c0.058,0,0.088-0.045,0.088-0.131V0.785c0-0.29,0.145-0.436,0.435-0.436h2.178
					c0.29,0,0.436,0.146,0.436,0.436v29.612c0,0.292-0.146,0.437-0.436,0.437h-2.308c-0.233,0-0.393-0.116-0.479-0.349
					l-8.754-21.949c-0.029-0.088-0.072-0.123-0.13-0.109c-0.059,0.015-0.088,0.065-0.088,0.152l0.044,21.817
					c0,0.292-0.146,0.437-0.436,0.437h-2.222C152.481,30.833,152.336,30.689,152.336,30.397z"/>
				<path d="M185.129,30.397V0.785c0-0.29,0.146-0.436,0.436-0.436h2.222c0.29,0,0.436,0.146,0.436,0.436v29.612
					c0,0.292-0.146,0.437-0.436,0.437h-2.222C185.274,30.833,185.129,30.689,185.129,30.397z"/>
				<path d="M212.697,5.4c-0.03-0.086-0.06-0.13-0.088-0.13c-0.029,0-0.058,0.043-0.087,0.13l-5.226,25.041
					c-0.03,0.261-0.188,0.393-0.479,0.393h-2.221c-0.146,0-0.255-0.044-0.327-0.132c-0.072-0.086-0.095-0.201-0.064-0.348
					l6.576-29.614c0.058-0.261,0.218-0.391,0.479-0.391h2.613c0.29,0,0.45,0.13,0.479,0.391l6.619,29.614v0.087
					c0,0.261-0.13,0.393-0.391,0.393h-2.266c-0.261,0-0.421-0.132-0.479-0.393L212.697,5.4z"/>
			</g>
			<g>
				<path d="M122.483,29.09c-1.38-1.393-2.068-3.237-2.068-5.531V7.621c0-2.293,0.688-4.138,2.068-5.531
					c1.379-1.395,3.186-2.09,5.422-2.09c2.264,0,4.093,0.696,5.487,2.09c1.394,1.393,2.091,3.237,2.091,5.531V23.56
					c0,2.266-0.697,4.102-2.091,5.51c-1.395,1.409-3.224,2.111-5.487,2.111C125.669,31.18,123.862,30.485,122.483,29.09z
					 M131.149,27.153c0.827-0.885,1.241-2.025,1.241-3.418V7.49c0-1.423-0.414-2.576-1.241-3.462
					c-0.828-0.886-1.909-1.329-3.244-1.329c-1.307,0-2.366,0.443-3.179,1.329c-0.813,0.886-1.221,2.039-1.221,3.462v16.245
					c0,1.393,0.407,2.533,1.221,3.418c0.813,0.886,1.872,1.329,3.179,1.329C129.24,28.481,130.321,28.039,131.149,27.153z"/>
			</g>
		</g>
	</g>
	<g>
		<g>
			<path fill="#EB5C0C" d="M38.989,50.547c-1.754,0-3.176,1.453-3.176,3.207c0,1.752,2.228,5.865,3.176,5.865
				s3.175-4.113,3.175-5.865C42.164,52,40.742,50.547,38.989,50.547z M38.989,55.084c-0.752,0-1.361-0.609-1.361-1.361
				s0.609-1.361,1.361-1.361c0.751,0,1.36,0.609,1.36,1.361S39.74,55.084,38.989,55.084z"/>
		</g>
		<g>
			<g>
				<path d="M53.962,51.743H51.27c-0.03,0-0.046,0.016-0.046,0.045v2.879c0,0.029,0.016,0.045,0.046,0.045h1.694
					c0.077,0,0.116,0.039,0.116,0.117v0.498c0,0.078-0.039,0.117-0.116,0.117H51.27c-0.03,0-0.046,0.014-0.046,0.045v2.891
					c0,0.031,0.016,0.045,0.046,0.045h2.692c0.077,0,0.115,0.039,0.115,0.117v0.486c0,0.078-0.038,0.117-0.115,0.117h-3.446
					c-0.077,0-0.115-0.039-0.115-0.117v-7.889c0-0.078,0.038-0.115,0.115-0.115h3.446c0.077,0,0.115,0.037,0.115,0.115v0.486
					C54.077,51.704,54.039,51.743,53.962,51.743z"/>
				<path d="M58.196,59.028v-7.889c0-0.078,0.039-0.115,0.116-0.115h0.592c0.077,0,0.116,0.037,0.116,0.115v7.889
					c0,0.078-0.039,0.117-0.116,0.117h-0.592C58.235,59.145,58.196,59.106,58.196,59.028z"/>
				<path d="M66.382,53.709c0.321,0.352,0.481,0.82,0.481,1.408v3.91c0,0.078-0.039,0.117-0.116,0.117h-0.592
					c-0.077,0-0.116-0.039-0.116-0.117v-0.336c0-0.016-0.005-0.025-0.018-0.029c-0.011-0.004-0.024,0.002-0.04,0.018
					c-0.286,0.371-0.711,0.557-1.276,0.557c-0.425,0-0.794-0.121-1.107-0.365s-0.471-0.676-0.471-1.293
					c0-0.658,0.189-1.141,0.569-1.445c0.379-0.305,0.878-0.459,1.496-0.459h0.801c0.031,0,0.046-0.014,0.046-0.045v-0.453
					c0-0.387-0.087-0.695-0.261-0.928s-0.412-0.35-0.714-0.35c-0.231,0-0.433,0.078-0.603,0.232c-0.17,0.156-0.267,0.352-0.29,0.592
					c-0.008,0.078-0.051,0.117-0.128,0.117l-0.639-0.012c-0.038,0-0.066-0.012-0.086-0.035s-0.025-0.051-0.018-0.082
					c0.038-0.455,0.224-0.824,0.557-1.107c0.332-0.281,0.743-0.424,1.229-0.424C65.63,53.18,66.062,53.356,66.382,53.709z
					 M65.697,58.209c0.228-0.205,0.342-0.488,0.342-0.852v-0.975c0-0.031-0.015-0.047-0.046-0.047h-0.813
					c-0.371,0-0.664,0.1-0.881,0.295c-0.217,0.199-0.325,0.49-0.325,0.877c0,0.34,0.083,0.594,0.249,0.76s0.385,0.25,0.655,0.25
					C65.196,58.518,65.47,58.415,65.697,58.209z"/>
				<path d="M71.417,58.79c-0.321-0.273-0.482-0.639-0.482-1.096v-0.082c0-0.076,0.039-0.115,0.117-0.115h0.557
					c0.077,0,0.115,0.031,0.115,0.092v0.094c0,0.248,0.092,0.457,0.273,0.627s0.419,0.254,0.713,0.254
					c0.279,0,0.503-0.084,0.673-0.254c0.171-0.17,0.256-0.387,0.256-0.65c0-0.201-0.054-0.369-0.163-0.504
					c-0.107-0.135-0.233-0.242-0.377-0.32c-0.143-0.076-0.357-0.178-0.644-0.301c-0.302-0.123-0.551-0.246-0.749-0.365
					c-0.196-0.119-0.366-0.291-0.51-0.512c-0.144-0.219-0.215-0.5-0.215-0.84c0-0.496,0.152-0.885,0.459-1.172
					c0.305-0.287,0.717-0.43,1.235-0.43c0.526,0,0.943,0.146,1.253,0.441c0.31,0.293,0.464,0.684,0.464,1.172v0.033
					c0,0.078-0.039,0.117-0.116,0.117h-0.533c-0.078,0-0.116-0.031-0.116-0.094v-0.092c0-0.264-0.087-0.479-0.261-0.65
					c-0.174-0.17-0.4-0.254-0.68-0.254c-0.278,0-0.5,0.086-0.667,0.26c-0.166,0.176-0.249,0.389-0.249,0.645
					c0,0.186,0.05,0.342,0.151,0.471c0.101,0.127,0.224,0.23,0.371,0.313c0.146,0.08,0.352,0.18,0.614,0.295
					c0.317,0.141,0.578,0.271,0.783,0.395c0.205,0.125,0.385,0.299,0.539,0.523c0.155,0.225,0.232,0.502,0.232,0.834
					c0,0.48-0.158,0.863-0.475,1.148c-0.318,0.287-0.747,0.43-1.288,0.43C72.165,59.202,71.737,59.065,71.417,58.79z"/>
				<path d="M80.472,53.889h-0.881c-0.031,0-0.047,0.016-0.047,0.047v3.549c0,0.355,0.062,0.602,0.186,0.736
					s0.313,0.199,0.568,0.191h0.116c0.077,0,0.116,0.039,0.116,0.117v0.498c0,0.078-0.039,0.117-0.116,0.117h-0.29
					c-0.457,0-0.803-0.1-1.038-0.297c-0.236-0.197-0.354-0.57-0.354-1.119v-3.793c0-0.031-0.015-0.047-0.046-0.047h-0.453
					c-0.077,0-0.115-0.039-0.115-0.117v-0.383c0-0.076,0.038-0.115,0.115-0.115h0.453c0.031,0,0.046-0.016,0.046-0.047v-1.299
					c0-0.078,0.039-0.117,0.116-0.117h0.581c0.076,0,0.115,0.039,0.115,0.117v1.299c0,0.031,0.016,0.047,0.047,0.047h0.881
					c0.077,0,0.117,0.039,0.117,0.115v0.383C80.589,53.85,80.549,53.889,80.472,53.889z"/>
				<path d="M84.695,52.055c-0.107-0.115-0.162-0.264-0.162-0.441c0-0.17,0.055-0.311,0.162-0.424
					c0.108-0.111,0.248-0.166,0.418-0.166c0.163,0,0.296,0.055,0.4,0.166c0.104,0.113,0.157,0.254,0.157,0.424
					c0,0.178-0.053,0.326-0.157,0.441s-0.237,0.174-0.4,0.174C84.943,52.229,84.804,52.17,84.695,52.055z M84.695,59.028v-5.639
					c0-0.076,0.039-0.115,0.116-0.115h0.592c0.077,0,0.116,0.039,0.116,0.115v5.639c0,0.078-0.039,0.117-0.116,0.117h-0.592
					C84.734,59.145,84.695,59.106,84.695,59.028z"/>
				<path d="M90.363,58.749c-0.329-0.324-0.493-0.754-0.493-1.287v-2.506c0-0.525,0.166-0.953,0.498-1.281
					c0.333-0.33,0.771-0.494,1.312-0.494c0.364,0,0.685,0.074,0.963,0.221s0.493,0.342,0.644,0.586
					c0.151,0.244,0.227,0.514,0.227,0.807v0.115c0,0.078-0.038,0.117-0.115,0.117l-0.592,0.023c-0.031,0-0.059-0.01-0.081-0.029
					c-0.023-0.02-0.035-0.045-0.035-0.076v-0.092c0-0.256-0.095-0.479-0.284-0.668s-0.432-0.285-0.726-0.285
					s-0.531,0.104-0.714,0.309c-0.182,0.205-0.271,0.475-0.271,0.807v2.389c0,0.334,0.09,0.602,0.271,0.807
					c0.183,0.205,0.42,0.309,0.714,0.309s0.536-0.096,0.726-0.285s0.284-0.412,0.284-0.666v-0.082c0-0.076,0.039-0.115,0.116-0.115
					l0.592,0.012c0.077,0,0.115,0.037,0.115,0.115v0.127c0,0.465-0.168,0.85-0.505,1.154c-0.336,0.307-0.778,0.459-1.328,0.459
					C91.131,59.237,90.691,59.075,90.363,58.749z"/>
				<path d="M103.131,59.028v-7.889c0-0.078,0.039-0.115,0.116-0.115h0.604c0.062,0,0.104,0.029,0.127,0.092l1.3,3.145
					c0.008,0.016,0.02,0.023,0.035,0.023c0.015,0,0.027-0.008,0.034-0.023l1.312-3.145c0.023-0.063,0.065-0.092,0.128-0.092h0.603
					c0.078,0,0.116,0.037,0.116,0.115v7.889c0,0.078-0.038,0.117-0.116,0.117h-0.592c-0.077,0-0.115-0.039-0.115-0.117v-5.939
					c0-0.023-0.008-0.035-0.023-0.035s-0.027,0.008-0.034,0.023l-1.184,2.691c-0.023,0.063-0.059,0.092-0.104,0.092
					c-0.055,0-0.093-0.029-0.116-0.092l-1.207-2.703c-0.008-0.016-0.019-0.023-0.035-0.023c-0.015,0-0.022,0.012-0.022,0.035v5.951
					c0,0.078-0.039,0.117-0.116,0.117h-0.592C103.17,59.145,103.131,59.106,103.131,59.028z"/>
				<path d="M115.052,53.709c0.321,0.352,0.481,0.82,0.481,1.408v3.91c0,0.078-0.039,0.117-0.116,0.117h-0.592
					c-0.077,0-0.116-0.039-0.116-0.117v-0.336c0-0.016-0.005-0.025-0.017-0.029s-0.025,0.002-0.041,0.018
					c-0.286,0.371-0.711,0.557-1.275,0.557c-0.426,0-0.795-0.121-1.108-0.365s-0.471-0.676-0.471-1.293
					c0-0.658,0.189-1.141,0.569-1.445c0.379-0.305,0.878-0.459,1.496-0.459h0.801c0.031,0,0.046-0.014,0.046-0.045v-0.453
					c0-0.387-0.087-0.695-0.26-0.928c-0.175-0.232-0.413-0.35-0.715-0.35c-0.231,0-0.433,0.078-0.603,0.232
					c-0.17,0.156-0.267,0.352-0.29,0.592c-0.009,0.078-0.051,0.117-0.128,0.117l-0.639-0.012c-0.038,0-0.066-0.012-0.086-0.035
					s-0.025-0.051-0.018-0.082c0.038-0.455,0.224-0.824,0.557-1.107c0.332-0.281,0.743-0.424,1.229-0.424
					C114.3,53.18,114.731,53.356,115.052,53.709z M114.367,58.209c0.228-0.205,0.342-0.488,0.342-0.852v-0.975
					c0-0.031-0.015-0.047-0.046-0.047h-0.813c-0.371,0-0.665,0.1-0.881,0.295c-0.217,0.199-0.325,0.49-0.325,0.877
					c0,0.34,0.083,0.594,0.249,0.76s0.385,0.25,0.655,0.25C113.866,58.518,114.14,58.415,114.367,58.209z"/>
				<path d="M123.516,56.243c0,0.551-0.004,0.967-0.011,1.254c-0.017,0.518-0.165,0.938-0.447,1.258
					c-0.282,0.322-0.655,0.482-1.119,0.482c-0.495,0-0.878-0.186-1.149-0.557c-0.016-0.016-0.028-0.02-0.04-0.012
					s-0.018,0.02-0.018,0.035v2.574c0,0.078-0.039,0.117-0.116,0.117h-0.591c-0.078,0-0.117-0.039-0.117-0.117v-7.889
					c0-0.076,0.039-0.115,0.117-0.115h0.591c0.077,0,0.116,0.039,0.116,0.115v0.336c0,0.018,0.006,0.027,0.018,0.035
					s0.024,0.004,0.04-0.012c0.132-0.186,0.296-0.326,0.493-0.422c0.197-0.098,0.416-0.146,0.656-0.146
					c0.455,0,0.824,0.164,1.107,0.494c0.283,0.328,0.436,0.756,0.459,1.281C123.512,55.241,123.516,55.67,123.516,56.243z
					 M122.425,58.198c0.186-0.211,0.275-0.492,0.268-0.84v-0.406v-0.742v-1.148c0.008-0.342-0.082-0.619-0.268-0.836
					s-0.429-0.326-0.73-0.326c-0.278,0-0.509,0.107-0.69,0.32c-0.183,0.213-0.272,0.492-0.272,0.842v2.297
					c0,0.348,0.09,0.629,0.272,0.84c0.182,0.213,0.412,0.32,0.69,0.32C121.996,58.518,122.239,58.411,122.425,58.198z"/>
				<path d="M136.382,51.024h0.592c0.077,0,0.116,0.037,0.116,0.115v7.889c0,0.078-0.039,0.117-0.116,0.117h-0.592
					c-0.077,0-0.115-0.039-0.115-0.117v-3.539c0-0.031-0.017-0.045-0.047-0.045h-2.065c-0.031,0-0.046,0.014-0.046,0.045v3.539
					c0,0.078-0.039,0.117-0.116,0.117H133.4c-0.077,0-0.116-0.039-0.116-0.117v-7.889c0-0.078,0.039-0.115,0.116-0.115h0.592
					c0.077,0,0.116,0.037,0.116,0.115v3.527c0,0.029,0.015,0.045,0.046,0.045h2.065c0.03,0,0.047-0.016,0.047-0.045v-3.527
					C136.267,51.061,136.305,51.024,136.382,51.024z"/>
				<path d="M142.016,58.749c-0.329-0.324-0.493-0.754-0.493-1.287v-2.506c0-0.525,0.166-0.953,0.498-1.281
					c0.333-0.33,0.774-0.494,1.323-0.494s0.992,0.164,1.329,0.494c0.336,0.328,0.504,0.756,0.504,1.281v2.506
					c0,0.533-0.166,0.963-0.499,1.287c-0.332,0.326-0.776,0.488-1.334,0.488C142.787,59.237,142.344,59.075,142.016,58.749z
					 M144.068,58.209c0.189-0.205,0.285-0.469,0.285-0.793v-2.402c0-0.332-0.096-0.602-0.285-0.807s-0.431-0.309-0.725-0.309
					s-0.533,0.104-0.719,0.309s-0.278,0.475-0.278,0.807v2.402c0,0.324,0.093,0.588,0.278,0.793s0.425,0.309,0.719,0.309
					S143.879,58.415,144.068,58.209z"/>
				<path d="M149.719,58.79c-0.321-0.273-0.481-0.639-0.481-1.096v-0.082c0-0.076,0.039-0.115,0.116-0.115h0.557
					c0.077,0,0.116,0.031,0.116,0.092v0.094c0,0.248,0.091,0.457,0.271,0.627c0.183,0.17,0.42,0.254,0.715,0.254
					c0.277,0,0.502-0.084,0.673-0.254c0.169-0.17,0.255-0.387,0.255-0.65c0-0.201-0.054-0.369-0.163-0.504
					c-0.108-0.135-0.233-0.242-0.377-0.32c-0.142-0.076-0.358-0.178-0.644-0.301c-0.302-0.123-0.551-0.246-0.748-0.365
					s-0.367-0.291-0.511-0.512c-0.144-0.219-0.214-0.5-0.214-0.84c0-0.496,0.152-0.885,0.457-1.172
					c0.307-0.287,0.719-0.43,1.236-0.43c0.525,0,0.943,0.146,1.253,0.441c0.31,0.293,0.464,0.684,0.464,1.172v0.033
					c0,0.078-0.038,0.117-0.116,0.117h-0.533c-0.077,0-0.116-0.031-0.116-0.094v-0.092c0-0.264-0.088-0.479-0.262-0.65
					c-0.173-0.17-0.399-0.254-0.678-0.254c-0.279,0-0.501,0.086-0.667,0.26c-0.167,0.176-0.251,0.389-0.251,0.645
					c0,0.186,0.052,0.342,0.151,0.471c0.102,0.127,0.225,0.23,0.371,0.313c0.148,0.08,0.353,0.18,0.616,0.295
					c0.317,0.141,0.578,0.271,0.782,0.395c0.205,0.125,0.385,0.299,0.54,0.523c0.154,0.225,0.231,0.502,0.231,0.834
					c0,0.48-0.159,0.863-0.476,1.148c-0.317,0.287-0.746,0.43-1.288,0.43C150.468,59.202,150.04,59.065,149.719,58.79z"/>
				<path d="M158.774,53.889h-0.881c-0.032,0-0.047,0.016-0.047,0.047v3.549c0,0.355,0.062,0.602,0.186,0.736
					s0.313,0.199,0.569,0.191h0.116c0.076,0,0.114,0.039,0.114,0.117v0.498c0,0.078-0.038,0.117-0.114,0.117h-0.292
					c-0.456,0-0.802-0.1-1.037-0.297c-0.236-0.197-0.354-0.57-0.354-1.119v-3.793c0-0.031-0.015-0.047-0.047-0.047h-0.451
					c-0.078,0-0.116-0.039-0.116-0.117v-0.383c0-0.076,0.038-0.115,0.116-0.115h0.451c0.032,0,0.047-0.016,0.047-0.047v-1.299
					c0-0.078,0.039-0.117,0.116-0.117h0.58c0.077,0,0.116,0.039,0.116,0.117v1.299c0,0.031,0.015,0.047,0.047,0.047h0.881
					c0.077,0,0.117,0.039,0.117,0.115v0.383C158.892,53.85,158.852,53.889,158.774,53.889z"/>
				<path d="M162.997,52.055c-0.108-0.115-0.161-0.264-0.161-0.441c0-0.17,0.053-0.311,0.161-0.424
					c0.109-0.111,0.248-0.166,0.418-0.166c0.162,0,0.296,0.055,0.4,0.166c0.104,0.113,0.157,0.254,0.157,0.424
					c0,0.178-0.053,0.326-0.157,0.441s-0.238,0.174-0.4,0.174C163.245,52.229,163.106,52.17,162.997,52.055z M162.997,59.028v-5.639
					c0-0.076,0.039-0.115,0.116-0.115h0.592c0.077,0,0.116,0.039,0.116,0.115v5.639c0,0.078-0.039,0.117-0.116,0.117h-0.592
					C163.036,59.145,162.997,59.106,162.997,59.028z"/>
				<path d="M171.484,53.678c0.26,0.326,0.39,0.779,0.39,1.359v3.99c0,0.078-0.039,0.117-0.116,0.117h-0.592
					c-0.077,0-0.116-0.039-0.116-0.117v-3.922c0-0.379-0.082-0.672-0.243-0.881c-0.163-0.209-0.391-0.313-0.686-0.313
					c-0.31,0-0.553,0.111-0.73,0.336c-0.179,0.225-0.268,0.529-0.268,0.916v3.863c0,0.078-0.037,0.117-0.114,0.117h-0.592
					c-0.078,0-0.116-0.039-0.116-0.117v-5.639c0-0.076,0.038-0.115,0.116-0.115h0.592c0.077,0,0.114,0.039,0.114,0.115v0.383
					c0,0.016,0.01,0.025,0.024,0.029c0.016,0.004,0.027-0.002,0.035-0.018c0.285-0.395,0.688-0.592,1.206-0.592
					C170.861,53.192,171.227,53.354,171.484,53.678z"/>
				<path d="M179.019,53.274h0.592c0.077,0,0.117,0.039,0.117,0.115v5.639c0,0.828-0.192,1.455-0.574,1.885
					c-0.383,0.43-1.023,0.625-1.92,0.586c-0.079-0.008-0.116-0.051-0.116-0.127v-0.498c0-0.078,0.037-0.117,0.116-0.117
					c0.619,0.016,1.051-0.125,1.298-0.424c0.248-0.297,0.372-0.756,0.372-1.375V58.61c0-0.014-0.005-0.027-0.018-0.035
					c-0.012-0.006-0.025-0.002-0.04,0.012c-0.132,0.193-0.301,0.342-0.505,0.441c-0.205,0.102-0.424,0.15-0.656,0.15
					c-0.486,0-0.871-0.162-1.153-0.486c-0.282-0.326-0.425-0.754-0.425-1.289v-2.447c0-0.541,0.143-0.973,0.425-1.293
					c0.282-0.322,0.667-0.482,1.153-0.482c0.232,0,0.451,0.049,0.656,0.146c0.204,0.096,0.373,0.24,0.505,0.434
					c0.015,0.023,0.028,0.033,0.04,0.029c0.013-0.004,0.018-0.018,0.018-0.041v-0.359C178.903,53.313,178.942,53.274,179.019,53.274
					z M178.631,58.153c0.182-0.205,0.272-0.471,0.272-0.795v-2.344c0-0.332-0.091-0.602-0.272-0.807
					c-0.183-0.205-0.416-0.309-0.702-0.309c-0.294,0-0.534,0.104-0.72,0.309s-0.277,0.475-0.277,0.807v2.344
					c0,0.324,0.092,0.59,0.277,0.795c0.186,0.203,0.426,0.307,0.72,0.307C178.215,58.459,178.448,58.356,178.631,58.153z"/>
				<path d="M184.072,58.913c-0.12-0.133-0.18-0.295-0.18-0.488c0-0.186,0.063-0.346,0.191-0.48
					c0.127-0.137,0.271-0.203,0.435-0.203c0.171,0,0.318,0.066,0.447,0.203c0.127,0.135,0.191,0.295,0.191,0.48
					c0,0.193-0.062,0.355-0.186,0.488c-0.124,0.131-0.274,0.197-0.453,0.197C184.341,59.11,184.191,59.043,184.072,58.913z"/>
			</g>
		</g>
	</g>
</g>
<g>
	<g>
		<g>
			<g>
				<path fill="#E4DBDA" d="M491.51,36.074c-1.336-1.321-2.004-3.085-2.004-5.292V14.146c0-2.205,0.668-3.969,2.004-5.291
					c1.335-1.32,3.121-1.98,5.356-1.98s4.029,0.668,5.378,2.004c1.351,1.336,2.026,3.105,2.026,5.312v1.872
					c0,0.292-0.146,0.437-0.436,0.437h-2.222c-0.29,0-0.436-0.145-0.436-0.437v-1.959c0-1.364-0.392-2.461-1.176-3.287
					c-0.783-0.828-1.829-1.241-3.136-1.241c-1.277,0-2.315,0.421-3.113,1.263c-0.799,0.842-1.198,1.932-1.198,3.266v16.725
					c0,1.335,0.399,2.423,1.198,3.266c0.798,0.842,1.836,1.262,3.113,1.262c1.307,0,2.353-0.412,3.136-1.24
					c0.784-0.827,1.176-1.924,1.176-3.287v-5.575c0-0.116-0.058-0.175-0.174-0.175h-3.745c-0.291,0-0.436-0.145-0.436-0.436v-1.829
					c0-0.289,0.145-0.436,0.436-0.436h6.576c0.289,0,0.436,0.146,0.436,0.436v7.97c0,2.207-0.676,3.971-2.026,5.292
					c-1.349,1.321-3.143,1.98-5.378,1.98S492.845,37.396,491.51,36.074z"/>
				<path fill="#E4DBDA" d="M534.275,9.922h-10.104c-0.116,0-0.174,0.06-0.174,0.175v10.8c0,0.116,0.058,0.175,0.174,0.175h6.358
					c0.289,0,0.435,0.146,0.435,0.436v1.873c0,0.289-0.146,0.436-0.435,0.436h-6.358c-0.116,0-0.174,0.057-0.174,0.173v10.845
					c0,0.115,0.058,0.174,0.174,0.174h10.104c0.289,0,0.435,0.145,0.435,0.436v1.828c0,0.292-0.146,0.437-0.435,0.437h-12.935
					c-0.29,0-0.436-0.145-0.436-0.437V7.658c0-0.29,0.146-0.436,0.436-0.436h12.935c0.289,0,0.435,0.146,0.435,0.436v1.828
					C534.71,9.777,534.564,9.922,534.275,9.922z"/>
				<path fill="#E4DBDA" d="M552.239,35.966c-1.38-1.395-2.069-3.238-2.069-5.531V14.495c0-2.294,0.689-4.138,2.069-5.531
					c1.379-1.394,3.186-2.09,5.422-2.09c2.265,0,4.094,0.696,5.487,2.09s2.091,3.237,2.091,5.531v15.939
					c0,2.265-0.697,4.101-2.091,5.508c-1.394,1.408-3.223,2.112-5.487,2.112C555.425,38.055,553.618,37.358,552.239,35.966z
					 M560.906,34.027c0.826-0.886,1.24-2.024,1.24-3.419V14.364c0-1.422-0.414-2.576-1.24-3.462
					c-0.828-0.886-1.909-1.328-3.245-1.328c-1.307,0-2.366,0.442-3.179,1.328c-0.813,0.886-1.221,2.04-1.221,3.462v16.244
					c0,1.395,0.407,2.533,1.221,3.419c0.813,0.886,1.872,1.327,3.179,1.327C558.997,35.354,560.078,34.913,560.906,34.027z"/>
				<path fill="#E4DBDA" d="M582.092,37.271V7.658c0-0.29,0.146-0.436,0.436-0.436h2.222c0.29,0,0.436,0.146,0.436,0.436v27.175
					c0,0.115,0.058,0.174,0.173,0.174h9.974c0.29,0,0.436,0.145,0.436,0.436v1.828c0,0.292-0.146,0.437-0.436,0.437h-12.804
					C582.237,37.707,582.092,37.563,582.092,37.271z"/>
				<path fill="#E4DBDA" d="M641.842,37.271V7.658c0-0.29,0.146-0.436,0.436-0.436h2.309c0.232,0,0.393,0.115,0.479,0.348
					l8.754,21.949c0.027,0.087,0.071,0.132,0.13,0.132c0.058,0,0.088-0.045,0.088-0.132V7.658c0-0.29,0.145-0.436,0.435-0.436h2.178
					c0.29,0,0.436,0.146,0.436,0.436v29.612c0,0.292-0.146,0.437-0.436,0.437h-2.308c-0.233,0-0.393-0.116-0.479-0.349
					l-8.754-21.949c-0.029-0.088-0.072-0.123-0.13-0.108c-0.059,0.015-0.088,0.065-0.088,0.152l0.044,21.817
					c0,0.292-0.146,0.437-0.436,0.437h-2.222C641.987,37.707,641.842,37.563,641.842,37.271z"/>
				<path fill="#E4DBDA" d="M674.635,37.271V7.658c0-0.29,0.146-0.436,0.436-0.436h2.222c0.29,0,0.436,0.146,0.436,0.436v29.612
					c0,0.292-0.146,0.437-0.436,0.437h-2.222C674.78,37.707,674.635,37.563,674.635,37.271z"/>
				<path fill="#E4DBDA" d="M702.203,12.273c-0.03-0.087-0.06-0.13-0.088-0.13c-0.029,0-0.058,0.043-0.087,0.13l-5.226,25.041
					c-0.03,0.261-0.188,0.393-0.479,0.393h-2.221c-0.146,0-0.255-0.044-0.327-0.132c-0.072-0.086-0.095-0.201-0.064-0.348
					l6.576-29.613c0.058-0.262,0.218-0.392,0.479-0.392h2.613c0.29,0,0.45,0.13,0.479,0.392l6.619,29.613v0.087
					c0,0.261-0.13,0.393-0.391,0.393h-2.266c-0.261,0-0.421-0.132-0.479-0.393L702.203,12.273z"/>
			</g>
			<g>
				<path fill="#E4DBDA" d="M611.989,35.964c-1.38-1.393-2.068-3.236-2.068-5.531V14.495c0-2.294,0.688-4.139,2.068-5.531
					c1.379-1.395,3.186-2.09,5.422-2.09c2.264,0,4.093,0.695,5.487,2.09c1.394,1.393,2.091,3.237,2.091,5.531v15.938
					c0,2.266-0.697,4.102-2.091,5.51c-1.395,1.409-3.224,2.111-5.487,2.111C615.175,38.054,613.368,37.358,611.989,35.964z
					 M620.655,34.026c0.827-0.885,1.241-2.025,1.241-3.418V14.364c0-1.424-0.414-2.576-1.241-3.463
					c-0.828-0.886-1.909-1.328-3.244-1.328c-1.307,0-2.366,0.442-3.179,1.328c-0.813,0.887-1.221,2.039-1.221,3.463v16.244
					c0,1.393,0.407,2.533,1.221,3.418c0.813,0.886,1.872,1.328,3.179,1.328C618.746,35.354,619.827,34.912,620.655,34.026z"/>
			</g>
		</g>
	</g>
	<g>
		<g>
			<path fill="#E8931D" d="M528.495,57.421c-1.754,0-3.176,1.453-3.176,3.207c0,1.752,2.228,5.865,3.176,5.865
				s3.175-4.113,3.175-5.865C531.67,58.874,530.248,57.421,528.495,57.421z M528.495,61.958c-0.752,0-1.361-0.609-1.361-1.361
				s0.609-1.361,1.361-1.361c0.751,0,1.36,0.609,1.36,1.361S529.246,61.958,528.495,61.958z"/>
		</g>
		<g>
			<g>
				<path fill="#E4DBDA" d="M543.468,58.616h-2.692c-0.03,0-0.046,0.016-0.046,0.045v2.879c0,0.029,0.016,0.045,0.046,0.045h1.694
					c0.077,0,0.116,0.039,0.116,0.117V62.2c0,0.078-0.039,0.117-0.116,0.117h-1.694c-0.03,0-0.046,0.014-0.046,0.045v2.891
					c0,0.031,0.016,0.045,0.046,0.045h2.692c0.077,0,0.115,0.039,0.115,0.117v0.486c0,0.078-0.038,0.117-0.115,0.117h-3.446
					c-0.077,0-0.115-0.039-0.115-0.117v-7.889c0-0.078,0.038-0.115,0.115-0.115h3.446c0.077,0,0.115,0.037,0.115,0.115v0.486
					C543.583,58.577,543.545,58.616,543.468,58.616z"/>
				<path fill="#E4DBDA" d="M547.702,65.901v-7.889c0-0.078,0.039-0.115,0.116-0.115h0.592c0.077,0,0.116,0.037,0.116,0.115v7.889
					c0,0.078-0.039,0.117-0.116,0.117h-0.592C547.741,66.019,547.702,65.979,547.702,65.901z"/>
				<path fill="#E4DBDA" d="M555.888,60.583c0.321,0.352,0.481,0.82,0.481,1.408v3.91c0,0.078-0.039,0.117-0.116,0.117h-0.592
					c-0.077,0-0.116-0.039-0.116-0.117v-0.336c0-0.016-0.005-0.025-0.018-0.029c-0.011-0.004-0.024,0.002-0.04,0.018
					c-0.286,0.371-0.711,0.557-1.276,0.557c-0.425,0-0.794-0.121-1.107-0.365s-0.471-0.676-0.471-1.293
					c0-0.658,0.189-1.141,0.569-1.445c0.379-0.305,0.878-0.459,1.496-0.459h0.801c0.031,0,0.046-0.014,0.046-0.045V62.05
					c0-0.387-0.087-0.695-0.261-0.928s-0.412-0.35-0.714-0.35c-0.231,0-0.433,0.078-0.603,0.232c-0.17,0.156-0.267,0.352-0.29,0.592
					c-0.008,0.078-0.051,0.117-0.128,0.117l-0.639-0.012c-0.038,0-0.066-0.012-0.086-0.035s-0.025-0.051-0.018-0.082
					c0.038-0.455,0.224-0.824,0.557-1.107c0.332-0.281,0.743-0.424,1.229-0.424C555.136,60.054,555.567,60.229,555.888,60.583z
					 M555.203,65.083c0.228-0.205,0.342-0.488,0.342-0.852v-0.975c0-0.031-0.015-0.047-0.046-0.047h-0.813
					c-0.371,0-0.664,0.1-0.881,0.295c-0.217,0.199-0.325,0.49-0.325,0.877c0,0.34,0.083,0.594,0.249,0.76s0.385,0.25,0.655,0.25
					C554.702,65.392,554.976,65.288,555.203,65.083z"/>
				<path fill="#E4DBDA" d="M560.923,65.663c-0.321-0.273-0.482-0.639-0.482-1.096v-0.082c0-0.076,0.039-0.115,0.117-0.115h0.557
					c0.077,0,0.115,0.031,0.115,0.092v0.094c0,0.248,0.092,0.457,0.273,0.627s0.419,0.254,0.713,0.254
					c0.279,0,0.503-0.084,0.673-0.254c0.171-0.17,0.256-0.387,0.256-0.65c0-0.201-0.054-0.369-0.163-0.504
					c-0.107-0.135-0.233-0.242-0.377-0.32c-0.143-0.076-0.357-0.178-0.644-0.301c-0.302-0.123-0.551-0.246-0.749-0.365
					c-0.196-0.119-0.366-0.291-0.51-0.512c-0.144-0.219-0.215-0.5-0.215-0.84c0-0.496,0.152-0.885,0.459-1.172
					c0.305-0.287,0.717-0.43,1.235-0.43c0.526,0,0.943,0.146,1.253,0.441c0.31,0.293,0.464,0.684,0.464,1.172v0.033
					c0,0.078-0.039,0.117-0.116,0.117h-0.533c-0.078,0-0.116-0.031-0.116-0.094v-0.092c0-0.264-0.087-0.479-0.261-0.65
					c-0.174-0.17-0.4-0.254-0.68-0.254c-0.278,0-0.5,0.086-0.667,0.26c-0.166,0.176-0.249,0.389-0.249,0.645
					c0,0.186,0.05,0.342,0.151,0.471c0.101,0.127,0.224,0.23,0.371,0.313c0.146,0.08,0.352,0.18,0.614,0.295
					c0.317,0.141,0.578,0.271,0.783,0.395c0.205,0.125,0.385,0.299,0.539,0.523c0.155,0.225,0.232,0.502,0.232,0.834
					c0,0.48-0.158,0.863-0.475,1.148c-0.318,0.287-0.747,0.43-1.288,0.43C561.671,66.075,561.243,65.938,560.923,65.663z"/>
				<path fill="#E4DBDA" d="M569.978,60.763h-0.881c-0.031,0-0.047,0.016-0.047,0.047v3.549c0,0.355,0.062,0.602,0.186,0.736
					s0.313,0.199,0.568,0.191h0.116c0.077,0,0.116,0.039,0.116,0.117v0.498c0,0.078-0.039,0.117-0.116,0.117h-0.29
					c-0.457,0-0.803-0.1-1.038-0.297c-0.236-0.197-0.354-0.57-0.354-1.119V60.81c0-0.031-0.015-0.047-0.046-0.047h-0.453
					c-0.077,0-0.115-0.039-0.115-0.117v-0.383c0-0.076,0.038-0.115,0.115-0.115h0.453c0.031,0,0.046-0.016,0.046-0.047v-1.299
					c0-0.078,0.039-0.117,0.116-0.117h0.581c0.076,0,0.115,0.039,0.115,0.117v1.299c0,0.031,0.016,0.047,0.047,0.047h0.881
					c0.077,0,0.117,0.039,0.117,0.115v0.383C570.095,60.724,570.055,60.763,569.978,60.763z"/>
				<path fill="#E4DBDA" d="M574.201,58.929c-0.107-0.115-0.162-0.264-0.162-0.441c0-0.17,0.055-0.311,0.162-0.424
					c0.108-0.111,0.248-0.166,0.418-0.166c0.163,0,0.296,0.055,0.4,0.166c0.104,0.113,0.157,0.254,0.157,0.424
					c0,0.178-0.053,0.326-0.157,0.441s-0.237,0.174-0.4,0.174C574.449,59.103,574.31,59.044,574.201,58.929z M574.201,65.901v-5.639
					c0-0.076,0.039-0.115,0.116-0.115h0.592c0.077,0,0.116,0.039,0.116,0.115v5.639c0,0.078-0.039,0.117-0.116,0.117h-0.592
					C574.24,66.019,574.201,65.979,574.201,65.901z"/>
				<path fill="#E4DBDA" d="M579.869,65.622c-0.329-0.324-0.493-0.754-0.493-1.287v-2.506c0-0.525,0.166-0.953,0.498-1.281
					c0.333-0.33,0.771-0.494,1.312-0.494c0.364,0,0.685,0.074,0.963,0.221s0.493,0.342,0.644,0.586
					c0.151,0.244,0.227,0.514,0.227,0.807v0.115c0,0.078-0.038,0.117-0.115,0.117l-0.592,0.023c-0.031,0-0.059-0.01-0.081-0.029
					c-0.023-0.02-0.035-0.045-0.035-0.076v-0.092c0-0.256-0.095-0.479-0.284-0.668s-0.432-0.285-0.726-0.285
					s-0.531,0.104-0.714,0.309c-0.182,0.205-0.271,0.475-0.271,0.807v2.389c0,0.334,0.09,0.602,0.271,0.807
					c0.183,0.205,0.42,0.309,0.714,0.309s0.536-0.096,0.726-0.285s0.284-0.412,0.284-0.666v-0.082c0-0.076,0.039-0.115,0.116-0.115
					l0.592,0.012c0.077,0,0.115,0.037,0.115,0.115v0.127c0,0.465-0.168,0.85-0.505,1.154c-0.336,0.307-0.778,0.459-1.328,0.459
					C580.637,66.11,580.197,65.948,579.869,65.622z"/>
				<path fill="#E4DBDA" d="M592.637,65.901v-7.889c0-0.078,0.039-0.115,0.116-0.115h0.604c0.062,0,0.104,0.029,0.127,0.092
					l1.3,3.145c0.008,0.016,0.02,0.023,0.035,0.023c0.015,0,0.027-0.008,0.034-0.023l1.312-3.145
					c0.023-0.063,0.065-0.092,0.128-0.092h0.603c0.078,0,0.116,0.037,0.116,0.115v7.889c0,0.078-0.038,0.117-0.116,0.117h-0.592
					c-0.077,0-0.115-0.039-0.115-0.117v-5.939c0-0.023-0.008-0.035-0.023-0.035s-0.027,0.008-0.034,0.023l-1.184,2.691
					c-0.023,0.063-0.059,0.092-0.104,0.092c-0.055,0-0.093-0.029-0.116-0.092l-1.207-2.703c-0.008-0.016-0.019-0.023-0.035-0.023
					c-0.015,0-0.022,0.012-0.022,0.035v5.951c0,0.078-0.039,0.117-0.116,0.117h-0.592C592.676,66.019,592.637,65.979,592.637,65.901
					z"/>
				<path fill="#E4DBDA" d="M604.558,60.583c0.321,0.352,0.481,0.82,0.481,1.408v3.91c0,0.078-0.039,0.117-0.116,0.117h-0.592
					c-0.077,0-0.116-0.039-0.116-0.117v-0.336c0-0.016-0.005-0.025-0.017-0.029s-0.025,0.002-0.041,0.018
					c-0.286,0.371-0.711,0.557-1.275,0.557c-0.426,0-0.795-0.121-1.108-0.365s-0.471-0.676-0.471-1.293
					c0-0.658,0.189-1.141,0.569-1.445c0.379-0.305,0.878-0.459,1.496-0.459h0.801c0.031,0,0.046-0.014,0.046-0.045V62.05
					c0-0.387-0.087-0.695-0.26-0.928c-0.175-0.232-0.413-0.35-0.715-0.35c-0.231,0-0.433,0.078-0.603,0.232
					c-0.17,0.156-0.267,0.352-0.29,0.592c-0.009,0.078-0.051,0.117-0.128,0.117l-0.639-0.012c-0.038,0-0.066-0.012-0.086-0.035
					s-0.025-0.051-0.018-0.082c0.038-0.455,0.224-0.824,0.557-1.107c0.332-0.281,0.743-0.424,1.229-0.424
					C603.806,60.054,604.237,60.229,604.558,60.583z M603.873,65.083c0.228-0.205,0.342-0.488,0.342-0.852v-0.975
					c0-0.031-0.015-0.047-0.046-0.047h-0.813c-0.371,0-0.665,0.1-0.881,0.295c-0.217,0.199-0.325,0.49-0.325,0.877
					c0,0.34,0.083,0.594,0.249,0.76s0.385,0.25,0.655,0.25C603.372,65.392,603.646,65.288,603.873,65.083z"/>
				<path fill="#E4DBDA" d="M613.021,63.116c0,0.551-0.004,0.967-0.011,1.254c-0.017,0.518-0.165,0.938-0.447,1.258
					c-0.282,0.322-0.655,0.482-1.119,0.482c-0.495,0-0.878-0.186-1.149-0.557c-0.016-0.016-0.028-0.02-0.04-0.012
					s-0.018,0.02-0.018,0.035v2.574c0,0.078-0.039,0.117-0.116,0.117h-0.591c-0.078,0-0.117-0.039-0.117-0.117v-7.889
					c0-0.076,0.039-0.115,0.117-0.115h0.591c0.077,0,0.116,0.039,0.116,0.115v0.336c0,0.018,0.006,0.027,0.018,0.035
					s0.024,0.004,0.04-0.012c0.132-0.186,0.296-0.326,0.493-0.422c0.197-0.098,0.416-0.146,0.656-0.146
					c0.455,0,0.824,0.164,1.107,0.494c0.283,0.328,0.436,0.756,0.459,1.281C613.018,62.114,613.021,62.544,613.021,63.116z
					 M611.931,65.071c0.186-0.211,0.275-0.492,0.268-0.84v-0.406v-0.742v-1.148c0.008-0.342-0.082-0.619-0.268-0.836
					s-0.429-0.326-0.73-0.326c-0.278,0-0.509,0.107-0.69,0.32c-0.183,0.213-0.272,0.492-0.272,0.842v2.297
					c0,0.348,0.09,0.629,0.272,0.84c0.182,0.213,0.412,0.32,0.69,0.32C611.502,65.392,611.745,65.284,611.931,65.071z"/>
				<path fill="#E4DBDA" d="M625.888,57.897h0.592c0.077,0,0.116,0.037,0.116,0.115v7.889c0,0.078-0.039,0.117-0.116,0.117h-0.592
					c-0.077,0-0.115-0.039-0.115-0.117v-3.539c0-0.031-0.017-0.045-0.047-0.045h-2.065c-0.031,0-0.046,0.014-0.046,0.045v3.539
					c0,0.078-0.039,0.117-0.116,0.117h-0.592c-0.077,0-0.116-0.039-0.116-0.117v-7.889c0-0.078,0.039-0.115,0.116-0.115h0.592
					c0.077,0,0.116,0.037,0.116,0.115v3.527c0,0.029,0.015,0.045,0.046,0.045h2.065c0.03,0,0.047-0.016,0.047-0.045v-3.527
					C625.772,57.935,625.811,57.897,625.888,57.897z"/>
				<path fill="#E4DBDA" d="M631.521,65.622c-0.329-0.324-0.493-0.754-0.493-1.287v-2.506c0-0.525,0.166-0.953,0.498-1.281
					c0.333-0.33,0.774-0.494,1.323-0.494s0.992,0.164,1.329,0.494c0.336,0.328,0.504,0.756,0.504,1.281v2.506
					c0,0.533-0.166,0.963-0.499,1.287c-0.332,0.326-0.776,0.488-1.334,0.488C632.293,66.11,631.85,65.948,631.521,65.622z
					 M633.574,65.083c0.189-0.205,0.285-0.469,0.285-0.793v-2.402c0-0.332-0.096-0.602-0.285-0.807s-0.431-0.309-0.725-0.309
					s-0.533,0.104-0.719,0.309s-0.278,0.475-0.278,0.807v2.402c0,0.324,0.093,0.588,0.278,0.793s0.425,0.309,0.719,0.309
					S633.385,65.288,633.574,65.083z"/>
				<path fill="#E4DBDA" d="M639.225,65.663c-0.321-0.273-0.481-0.639-0.481-1.096v-0.082c0-0.076,0.039-0.115,0.116-0.115h0.557
					c0.077,0,0.116,0.031,0.116,0.092v0.094c0,0.248,0.091,0.457,0.271,0.627c0.183,0.17,0.42,0.254,0.715,0.254
					c0.277,0,0.502-0.084,0.673-0.254c0.169-0.17,0.255-0.387,0.255-0.65c0-0.201-0.054-0.369-0.163-0.504
					c-0.108-0.135-0.233-0.242-0.377-0.32c-0.142-0.076-0.358-0.178-0.644-0.301c-0.302-0.123-0.551-0.246-0.748-0.365
					s-0.367-0.291-0.511-0.512c-0.144-0.219-0.214-0.5-0.214-0.84c0-0.496,0.152-0.885,0.457-1.172
					c0.307-0.287,0.719-0.43,1.236-0.43c0.525,0,0.943,0.146,1.253,0.441c0.31,0.293,0.464,0.684,0.464,1.172v0.033
					c0,0.078-0.038,0.117-0.116,0.117h-0.533c-0.077,0-0.116-0.031-0.116-0.094v-0.092c0-0.264-0.088-0.479-0.262-0.65
					c-0.173-0.17-0.399-0.254-0.678-0.254c-0.279,0-0.501,0.086-0.667,0.26c-0.167,0.176-0.251,0.389-0.251,0.645
					c0,0.186,0.052,0.342,0.151,0.471c0.102,0.127,0.225,0.23,0.371,0.313c0.148,0.08,0.353,0.18,0.616,0.295
					c0.317,0.141,0.578,0.271,0.782,0.395c0.205,0.125,0.385,0.299,0.54,0.523c0.154,0.225,0.231,0.502,0.231,0.834
					c0,0.48-0.159,0.863-0.476,1.148c-0.317,0.287-0.746,0.43-1.288,0.43C639.974,66.075,639.546,65.938,639.225,65.663z"/>
				<path fill="#E4DBDA" d="M648.28,60.763h-0.881c-0.032,0-0.047,0.016-0.047,0.047v3.549c0,0.355,0.062,0.602,0.186,0.736
					s0.313,0.199,0.569,0.191h0.116c0.076,0,0.114,0.039,0.114,0.117v0.498c0,0.078-0.038,0.117-0.114,0.117h-0.292
					c-0.456,0-0.802-0.1-1.037-0.297c-0.236-0.197-0.354-0.57-0.354-1.119V60.81c0-0.031-0.015-0.047-0.047-0.047h-0.451
					c-0.078,0-0.116-0.039-0.116-0.117v-0.383c0-0.076,0.038-0.115,0.116-0.115h0.451c0.032,0,0.047-0.016,0.047-0.047v-1.299
					c0-0.078,0.039-0.117,0.116-0.117h0.58c0.077,0,0.116,0.039,0.116,0.117v1.299c0,0.031,0.015,0.047,0.047,0.047h0.881
					c0.077,0,0.117,0.039,0.117,0.115v0.383C648.397,60.724,648.357,60.763,648.28,60.763z"/>
				<path fill="#E4DBDA" d="M652.503,58.929c-0.108-0.115-0.161-0.264-0.161-0.441c0-0.17,0.053-0.311,0.161-0.424
					c0.109-0.111,0.248-0.166,0.418-0.166c0.162,0,0.296,0.055,0.4,0.166c0.104,0.113,0.157,0.254,0.157,0.424
					c0,0.178-0.053,0.326-0.157,0.441s-0.238,0.174-0.4,0.174C652.751,59.103,652.612,59.044,652.503,58.929z M652.503,65.901
					v-5.639c0-0.076,0.039-0.115,0.116-0.115h0.592c0.077,0,0.116,0.039,0.116,0.115v5.639c0,0.078-0.039,0.117-0.116,0.117h-0.592
					C652.542,66.019,652.503,65.979,652.503,65.901z"/>
				<path fill="#E4DBDA" d="M660.99,60.552c0.26,0.326,0.39,0.779,0.39,1.359v3.99c0,0.078-0.039,0.117-0.116,0.117h-0.592
					c-0.077,0-0.116-0.039-0.116-0.117v-3.922c0-0.379-0.082-0.672-0.243-0.881c-0.163-0.209-0.391-0.313-0.686-0.313
					c-0.31,0-0.553,0.111-0.73,0.336c-0.179,0.225-0.268,0.529-0.268,0.916v3.863c0,0.078-0.037,0.117-0.114,0.117h-0.592
					c-0.078,0-0.116-0.039-0.116-0.117v-5.639c0-0.076,0.038-0.115,0.116-0.115h0.592c0.077,0,0.114,0.039,0.114,0.115v0.383
					c0,0.016,0.01,0.025,0.024,0.029c0.016,0.004,0.027-0.002,0.035-0.018c0.285-0.395,0.688-0.592,1.206-0.592
					C660.367,60.065,660.732,60.228,660.99,60.552z"/>
				<path fill="#E4DBDA" d="M668.524,60.147h0.592c0.077,0,0.117,0.039,0.117,0.115v5.639c0,0.828-0.192,1.455-0.574,1.885
					c-0.383,0.43-1.023,0.625-1.92,0.586c-0.079-0.008-0.116-0.051-0.116-0.127v-0.498c0-0.078,0.037-0.117,0.116-0.117
					c0.619,0.016,1.051-0.125,1.298-0.424c0.248-0.297,0.372-0.756,0.372-1.375v-0.348c0-0.014-0.005-0.027-0.018-0.035
					c-0.012-0.006-0.025-0.002-0.04,0.012c-0.132,0.193-0.301,0.342-0.505,0.441c-0.205,0.102-0.424,0.15-0.656,0.15
					c-0.486,0-0.871-0.162-1.153-0.486c-0.282-0.326-0.425-0.754-0.425-1.289v-2.447c0-0.541,0.143-0.973,0.425-1.293
					c0.282-0.322,0.667-0.482,1.153-0.482c0.232,0,0.451,0.049,0.656,0.146c0.204,0.096,0.373,0.24,0.505,0.434
					c0.015,0.023,0.028,0.033,0.04,0.029c0.013-0.004,0.018-0.018,0.018-0.041v-0.359C668.409,60.187,668.448,60.147,668.524,60.147
					z M668.137,65.026c0.182-0.205,0.272-0.471,0.272-0.795v-2.344c0-0.332-0.091-0.602-0.272-0.807
					c-0.183-0.205-0.416-0.309-0.702-0.309c-0.294,0-0.534,0.104-0.72,0.309s-0.277,0.475-0.277,0.807v2.344
					c0,0.324,0.092,0.59,0.277,0.795c0.186,0.203,0.426,0.307,0.72,0.307C667.721,65.333,667.954,65.229,668.137,65.026z"/>
				<path fill="#E4DBDA" d="M673.578,65.786c-0.12-0.133-0.18-0.295-0.18-0.488c0-0.186,0.063-0.346,0.191-0.48
					c0.127-0.137,0.271-0.203,0.435-0.203c0.171,0,0.318,0.066,0.447,0.203c0.127,0.135,0.191,0.295,0.191,0.48
					c0,0.193-0.062,0.355-0.186,0.488c-0.124,0.131-0.274,0.197-0.453,0.197C673.847,65.983,673.697,65.917,673.578,65.786z"/>
			</g>
		</g>
	</g>
</g>
<g>
	<g>
		<g>
			<g>
				<path d="M30.107,183.192c-1.336-1.321-2.004-3.085-2.004-5.292v-16.636c0-2.206,0.668-3.97,2.004-5.291
					c1.335-1.32,3.121-1.981,5.356-1.981s4.029,0.668,5.378,2.004c1.351,1.336,2.026,3.106,2.026,5.312v1.873
					c0,0.292-0.146,0.436-0.436,0.436h-2.222c-0.29,0-0.436-0.145-0.436-0.436v-1.959c0-1.365-0.392-2.461-1.176-3.288
					c-0.783-0.828-1.829-1.241-3.136-1.241c-1.277,0-2.315,0.421-3.113,1.262c-0.799,0.843-1.198,1.932-1.198,3.267v16.724
					c0,1.335,0.399,2.423,1.198,3.266c0.798,0.842,1.836,1.262,3.113,1.262c1.307,0,2.353-0.413,3.136-1.241
					c0.784-0.827,1.176-1.923,1.176-3.287v-5.575c0-0.116-0.058-0.174-0.174-0.174h-3.745c-0.291,0-0.436-0.145-0.436-0.436v-1.829
					c0-0.289,0.145-0.436,0.436-0.436h6.576c0.289,0,0.436,0.146,0.436,0.436v7.969c0,2.208-0.676,3.971-2.026,5.292
					c-1.349,1.321-3.143,1.98-5.378,1.98S31.442,184.514,30.107,183.192z"/>
				<path d="M72.873,157.04H62.77c-0.116,0-0.174,0.059-0.174,0.174v10.8c0,0.117,0.058,0.174,0.174,0.174h6.358
					c0.289,0,0.435,0.146,0.435,0.436v1.873c0,0.29-0.146,0.436-0.435,0.436H62.77c-0.116,0-0.174,0.058-0.174,0.173v10.845
					c0,0.115,0.058,0.173,0.174,0.173h10.104c0.289,0,0.435,0.146,0.435,0.436v1.829c0,0.292-0.146,0.437-0.435,0.437H59.938
					c-0.29,0-0.436-0.145-0.436-0.437v-29.612c0-0.29,0.146-0.436,0.436-0.436h12.935c0.289,0,0.435,0.146,0.435,0.436v1.828
					C73.308,156.896,73.162,157.04,72.873,157.04z"/>
				<path d="M90.837,183.083c-1.38-1.394-2.069-3.237-2.069-5.531v-15.939c0-2.294,0.689-4.138,2.069-5.531
					c1.379-1.394,3.186-2.09,5.422-2.09c2.265,0,4.094,0.697,5.487,2.09s2.091,3.237,2.091,5.531v15.939
					c0,2.265-0.697,4.101-2.091,5.509s-3.223,2.112-5.487,2.112C94.022,185.173,92.216,184.477,90.837,183.083z M99.504,181.146
					c0.826-0.886,1.24-2.025,1.24-3.419v-16.245c0-1.421-0.414-2.576-1.24-3.461c-0.828-0.886-1.909-1.328-3.245-1.328
					c-1.307,0-2.366,0.442-3.179,1.328c-0.813,0.886-1.221,2.041-1.221,3.461v16.245c0,1.394,0.407,2.533,1.221,3.419
					c0.813,0.885,1.872,1.328,3.179,1.328C97.595,182.473,98.676,182.031,99.504,181.146z"/>
				<path d="M120.689,184.389v-29.612c0-0.29,0.146-0.436,0.436-0.436h2.222c0.29,0,0.436,0.146,0.436,0.436v27.175
					c0,0.115,0.058,0.173,0.173,0.173h9.974c0.29,0,0.436,0.146,0.436,0.436v1.829c0,0.292-0.146,0.437-0.436,0.437h-12.804
					C120.835,184.825,120.689,184.681,120.689,184.389z"/>
				<path d="M180.439,184.389v-29.612c0-0.29,0.146-0.436,0.436-0.436h2.309c0.232,0,0.393,0.115,0.479,0.348l8.754,21.949
					c0.027,0.086,0.071,0.131,0.13,0.131c0.058,0,0.088-0.045,0.088-0.131v-21.861c0-0.29,0.145-0.436,0.435-0.436h2.178
					c0.29,0,0.436,0.146,0.436,0.436v29.612c0,0.292-0.146,0.437-0.436,0.437h-2.308c-0.233,0-0.393-0.116-0.479-0.349
					l-8.754-21.949c-0.029-0.088-0.072-0.123-0.13-0.109c-0.059,0.015-0.088,0.065-0.088,0.152l0.044,21.817
					c0,0.292-0.146,0.437-0.436,0.437h-2.222C180.585,184.825,180.439,184.681,180.439,184.389z"/>
				<path d="M213.232,184.389v-29.612c0-0.29,0.146-0.436,0.436-0.436h2.222c0.29,0,0.436,0.146,0.436,0.436v29.612
					c0,0.292-0.146,0.437-0.436,0.437h-2.222C213.378,184.825,213.232,184.681,213.232,184.389z"/>
				<path d="M240.801,159.392c-0.03-0.086-0.06-0.13-0.088-0.13c-0.029,0-0.058,0.043-0.087,0.13l-5.226,25.041
					c-0.03,0.261-0.188,0.393-0.479,0.393H232.7c-0.146,0-0.255-0.044-0.327-0.132c-0.072-0.086-0.095-0.201-0.064-0.348
					l6.576-29.614c0.058-0.261,0.218-0.391,0.479-0.391h2.613c0.29,0,0.45,0.13,0.479,0.391l6.619,29.614v0.087
					c0,0.261-0.13,0.393-0.391,0.393h-2.266c-0.261,0-0.421-0.132-0.479-0.393L240.801,159.392z"/>
			</g>
			<g>
				<path d="M150.587,183.082c-1.38-1.393-2.068-3.237-2.068-5.531v-15.938c0-2.293,0.688-4.138,2.068-5.531
					c1.379-1.395,3.186-2.09,5.422-2.09c2.264,0,4.093,0.696,5.487,2.09c1.394,1.393,2.091,3.237,2.091,5.531v15.938
					c0,2.266-0.697,4.102-2.091,5.51c-1.395,1.409-3.224,2.111-5.487,2.111C153.772,185.172,151.966,184.477,150.587,183.082z
					 M159.253,181.145c0.827-0.885,1.241-2.025,1.241-3.418v-16.245c0-1.423-0.414-2.576-1.241-3.462
					c-0.828-0.886-1.909-1.329-3.244-1.329c-1.307,0-2.366,0.443-3.179,1.329c-0.813,0.886-1.221,2.039-1.221,3.462v16.245
					c0,1.393,0.407,2.533,1.221,3.418c0.813,0.886,1.872,1.329,3.179,1.329C157.344,182.473,158.425,182.03,159.253,181.145z"/>
			</g>
		</g>
	</g>
</g>
<g>
	<g>
		<g>
			<g>
				<path fill="#E4DBDA" d="M519.613,190.066c-1.336-1.321-2.004-3.085-2.004-5.292v-16.637c0-2.205,0.668-3.969,2.004-5.291
					c1.335-1.32,3.121-1.98,5.356-1.98s4.029,0.668,5.378,2.004c1.351,1.336,2.026,3.105,2.026,5.312v1.872
					c0,0.292-0.146,0.437-0.436,0.437h-2.222c-0.29,0-0.436-0.145-0.436-0.437v-1.959c0-1.364-0.392-2.461-1.176-3.287
					c-0.783-0.828-1.829-1.241-3.136-1.241c-1.277,0-2.315,0.421-3.113,1.263c-0.799,0.842-1.198,1.932-1.198,3.266v16.725
					c0,1.335,0.399,2.423,1.198,3.266c0.798,0.842,1.836,1.262,3.113,1.262c1.307,0,2.353-0.412,3.136-1.24
					c0.784-0.827,1.176-1.924,1.176-3.287v-5.575c0-0.116-0.058-0.175-0.174-0.175h-3.745c-0.291,0-0.436-0.145-0.436-0.436v-1.829
					c0-0.289,0.145-0.436,0.436-0.436h6.576c0.289,0,0.436,0.146,0.436,0.436v7.97c0,2.207-0.676,3.971-2.026,5.292
					c-1.349,1.321-3.143,1.98-5.378,1.98S520.948,191.387,519.613,190.066z"/>
				<path fill="#E4DBDA" d="M562.379,163.914h-10.104c-0.116,0-0.174,0.06-0.174,0.175v10.8c0,0.116,0.058,0.175,0.174,0.175h6.358
					c0.289,0,0.435,0.146,0.435,0.436v1.873c0,0.289-0.146,0.436-0.435,0.436h-6.358c-0.116,0-0.174,0.057-0.174,0.173v10.845
					c0,0.115,0.058,0.174,0.174,0.174h10.104c0.289,0,0.435,0.145,0.435,0.436v1.828c0,0.292-0.146,0.437-0.435,0.437h-12.935
					c-0.29,0-0.436-0.145-0.436-0.437V161.65c0-0.29,0.146-0.436,0.436-0.436h12.935c0.289,0,0.435,0.146,0.435,0.436v1.828
					C562.813,163.769,562.668,163.914,562.379,163.914z"/>
				<path fill="#E4DBDA" d="M580.343,189.958c-1.38-1.395-2.069-3.238-2.069-5.531v-15.939c0-2.294,0.689-4.138,2.069-5.531
					c1.379-1.394,3.186-2.09,5.422-2.09c2.265,0,4.094,0.696,5.487,2.09s2.091,3.237,2.091,5.531v15.939
					c0,2.265-0.697,4.101-2.091,5.508c-1.394,1.408-3.223,2.112-5.487,2.112C583.528,192.046,581.722,191.35,580.343,189.958z
					 M589.01,188.019c0.826-0.886,1.24-2.024,1.24-3.419v-16.244c0-1.422-0.414-2.576-1.24-3.462
					c-0.828-0.886-1.909-1.328-3.245-1.328c-1.307,0-2.366,0.442-3.179,1.328c-0.813,0.886-1.221,2.04-1.221,3.462V184.6
					c0,1.395,0.407,2.533,1.221,3.419c0.813,0.886,1.872,1.327,3.179,1.327C587.101,189.346,588.182,188.905,589.01,188.019z"/>
				<path fill="#E4DBDA" d="M610.195,191.262V161.65c0-0.29,0.146-0.436,0.436-0.436h2.222c0.29,0,0.436,0.146,0.436,0.436v27.175
					c0,0.115,0.058,0.174,0.173,0.174h9.974c0.29,0,0.436,0.145,0.436,0.436v1.828c0,0.292-0.146,0.437-0.436,0.437h-12.804
					C610.341,191.699,610.195,191.554,610.195,191.262z"/>
				<path fill="#E4DBDA" d="M669.945,191.262V161.65c0-0.29,0.146-0.436,0.436-0.436h2.309c0.232,0,0.393,0.115,0.479,0.348
					l8.754,21.949c0.027,0.087,0.071,0.132,0.13,0.132c0.058,0,0.088-0.045,0.088-0.132V161.65c0-0.29,0.145-0.436,0.435-0.436
					h2.178c0.29,0,0.436,0.146,0.436,0.436v29.612c0,0.292-0.146,0.437-0.436,0.437h-2.308c-0.233,0-0.393-0.116-0.479-0.349
					l-8.754-21.949c-0.029-0.088-0.072-0.123-0.13-0.108c-0.059,0.015-0.088,0.065-0.088,0.152l0.044,21.817
					c0,0.292-0.146,0.437-0.436,0.437h-2.222C670.091,191.699,669.945,191.554,669.945,191.262z"/>
				<path fill="#E4DBDA" d="M702.738,191.262V161.65c0-0.29,0.146-0.436,0.436-0.436h2.222c0.29,0,0.436,0.146,0.436,0.436v29.612
					c0,0.292-0.146,0.437-0.436,0.437h-2.222C702.884,191.699,702.738,191.554,702.738,191.262z"/>
				<path fill="#E4DBDA" d="M730.307,166.265c-0.03-0.087-0.06-0.13-0.088-0.13c-0.029,0-0.058,0.043-0.087,0.13l-5.226,25.041
					c-0.03,0.261-0.188,0.393-0.479,0.393h-2.221c-0.146,0-0.255-0.044-0.327-0.132c-0.072-0.086-0.095-0.201-0.064-0.348
					l6.576-29.613c0.058-0.262,0.218-0.392,0.479-0.392h2.613c0.29,0,0.45,0.13,0.479,0.392l6.619,29.613v0.087
					c0,0.261-0.13,0.393-0.391,0.393h-2.266c-0.261,0-0.421-0.132-0.479-0.393L730.307,166.265z"/>
			</g>
			<g>
				<path fill="#E4DBDA" d="M640.093,189.956c-1.38-1.393-2.068-3.236-2.068-5.531v-15.938c0-2.294,0.688-4.139,2.068-5.531
					c1.379-1.395,3.186-2.09,5.422-2.09c2.264,0,4.093,0.695,5.487,2.09c1.394,1.393,2.091,3.237,2.091,5.531v15.938
					c0,2.266-0.697,4.102-2.091,5.51c-1.395,1.409-3.224,2.111-5.487,2.111C643.278,192.045,641.472,191.35,640.093,189.956z
					 M648.759,188.018c0.827-0.885,1.241-2.025,1.241-3.418v-16.244c0-1.424-0.414-2.576-1.241-3.463
					c-0.828-0.886-1.909-1.328-3.244-1.328c-1.307,0-2.366,0.442-3.179,1.328c-0.813,0.887-1.221,2.039-1.221,3.463V184.6
					c0,1.393,0.407,2.533,1.221,3.418c0.813,0.886,1.872,1.328,3.179,1.328C646.85,189.346,647.931,188.904,648.759,188.018z"/>
			</g>
		</g>
	</g>
</g>
</svg>
