<?xml version="1.0" encoding="utf-8"?>
<!DOCTYPE svg PUBLIC "-//W3C//DTD SVG 1.1//EN" "http://www.w3.org/Graphics/SVG/1.1/DTD/svg11.dtd">
<svg version="1.1" id="レイヤー_1" xmlns="http://www.w3.org/2000/svg" xmlns:xlink="http://www.w3.org/1999/xlink" x="0px"
	 y="0px" width="220.971px" height="31.181px" viewBox="0 0 220.971 31.181" enable-background="new 0 0 220.971 31.181"
	 xml:space="preserve">
<g>
	<g>
		<g>
			<g>
				<path d="M2.004,29.201C0.668,27.879,0,26.116,0,23.908V7.272c0-2.206,0.668-3.97,2.004-5.291C3.339,0.661,5.125,0,7.36,0
					s4.029,0.668,5.378,2.004c1.351,1.336,2.026,3.106,2.026,5.312v1.873c0,0.292-0.146,0.436-0.436,0.436h-2.222
					c-0.29,0-0.436-0.145-0.436-0.436V7.229c0-1.365-0.392-2.461-1.176-3.288C9.713,3.114,8.667,2.701,7.36,2.701
					c-1.277,0-2.315,0.421-3.113,1.262C3.448,4.806,3.049,5.895,3.049,7.229v16.724c0,1.335,0.399,2.423,1.198,3.266
					c0.798,0.842,1.836,1.262,3.113,1.262c1.307,0,2.353-0.413,3.136-1.241c0.784-0.827,1.176-1.923,1.176-3.287v-5.575
					c0-0.116-0.058-0.174-0.174-0.174H7.753c-0.291,0-0.436-0.145-0.436-0.436v-1.829c0-0.289,0.145-0.436,0.436-0.436h6.576
					c0.289,0,0.436,0.146,0.436,0.436v7.969c0,2.208-0.676,3.971-2.026,5.292c-1.349,1.321-3.143,1.98-5.378,1.98
					S3.339,30.522,2.004,29.201z"/>
				<path d="M44.77,3.048H34.666c-0.116,0-0.174,0.059-0.174,0.174v10.8c0,0.117,0.058,0.174,0.174,0.174h6.358
					c0.289,0,0.435,0.146,0.435,0.436v1.873c0,0.29-0.146,0.436-0.435,0.436h-6.358c-0.116,0-0.174,0.058-0.174,0.173v10.845
					c0,0.115,0.058,0.173,0.174,0.173H44.77c0.289,0,0.435,0.146,0.435,0.436v1.829c0,0.292-0.146,0.437-0.435,0.437H31.835
					c-0.29,0-0.436-0.145-0.436-0.437V0.785c0-0.29,0.146-0.436,0.436-0.436H44.77c0.289,0,0.435,0.146,0.435,0.436v1.828
					C45.204,2.904,45.059,3.048,44.77,3.048z"/>
				<path d="M62.733,29.092c-1.38-1.394-2.069-3.237-2.069-5.531V7.622c0-2.294,0.689-4.138,2.069-5.531
					C64.112,0.697,65.919,0,68.155,0c2.265,0,4.094,0.697,5.487,2.09s2.091,3.237,2.091,5.531v15.939
					c0,2.265-0.697,4.101-2.091,5.509s-3.223,2.112-5.487,2.112C65.919,31.181,64.112,30.485,62.733,29.092z M71.4,27.154
					c0.826-0.886,1.24-2.025,1.24-3.419V7.49c0-1.421-0.414-2.576-1.24-3.461c-0.828-0.886-1.909-1.328-3.245-1.328
					c-1.307,0-2.366,0.442-3.179,1.328c-0.813,0.886-1.221,2.041-1.221,3.461v16.245c0,1.394,0.407,2.533,1.221,3.419
					c0.813,0.885,1.872,1.328,3.179,1.328C69.491,28.481,70.572,28.039,71.4,27.154z"/>
				<path d="M92.586,30.397V0.785c0-0.29,0.146-0.436,0.436-0.436h2.222c0.29,0,0.436,0.146,0.436,0.436v27.175
					c0,0.115,0.058,0.173,0.173,0.173h9.974c0.29,0,0.436,0.146,0.436,0.436v1.829c0,0.292-0.146,0.437-0.436,0.437H93.021
					C92.731,30.833,92.586,30.689,92.586,30.397z"/>
				<path d="M152.336,30.397V0.785c0-0.29,0.146-0.436,0.436-0.436h2.309c0.232,0,0.393,0.115,0.479,0.348l8.754,21.949
					c0.027,0.086,0.071,0.131,0.13,0.131c0.058,0,0.088-0.045,0.088-0.131V0.785c0-0.29,0.145-0.436,0.435-0.436h2.178
					c0.29,0,0.436,0.146,0.436,0.436v29.612c0,0.292-0.146,0.437-0.436,0.437h-2.308c-0.233,0-0.393-0.116-0.479-0.349
					l-8.754-21.949c-0.029-0.088-0.072-0.123-0.13-0.109c-0.059,0.015-0.088,0.065-0.088,0.152l0.044,21.817
					c0,0.292-0.146,0.437-0.436,0.437h-2.222C152.481,30.833,152.336,30.689,152.336,30.397z"/>
				<path d="M185.129,30.397V0.785c0-0.29,0.146-0.436,0.436-0.436h2.222c0.29,0,0.436,0.146,0.436,0.436v29.612
					c0,0.292-0.146,0.437-0.436,0.437h-2.222C185.274,30.833,185.129,30.689,185.129,30.397z"/>
				<path d="M212.697,5.4c-0.03-0.086-0.06-0.13-0.088-0.13c-0.029,0-0.058,0.043-0.087,0.13l-5.226,25.041
					c-0.03,0.261-0.188,0.393-0.479,0.393h-2.221c-0.146,0-0.255-0.044-0.327-0.132c-0.072-0.086-0.095-0.201-0.064-0.348
					l6.576-29.614c0.058-0.261,0.218-0.391,0.479-0.391h2.613c0.29,0,0.45,0.13,0.479,0.391l6.619,29.614v0.087
					c0,0.261-0.13,0.393-0.391,0.393h-2.266c-0.261,0-0.421-0.132-0.479-0.393L212.697,5.4z"/>
			</g>
			<g>
				<path d="M122.483,29.09c-1.38-1.393-2.068-3.237-2.068-5.531V7.621c0-2.293,0.688-4.138,2.068-5.531
					c1.379-1.395,3.186-2.09,5.422-2.09c2.264,0,4.093,0.696,5.487,2.09c1.394,1.393,2.091,3.237,2.091,5.531V23.56
					c0,2.266-0.697,4.102-2.091,5.51c-1.395,1.409-3.224,2.111-5.487,2.111C125.669,31.18,123.862,30.485,122.483,29.09z
					 M131.149,27.153c0.827-0.885,1.241-2.025,1.241-3.418V7.49c0-1.423-0.414-2.576-1.241-3.462
					c-0.828-0.886-1.909-1.329-3.244-1.329c-1.307,0-2.366,0.443-3.179,1.329c-0.813,0.886-1.221,2.039-1.221,3.462v16.245
					c0,1.393,0.407,2.533,1.221,3.418c0.813,0.886,1.872,1.329,3.179,1.329C129.24,28.481,130.321,28.039,131.149,27.153z"/>
			</g>
		</g>
	</g>
</g>
<g>
	<g>
		<g>
			<g>
				<path fill="#E4DBDA" d="M491.51,36.074c-1.336-1.321-2.004-3.085-2.004-5.292V14.146c0-2.205,0.668-3.969,2.004-5.291
					c1.335-1.32,3.121-1.98,5.356-1.98s4.029,0.668,5.378,2.004c1.351,1.336,2.026,3.105,2.026,5.312v1.872
					c0,0.292-0.146,0.437-0.436,0.437h-2.222c-0.29,0-0.436-0.145-0.436-0.437v-1.959c0-1.364-0.392-2.461-1.176-3.287
					c-0.783-0.828-1.829-1.241-3.136-1.241c-1.277,0-2.315,0.421-3.113,1.263c-0.799,0.842-1.198,1.932-1.198,3.266v16.725
					c0,1.335,0.399,2.423,1.198,3.266c0.798,0.842,1.836,1.262,3.113,1.262c1.307,0,2.353-0.412,3.136-1.24
					c0.784-0.827,1.176-1.924,1.176-3.287v-5.575c0-0.116-0.058-0.175-0.174-0.175h-3.745c-0.291,0-0.436-0.145-0.436-0.436v-1.829
					c0-0.289,0.145-0.436,0.436-0.436h6.576c0.289,0,0.436,0.146,0.436,0.436v7.97c0,2.207-0.676,3.971-2.026,5.292
					c-1.349,1.321-3.143,1.98-5.378,1.98S492.845,37.396,491.51,36.074z"/>
				<path fill="#E4DBDA" d="M534.275,9.922h-10.104c-0.116,0-0.174,0.06-0.174,0.175v10.8c0,0.116,0.058,0.175,0.174,0.175h6.358
					c0.289,0,0.435,0.146,0.435,0.436v1.873c0,0.289-0.146,0.436-0.435,0.436h-6.358c-0.116,0-0.174,0.057-0.174,0.173v10.845
					c0,0.115,0.058,0.174,0.174,0.174h10.104c0.289,0,0.435,0.145,0.435,0.436v1.828c0,0.292-0.146,0.437-0.435,0.437h-12.935
					c-0.29,0-0.436-0.145-0.436-0.437V7.658c0-0.29,0.146-0.436,0.436-0.436h12.935c0.289,0,0.435,0.146,0.435,0.436v1.828
					C534.71,9.777,534.564,9.922,534.275,9.922z"/>
				<path fill="#E4DBDA" d="M552.239,35.966c-1.38-1.395-2.069-3.238-2.069-5.531V14.495c0-2.294,0.689-4.138,2.069-5.531
					c1.379-1.394,3.186-2.09,5.422-2.09c2.265,0,4.094,0.696,5.487,2.09s2.091,3.237,2.091,5.531v15.939
					c0,2.265-0.697,4.101-2.091,5.508c-1.394,1.408-3.223,2.112-5.487,2.112C555.425,38.055,553.618,37.358,552.239,35.966z
					 M560.906,34.027c0.826-0.886,1.24-2.024,1.24-3.419V14.364c0-1.422-0.414-2.576-1.24-3.462
					c-0.828-0.886-1.909-1.328-3.245-1.328c-1.307,0-2.366,0.442-3.179,1.328c-0.813,0.886-1.221,2.04-1.221,3.462v16.244
					c0,1.395,0.407,2.533,1.221,3.419c0.813,0.886,1.872,1.327,3.179,1.327C558.997,35.354,560.078,34.913,560.906,34.027z"/>
				<path fill="#E4DBDA" d="M582.092,37.271V7.658c0-0.29,0.146-0.436,0.436-0.436h2.222c0.29,0,0.436,0.146,0.436,0.436v27.175
					c0,0.115,0.058,0.174,0.173,0.174h9.974c0.29,0,0.436,0.145,0.436,0.436v1.828c0,0.292-0.146,0.437-0.436,0.437h-12.804
					C582.237,37.707,582.092,37.563,582.092,37.271z"/>
				<path fill="#E4DBDA" d="M641.842,37.271V7.658c0-0.29,0.146-0.436,0.436-0.436h2.309c0.232,0,0.393,0.115,0.479,0.348
					l8.754,21.949c0.027,0.087,0.071,0.132,0.13,0.132c0.058,0,0.088-0.045,0.088-0.132V7.658c0-0.29,0.145-0.436,0.435-0.436h2.178
					c0.29,0,0.436,0.146,0.436,0.436v29.612c0,0.292-0.146,0.437-0.436,0.437h-2.308c-0.233,0-0.393-0.116-0.479-0.349
					l-8.754-21.949c-0.029-0.088-0.072-0.123-0.13-0.108c-0.059,0.015-0.088,0.065-0.088,0.152l0.044,21.817
					c0,0.292-0.146,0.437-0.436,0.437h-2.222C641.987,37.707,641.842,37.563,641.842,37.271z"/>
				<path fill="#E4DBDA" d="M674.635,37.271V7.658c0-0.29,0.146-0.436,0.436-0.436h2.222c0.29,0,0.436,0.146,0.436,0.436v29.612
					c0,0.292-0.146,0.437-0.436,0.437h-2.222C674.78,37.707,674.635,37.563,674.635,37.271z"/>
				<path fill="#E4DBDA" d="M702.203,12.273c-0.03-0.087-0.06-0.13-0.088-0.13c-0.029,0-0.058,0.043-0.087,0.13l-5.226,25.041
					c-0.03,0.261-0.188,0.393-0.479,0.393h-2.221c-0.146,0-0.255-0.044-0.327-0.132c-0.072-0.086-0.095-0.201-0.064-0.348
					l6.576-29.613c0.058-0.262,0.218-0.392,0.479-0.392h2.613c0.29,0,0.45,0.13,0.479,0.392l6.619,29.613v0.087
					c0,0.261-0.13,0.393-0.391,0.393h-2.266c-0.261,0-0.421-0.132-0.479-0.393L702.203,12.273z"/>
			</g>
			<g>
				<path fill="#E4DBDA" d="M611.989,35.964c-1.38-1.393-2.068-3.236-2.068-5.531V14.495c0-2.294,0.688-4.139,2.068-5.531
					c1.379-1.395,3.186-2.09,5.422-2.09c2.264,0,4.093,0.695,5.487,2.09c1.394,1.393,2.091,3.237,2.091,5.531v15.938
					c0,2.266-0.697,4.102-2.091,5.51c-1.395,1.409-3.224,2.111-5.487,2.111C615.175,38.054,613.368,37.358,611.989,35.964z
					 M620.655,34.026c0.827-0.885,1.241-2.025,1.241-3.418V14.364c0-1.424-0.414-2.576-1.241-3.463
					c-0.828-0.886-1.909-1.328-3.244-1.328c-1.307,0-2.366,0.442-3.179,1.328c-0.813,0.887-1.221,2.039-1.221,3.463v16.244
					c0,1.393,0.407,2.533,1.221,3.418c0.813,0.886,1.872,1.328,3.179,1.328C618.746,35.354,619.827,34.912,620.655,34.026z"/>
			</g>
		</g>
	</g>
</g>
</svg>
